<svg width="24" height="24" viewBox="0 0 24 24" fill="none" xmlns="http://www.w3.org/2000/svg">
<path d="M19.4396 13.0003C19.2196 13.0003 18.9896 12.9303 18.7696 12.8803C18.3241 12.7821 17.8862 12.6518 17.4596 12.4903C16.9957 12.3215 16.4857 12.3303 16.0279 12.5149C15.57 12.6995 15.1967 13.047 14.9796 13.4903L14.7596 13.9403C13.7856 13.3985 12.8906 12.7255 12.0996 11.9404C11.3144 11.1494 10.6414 10.2543 10.0996 9.28036L10.5196 9.00036C10.963 8.78327 11.3104 8.40989 11.495 7.95205C11.6796 7.49421 11.6884 6.98427 11.5196 6.52036C11.3608 6.09278 11.2305 5.65516 11.1296 5.21036C11.0796 4.99036 11.0396 4.76036 11.0096 4.53036C10.8882 3.82598 10.5192 3.1881 9.96924 2.7316C9.41924 2.27509 8.72431 2.02997 8.00962 2.04036H5.00962C4.57865 2.03631 4.15187 2.12517 3.75833 2.30089C3.36479 2.4766 3.01373 2.73505 2.72904 3.05864C2.44436 3.38223 2.23275 3.76335 2.1086 4.17607C1.98445 4.58879 1.95069 5.02342 2.00961 5.45036C2.54235 9.63974 4.45565 13.5322 7.44727 16.513C10.4389 19.4937 14.3383 21.3928 18.5296 21.9103H18.9096C19.647 21.9114 20.359 21.6408 20.9096 21.1503C21.2259 20.8674 21.4787 20.5205 21.651 20.1326C21.8234 19.7448 21.9115 19.3248 21.9096 18.9003V15.9003C21.8973 15.2057 21.6444 14.5369 21.1939 14.008C20.7434 13.4791 20.1234 13.1229 19.4396 13.0003ZM19.9396 19.0003C19.9394 19.1423 19.909 19.2826 19.8503 19.4119C19.7917 19.5413 19.7062 19.6566 19.5996 19.7503C19.4878 19.8468 19.3572 19.9189 19.216 19.9619C19.0748 20.005 18.9261 20.018 18.7796 20.0003C15.0345 19.5201 11.5558 17.8068 8.89233 15.1306C6.22881 12.4544 4.53203 8.96769 4.06962 5.22036C4.0537 5.07388 4.06765 4.92569 4.11062 4.78475C4.15359 4.64381 4.22469 4.51304 4.31962 4.40036C4.41333 4.29369 4.52868 4.2082 4.658 4.14957C4.78731 4.09095 4.92763 4.06054 5.06962 4.06036H8.06962C8.30216 4.05518 8.52924 4.13124 8.71176 4.27543C8.89428 4.41962 9.02083 4.62293 9.06962 4.85036C9.10962 5.12369 9.15962 5.39369 9.21962 5.66036C9.33514 6.1875 9.48888 6.70554 9.67962 7.21036L8.27962 7.86036C8.15991 7.91528 8.05224 7.9933 7.96277 8.08995C7.87331 8.1866 7.80382 8.29997 7.75829 8.42355C7.71276 8.54713 7.69209 8.67849 7.69746 8.81008C7.70284 8.94167 7.73416 9.0709 7.78962 9.19036C9.22882 12.2731 11.7069 14.7511 14.7896 16.1903C15.033 16.2903 15.3061 16.2903 15.5496 16.1903C15.6743 16.1457 15.7889 16.0768 15.8867 15.9875C15.9846 15.8982 16.0637 15.7904 16.1196 15.6703L16.7396 14.2703C17.2565 14.4552 17.7842 14.6088 18.3196 14.7303C18.5862 14.7903 18.8562 14.8403 19.1296 14.8803C19.357 14.9291 19.5603 15.0557 19.7045 15.2382C19.8487 15.4207 19.9247 15.6478 19.9196 15.8803L19.9396 19.0003Z" fill="#424C5D"/>
</svg>
