<svg width="24" height="24" viewBox="0 0 24 24" fill="none" xmlns="http://www.w3.org/2000/svg">
<g clip-path="url(#clip0_25_8851)">
<path d="M21.5996 5.42L21.8718 4.45777C21.8602 4.45448 21.8485 4.45141 21.8368 4.44854L21.5996 5.42ZM12.9996 5V4V5ZM4.39959 5.46L4.14123 4.49395C4.1366 4.49519 4.13197 4.49646 4.12736 4.49777L4.39959 5.46ZM2.4596 7.46L1.48952 7.21719C1.48411 7.23881 1.47942 7.2606 1.47547 7.28253L2.4596 7.46ZM1.9996 12.75L2.99963 12.7563L2.99958 12.7451L1.9996 12.75ZM2.4596 18.08L1.47548 18.2575C1.48134 18.29 1.4888 18.3222 1.49784 18.3539L2.4596 18.08ZM4.39959 20L4.13567 20.9646L4.14123 20.966L4.39959 20ZM12.9996 20.46V19.46V20.46ZM21.5996 20L21.8579 20.966C21.8626 20.9648 21.8672 20.9635 21.8718 20.9622L21.5996 20ZM23.5396 18L24.5096 18.2428C24.5151 18.2212 24.5197 18.1994 24.5237 18.1774L23.5396 18ZM23.9996 12.75L22.9995 12.7437L22.9996 12.7536L23.9996 12.75ZM24.5096 7.17719C24.3481 6.53189 24.0192 5.94063 23.556 5.46315L22.1204 6.85566C22.3385 7.08051 22.4934 7.35893 22.5695 7.66281L24.5096 7.17719ZM23.556 5.46315C23.0929 4.98566 22.5119 4.63886 21.8718 4.45777L21.3273 6.38223C21.6288 6.46751 21.9023 6.63082 22.1204 6.85566L23.556 5.46315ZM21.8368 4.44854C21.3111 4.32017 20.4763 4.23798 19.5966 4.1794C18.6911 4.11909 17.6552 4.07928 16.6817 4.05287C15.7067 4.02641 14.7868 4.01321 14.1112 4.00661C13.7732 4.00331 13.4959 4.00166 13.3028 4.00083C13.2063 4.00042 13.1308 4.00021 13.0793 4.0001C13.0535 4.00005 13.0337 4.00003 13.0203 4.00001C13.0136 4.00001 13.0085 4 13.005 4C13.0033 4 13.002 4 13.0011 4C13.0006 4 13.0003 4 13 4C12.9999 4 12.9998 4 12.9997 4C12.9996 4 12.9996 4 12.9996 5C12.9996 6 12.9996 6 12.9996 6C12.9996 6 12.9997 6 12.9998 6C12.9999 6 13.0002 6 13.0006 6C13.0013 6 13.0025 6 13.0041 6C13.0072 6 13.012 6.00001 13.0184 6.00001C13.0311 6.00002 13.0502 6.00005 13.0752 6.0001C13.1253 6.0002 13.1993 6.0004 13.2943 6.00081C13.4842 6.00162 13.7578 6.00325 14.0917 6.00651C14.7598 6.01304 15.6675 6.02609 16.6275 6.05213C17.5889 6.07822 18.5955 6.11716 19.4637 6.17498C20.3579 6.23452 21.0281 6.30983 21.3624 6.39146L21.8368 4.44854ZM12.9996 5C12.9996 4 12.9995 4 12.9994 4C12.9994 4 12.9993 4 12.9991 4C12.9989 4 12.9985 4 12.9981 4C12.9971 4 12.9958 4 12.994 4C12.9906 4 12.9854 4.00001 12.9787 4.00001C12.9653 4.00003 12.9455 4.00006 12.9197 4.00012C12.8681 4.00023 12.7925 4.00046 12.6959 4.00091C12.5027 4.00182 12.2252 4.00363 11.887 4.00724C11.211 4.01448 10.2906 4.02895 9.31489 4.05794C8.34076 4.08689 7.30349 4.13054 6.39622 4.19671C5.51692 4.26085 4.67488 4.35123 4.14123 4.49395L4.65795 6.42605C4.98431 6.33877 5.64726 6.25665 6.54171 6.19141C7.40819 6.12821 8.41342 6.08561 9.37429 6.05706C10.3336 6.02855 11.2407 6.01427 11.9084 6.00713C12.2421 6.00356 12.5155 6.00178 12.7053 6.00089C12.8001 6.00044 12.8741 6.00022 12.9241 6.00011C12.9491 6.00005 12.9682 6.00003 12.9809 6.00001C12.9872 6.00001 12.992 6 12.9951 6C12.9967 6 12.9978 6 12.9986 6C12.999 6 12.9992 6 12.9994 6C12.9995 6 12.9995 6 12.9996 6C12.9996 6 12.9996 6 12.9996 5ZM4.12736 4.49777C3.48727 4.67886 2.90631 5.02566 2.44315 5.50315L3.87873 6.89566C4.09683 6.67082 4.37041 6.50751 4.67182 6.42223L4.12736 4.49777ZM2.44315 5.50315C1.97999 5.98063 1.65104 6.57189 1.48952 7.21719L3.42967 7.70281C3.50573 7.39893 3.66063 7.12051 3.87873 6.89566L2.44315 5.50315ZM1.47547 7.28253C1.14983 9.08827 0.990544 10.9201 0.999608 12.7549L2.99958 12.7451C2.99112 11.0325 3.13979 9.32284 3.44372 7.63747L1.47547 7.28253ZM0.999615 12.7437C0.988004 14.5924 1.14731 16.4382 1.47548 18.2575L3.44371 17.9025C3.13742 16.2044 2.98874 14.4817 2.99957 12.7563L0.999615 12.7437ZM1.49784 18.3539C1.6759 18.9792 2.01223 19.5479 2.47431 20.0052L3.88117 18.5837C3.66358 18.3684 3.5052 18.1005 3.42135 17.8061L1.49784 18.3539ZM2.47431 20.0052C2.93639 20.4626 3.5086 20.793 4.13567 20.9645L4.66351 19.0355C4.36822 18.9547 4.09876 18.7991 3.88117 18.5837L2.47431 20.0052ZM4.14123 20.966C4.67488 21.1088 5.51692 21.1992 6.39622 21.2633C7.30349 21.3295 8.34076 21.3731 9.31489 21.4021C10.2906 21.4311 11.211 21.4455 11.887 21.4528C12.2252 21.4564 12.5027 21.4582 12.6959 21.4591C12.7925 21.4595 12.8681 21.4598 12.9197 21.4599C12.9455 21.4599 12.9653 21.46 12.9787 21.46C12.9854 21.46 12.9906 21.46 12.994 21.46C12.9958 21.46 12.9971 21.46 12.9981 21.46C12.9985 21.46 12.9989 21.46 12.9991 21.46C12.9993 21.46 12.9994 21.46 12.9994 21.46C12.9995 21.46 12.9996 21.46 12.9996 20.46C12.9996 19.46 12.9996 19.46 12.9996 19.46C12.9995 19.46 12.9995 19.46 12.9994 19.46C12.9992 19.46 12.999 19.46 12.9986 19.46C12.9978 19.46 12.9967 19.46 12.9951 19.46C12.992 19.46 12.9872 19.46 12.9809 19.46C12.9682 19.46 12.9491 19.4599 12.9241 19.4599C12.8741 19.4598 12.8001 19.4596 12.7053 19.4591C12.5155 19.4582 12.2421 19.4564 11.9084 19.4529C11.2407 19.4457 10.3336 19.4314 9.37429 19.4029C8.41342 19.3744 7.40819 19.3318 6.54171 19.2686C5.64726 19.2033 4.98431 19.1212 4.65795 19.034L4.14123 20.966ZM12.9996 20.46C12.9996 21.46 12.9996 21.46 12.9997 21.46C12.9998 21.46 12.9999 21.46 13 21.46C13.0003 21.46 13.0006 21.46 13.0011 21.46C13.002 21.46 13.0033 21.46 13.0051 21.46C13.0086 21.46 13.0137 21.46 13.0204 21.46C13.0339 21.46 13.0537 21.4599 13.0795 21.4599C13.1311 21.4598 13.2066 21.4595 13.3032 21.4591C13.4965 21.4582 13.774 21.4564 14.1121 21.4528C14.7881 21.4455 15.7085 21.4311 16.6843 21.4021C17.6584 21.3731 18.6957 21.3295 19.6029 21.2633C20.4822 21.1992 21.3243 21.1088 21.8579 20.966L21.3412 19.034C21.0149 19.1212 20.3519 19.2033 19.4575 19.2686C18.591 19.3318 17.5857 19.3744 16.6249 19.4029C15.6656 19.4314 14.7585 19.4457 14.0907 19.4529C13.7571 19.4564 13.4836 19.4582 13.2939 19.4591C13.199 19.4596 13.1251 19.4598 13.075 19.4599C13.05 19.4599 13.031 19.46 13.0183 19.46C13.0119 19.46 13.0072 19.46 13.004 19.46C13.0025 19.46 13.0013 19.46 13.0006 19.46C13.0002 19.46 12.9999 19.46 12.9998 19.46C12.9997 19.46 12.9996 19.46 12.9996 19.46C12.9996 19.46 12.9996 19.46 12.9996 20.46ZM21.8718 20.9622C22.5119 20.7811 23.0929 20.4343 23.556 19.9569L22.1204 18.5643C21.9023 18.7892 21.6288 18.9525 21.3273 19.0378L21.8718 20.9622ZM23.556 19.9569C24.0192 19.4794 24.3481 18.8881 24.5096 18.2428L22.5695 17.7572C22.4934 18.0611 22.3385 18.3395 22.1204 18.5643L23.556 19.9569ZM24.5237 18.1774C24.8468 16.3853 25.0061 14.5674 24.9996 12.7464L22.9996 12.7536C23.0057 14.4532 22.857 16.1499 22.5554 17.8226L24.5237 18.1774ZM24.9996 12.7563C25.0112 10.9076 24.8519 9.06183 24.5237 7.24249L22.5555 7.59751C22.8617 9.29557 23.0104 11.0183 22.9996 12.7437L24.9996 12.7563Z" fill="#424C5D"/>
<path d="M10.75 16.02H9.75C9.75 16.3761 9.93937 16.7053 10.2472 16.8844C10.555 17.0634 10.9348 17.0653 11.2443 16.8893L10.75 16.02ZM16.5 12.75L16.9943 13.6193C17.3069 13.4415 17.5 13.1096 17.5 12.75C17.5 12.3904 17.3069 12.0585 16.9943 11.8807L16.5 12.75ZM10.75 9.47998L11.2443 8.61072C10.9348 8.43468 10.555 8.43653 10.2472 8.61559C9.93937 8.79464 9.75 9.12388 9.75 9.47998H10.75ZM11.2443 16.8893L16.9943 13.6193L16.0057 11.8807L10.2557 15.1507L11.2443 16.8893ZM16.9943 11.8807L11.2443 8.61072L10.2557 10.3492L16.0057 13.6193L16.9943 11.8807ZM9.75 9.47998V16.02H11.75V9.47998H9.75Z" fill="#424C5D"/>
</g>
<defs>
<clipPath id="clip0_25_8851">
<rect width="24" height="24" fill="white"/>
</clipPath>
</defs>
</svg>
