<svg width="24" height="24" viewBox="0 0 24 24" fill="none" xmlns="http://www.w3.org/2000/svg">
<g clip-path="url(#clip0_25_8858)">
<path d="M20.8601 5.52981L20.1055 6.18604C20.3637 6.48284 20.7718 6.60075 21.1484 6.48734L20.8601 5.52981ZM13.0001 8.52981H14.0002L14 8.5164L13.0001 8.52981ZM13.0001 9.52981L13.026 10.5295C13.568 10.5154 14.0001 10.072 14.0001 9.52981H13.0001ZM4.0001 4.99981L3.10567 4.55259C2.94131 4.88132 2.97052 5.27374 3.18174 5.57452L4.0001 4.99981ZM9.0001 17.9998L9.56173 18.8271C9.86215 18.6232 10.0284 18.2725 9.99614 17.9108C9.96384 17.5491 9.73804 17.2334 9.40624 17.0859L9.0001 17.9998ZM2.0001 19.9998L2.03985 19.0005C1.57713 18.9821 1.1623 19.2838 1.03725 19.7297C0.912203 20.1756 1.10965 20.649 1.51446 20.8739L2.0001 19.9998ZM22.0001 8.49981H23.0001V8.4965L22.0001 8.49981ZM21.9201 7.66981L21.2179 6.9578C20.9803 7.19218 20.8752 7.5297 20.9379 7.85756L21.9201 7.66981ZM23.4237 3.18264C22.5539 3.79615 21.5909 4.26538 20.5718 4.57227L21.1484 6.48734C22.3735 6.11845 23.531 5.55442 24.5765 4.81696L23.4237 3.18264ZM21.6147 4.87356C20.878 4.0265 19.8989 3.42612 18.8099 3.15363L18.3244 5.09383C19.016 5.26687 19.6377 5.64813 20.1055 6.18604L21.6147 4.87356ZM18.8099 3.15363C17.7208 2.88115 16.5744 2.94969 15.5256 3.34999L16.2388 5.21852C16.9048 4.96431 17.6328 4.92078 18.3244 5.09383L18.8099 3.15363ZM15.5256 3.34999C14.4768 3.7503 13.5762 4.46305 12.9457 5.39186L14.6005 6.51518C15.0009 5.92536 15.5727 5.47273 16.2388 5.21852L15.5256 3.34999ZM12.9457 5.39186C12.3152 6.32067 11.9851 7.42071 12.0002 8.54321L14 8.5164C13.9905 7.80357 14.2001 7.10501 14.6005 6.51518L12.9457 5.39186ZM12.0001 8.52981V9.52981H14.0001V8.52981H12.0001ZM12.9742 8.53014C11.3817 8.57144 9.80366 8.21824 8.3807 7.50202L7.48151 9.28848C9.19908 10.153 11.1038 10.5793 13.026 10.5295L12.9742 8.53014ZM8.3807 7.50202C6.95774 6.7858 5.734 5.72877 4.81846 4.42509L3.18174 5.57452C4.28684 7.14811 5.76395 8.42397 7.48151 9.28848L8.3807 7.50202ZM4.0001 4.99981C3.08629 4.59366 3.08607 4.59414 3.08585 4.59466C3.08575 4.59488 3.0855 4.59543 3.08531 4.59587C3.08493 4.59674 3.08448 4.59775 3.08397 4.5989C3.08296 4.60121 3.08171 4.60406 3.08023 4.60747C3.07727 4.61427 3.07339 4.62326 3.06866 4.63439C3.05919 4.65665 3.04631 4.68745 3.03054 4.72638C2.99901 4.80421 2.95587 4.91469 2.90538 5.05434C2.80452 5.33331 2.67368 5.73058 2.54758 6.21817C2.29658 7.1887 2.05781 8.54209 2.12613 10.0452C2.19466 11.5527 2.57353 13.2314 3.57716 14.8161C4.58481 16.4071 6.18406 17.8425 8.59396 18.9136L9.40624 17.0859C7.31614 16.157 6.04039 14.9674 5.26679 13.746C4.48918 12.5182 4.18055 11.1969 4.12407 9.9544C4.06739 8.70752 4.26612 7.56091 4.48387 6.71894C4.59215 6.30028 4.70349 5.96318 4.78623 5.73434C4.82754 5.62008 4.86154 5.53328 4.88421 5.47733C4.89554 5.44936 4.90402 5.42914 4.90914 5.41709C4.9117 5.41107 4.91342 5.40709 4.91424 5.40522C4.91465 5.40428 4.91483 5.40387 4.91478 5.40398C4.91475 5.40404 4.91467 5.40424 4.91452 5.40456C4.91445 5.40473 4.9143 5.40507 4.91426 5.40515C4.91409 5.40553 4.91391 5.40594 4.0001 4.99981ZM8.43847 17.1724C6.55593 18.4502 4.31333 19.091 2.03985 19.0005L1.96036 20.999C4.66119 21.1064 7.32533 20.3452 9.56173 18.8271L8.43847 17.1724ZM1.51446 20.8739C6.29097 23.5275 11.651 23.5523 15.8449 21.32C20.0632 19.0748 23.0001 14.5997 23.0001 8.49981H21.0001C21.0001 13.8999 18.437 17.6747 14.9053 19.5545C11.3492 21.4473 6.70923 21.472 2.48575 19.1256L1.51446 20.8739ZM23.0001 8.4965C22.999 8.15605 22.9662 7.81645 22.9023 7.48206L20.9379 7.85756C20.9786 8.07035 20.9994 8.28646 21.0001 8.50311L23.0001 8.4965ZM22.6223 8.38181C23.7751 7.24493 24.5886 5.80954 24.9717 4.23642L23.0285 3.76318C22.7333 4.97549 22.1063 6.08167 21.2179 6.9578L22.6223 8.38181Z" fill="#424C5D"/>
</g>
<defs>
<clipPath id="clip0_25_8858">
<rect width="24" height="24" fill="white"/>
</clipPath>
</defs>
</svg>
