<svg width="32" height="32" viewBox="0 0 32 32" fill="none" xmlns="http://www.w3.org/2000/svg">
<rect width="32" height="32" rx="16" fill="#F8F8F8"/>
<path fill-rule="evenodd" clip-rule="evenodd" d="M14.334 16.0002C14.334 15.0797 15.0802 14.3335 16.0007 14.3335C16.9211 14.3335 17.6673 15.0797 17.6673 16.0002C17.6673 16.9206 16.9211 17.6668 16.0007 17.6668C15.0802 17.6668 14.334 16.9206 14.334 16.0002Z" fill="#2D2D2D"/>
<path fill-rule="evenodd" clip-rule="evenodd" d="M14.334 10.1667C14.334 9.24619 15.0802 8.5 16.0007 8.5C16.9211 8.5 17.6673 9.24619 17.6673 10.1667C17.6673 11.0871 16.9211 11.8333 16.0007 11.8333C15.0802 11.8333 14.334 11.0871 14.334 10.1667Z" fill="#2D2D2D"/>
<path fill-rule="evenodd" clip-rule="evenodd" d="M14.334 21.8332C14.334 20.9127 15.0802 20.1665 16.0007 20.1665C16.9211 20.1665 17.6673 20.9127 17.6673 21.8332C17.6673 22.7536 16.9211 23.4998 16.0007 23.4998C15.0802 23.4998 14.334 22.7536 14.334 21.8332Z" fill="#2D2D2D"/>
</svg>
