<svg width="248" height="208" viewBox="0 0 248 208" fill="none" xmlns="http://www.w3.org/2000/svg">
<path d="M244.625 204.51C245.309 204.51 245.864 204.203 245.864 203.825C245.864 203.446 245.309 203.14 244.625 203.14C243.942 203.14 243.387 203.446 243.387 203.825C243.387 204.203 243.942 204.51 244.625 204.51Z" fill="#ECEEF9"/>
<path d="M246.18 204.37C246.616 204.37 246.969 204.175 246.969 203.934C246.969 203.693 246.616 203.497 246.18 203.497C245.744 203.497 245.39 203.693 245.39 203.934C245.39 204.175 245.744 204.37 246.18 204.37Z" fill="#ECEEF9"/>
<path d="M246.969 204.169C247.205 204.169 247.396 204.064 247.396 203.933C247.396 203.803 247.205 203.697 246.969 203.697C246.733 203.697 246.542 203.803 246.542 203.933C246.542 204.064 246.733 204.169 246.969 204.169Z" fill="#ECEEF9"/>
<path d="M244.049 205.013C244.165 205.013 244.259 204.96 244.259 204.896C244.259 204.832 244.165 204.779 244.049 204.779C243.932 204.779 243.838 204.832 243.838 204.896C243.838 204.96 243.932 205.013 244.049 205.013Z" fill="#ECEEF9"/>
<path d="M241.871 203.874C242.131 203.874 242.342 203.757 242.342 203.614C242.342 203.47 242.131 203.354 241.871 203.354C241.612 203.354 241.401 203.47 241.401 203.614C241.401 203.757 241.612 203.874 241.871 203.874Z" fill="#ECEEF9"/>
<path d="M235.695 205.986C235.695 204.874 239.994 202.48 241.205 203.972C243.135 206.35 246.716 204.874 246.716 205.986C246.716 207.099 244.248 208 241.205 208C238.162 208 235.695 207.099 235.695 205.986Z" fill="#ECEEF9"/>
<path d="M170.289 160.41C170.308 160.405 170.328 160.4 170.348 160.395C170.347 160.395 170.345 160.395 170.344 160.394C170.276 160.361 170.209 160.328 170.141 160.294C170.061 160.256 169.998 160.225 169.91 160.201C169.85 160.187 169.768 160.177 169.698 160.179C169.509 160.178 169.343 160.249 169.201 160.31C169.039 160.381 168.878 160.454 168.74 160.539C168.686 160.572 168.652 160.596 168.602 160.636C168.567 160.664 168.545 160.682 168.544 160.709C168.563 160.789 168.632 160.885 168.721 160.964C168.725 160.968 168.724 160.971 168.722 160.975C168.722 160.975 168.723 160.976 168.724 160.976C168.745 160.96 168.766 160.945 168.788 160.932C168.786 160.931 168.784 160.93 168.782 160.928C168.758 160.911 168.739 160.891 168.721 160.872C168.688 160.83 168.663 160.785 168.658 160.74C168.653 160.61 168.966 160.478 169.142 160.401C169.247 160.357 169.366 160.324 169.49 160.297C169.647 160.26 169.754 160.229 169.923 160.271C170.056 160.305 170.165 160.359 170.283 160.403C170.287 160.405 170.289 160.408 170.289 160.41ZM172.637 162.024C172.637 162.024 172.637 162.024 172.637 162.024C172.637 162.024 172.637 162.025 172.637 162.025C172.637 162.025 172.637 162.025 172.637 162.024Z" fill="black"/>
<path d="M172.637 162.024C172.639 162.022 172.638 162.022 172.637 162.023C172.637 162.023 172.637 162.024 172.637 162.024C172.638 162.023 172.638 162.023 172.637 162.024ZM168.577 161.335C168.622 161.384 168.678 161.415 168.73 161.455C168.802 161.402 168.874 161.349 168.945 161.295C169.064 161.203 169.185 161.1 169.258 161.007C169.286 160.973 169.331 160.91 169.321 160.904C169.312 160.894 169.185 160.881 169.132 160.882C168.909 160.879 168.838 160.936 168.715 161.032C168.579 161.132 168.487 161.231 168.577 161.335ZM170.471 160.372C170.52 160.364 170.57 160.358 170.622 160.354C170.621 160.352 170.62 160.35 170.619 160.349C170.618 160.347 170.614 160.34 170.612 160.337C170.588 160.295 170.524 160.267 170.496 160.271C170.422 160.282 170.378 160.331 170.404 160.383C170.426 160.379 170.448 160.375 170.471 160.372ZM170.741 161.582C170.736 161.581 170.727 161.579 170.722 161.578C170.714 161.576 170.704 161.576 170.695 161.574C170.674 161.581 170.674 161.58 170.659 161.587C170.597 161.619 170.6 161.653 170.686 161.664C170.756 161.67 170.801 161.639 170.77 161.603C170.758 161.591 170.76 161.591 170.741 161.582ZM169.993 160.676C169.994 160.68 169.996 160.681 169.998 160.684C170.281 160.654 170.568 160.639 170.855 160.624C170.96 160.616 171.18 160.607 171.191 160.603C171.208 160.551 171.119 160.462 171.006 160.42C170.85 160.361 170.66 160.371 170.484 160.397C170.344 160.418 170.235 160.448 170.138 160.497C170.062 160.535 170.021 160.562 169.998 160.615C169.987 160.64 169.98 160.652 169.993 160.676ZM169.813 161.867C169.787 161.858 169.787 161.857 169.776 161.858C169.772 161.858 169.679 161.882 169.638 161.895C169.634 161.896 169.63 161.897 169.626 161.897C169.638 161.906 169.648 161.916 169.66 161.925C169.662 161.927 169.663 161.93 169.662 161.932C169.687 161.931 169.711 161.93 169.735 161.93C169.786 161.928 169.838 161.928 169.889 161.927C169.883 161.92 169.881 161.91 169.876 161.907C169.862 161.889 169.829 161.872 169.813 161.867ZM170.045 161.151C170.067 161.163 170.152 161.136 170.172 161.121C170.184 161.107 170.194 161.094 170.179 161.073C170.18 161.073 170.171 161.062 170.162 161.055C170.16 161.053 170.16 161.052 170.159 161.051C170.119 161.061 170.08 161.074 170.041 161.088C170.023 161.095 170.004 161.103 169.986 161.11C170.01 161.127 170.037 161.148 170.045 161.151ZM170.582 161.66C170.544 161.675 170.506 161.69 170.468 161.704C170.51 161.696 170.551 161.688 170.563 161.684C170.577 161.681 170.591 161.677 170.605 161.674C170.599 161.671 170.593 161.668 170.587 161.664C170.585 161.663 170.584 161.662 170.582 161.66ZM169.64 160.791C169.635 160.793 169.63 160.797 169.627 160.798C169.625 160.8 169.623 160.801 169.621 160.803C169.658 160.843 169.735 160.903 169.793 160.941C169.795 160.942 169.796 160.943 169.797 160.944C169.806 160.941 169.814 160.938 169.823 160.935C169.802 160.92 169.788 160.903 169.769 160.888C169.724 160.85 169.692 160.818 169.64 160.791ZM169.636 160.754C169.661 160.747 169.688 160.741 169.712 160.734C169.665 160.704 169.591 160.664 169.569 160.666C169.553 160.664 169.525 160.677 169.489 160.692C169.437 160.711 169.365 160.75 169.392 160.77C169.418 160.8 169.459 160.834 169.481 160.836C169.481 160.836 169.481 160.836 169.481 160.836C169.504 160.831 169.535 160.817 169.569 160.799C169.57 160.799 169.571 160.799 169.572 160.798C169.582 160.785 169.602 160.774 169.623 160.765C169.623 160.761 169.628 160.756 169.636 160.754ZM171.553 161.341C171.552 161.341 171.552 161.341 171.552 161.342C171.551 161.342 171.551 161.343 171.55 161.344C171.545 161.348 171.556 161.365 171.568 161.373C171.587 161.383 171.634 161.375 171.69 161.358C171.705 161.354 171.724 161.344 171.742 161.338C171.724 161.318 171.704 161.297 171.682 161.278C171.682 161.278 171.682 161.278 171.682 161.278C171.641 161.3 171.595 161.32 171.553 161.341ZM172.637 162.024C172.637 162.024 172.637 162.024 172.637 162.024C172.636 162.025 172.636 162.025 172.636 162.025C172.637 162.025 172.637 162.024 172.637 162.024ZM168.671 161.02C168.68 161.014 168.688 161.007 168.696 161.001C168.693 161 168.69 161 168.687 160.998C168.668 160.99 168.671 160.991 168.646 160.983C168.609 160.973 168.581 160.969 168.55 160.969C168.543 160.969 168.545 160.969 168.551 160.969C168.547 160.969 168.533 160.971 168.529 160.972C168.526 160.972 168.523 160.974 168.521 160.974C168.519 160.975 168.518 160.976 168.517 160.976C168.517 160.976 168.517 160.976 168.517 160.976C168.506 160.993 168.568 161.026 168.627 161.055C168.641 161.043 168.656 161.032 168.671 161.02ZM175.314 159.676C175.208 159.786 175.155 159.915 175.136 160.046C175.193 160.061 175.25 160.076 175.307 160.091C175.372 160.107 175.438 160.122 175.503 160.138C175.504 160.137 175.505 160.136 175.506 160.135C175.553 160.084 175.604 160.033 175.657 159.982C175.743 159.904 175.834 159.809 175.895 159.737C175.907 159.716 175.91 159.725 175.892 159.706C175.772 159.656 175.62 159.609 175.46 159.563C175.407 159.599 175.355 159.636 175.314 159.676Z" fill="black"/>
<path d="M175.086 160.133C175.083 160.159 175.081 160.186 175.081 160.212C175.085 160.328 175.103 160.445 175.052 160.56C175.029 160.616 174.997 160.674 174.927 160.719C174.853 160.766 174.76 160.804 174.657 160.83C174.869 160.874 175.077 160.918 175.273 160.959C175.307 160.964 175.315 160.963 175.322 160.961C175.348 160.952 175.39 160.903 175.42 160.87C175.506 160.769 175.596 160.67 175.672 160.575C175.723 160.511 175.772 160.446 175.821 160.382C175.85 160.353 175.804 160.318 175.762 160.303C175.611 160.257 175.443 160.227 175.287 160.186C175.22 160.168 175.153 160.151 175.086 160.133ZM175.371 160.794C175.381 160.802 175.38 160.812 175.372 160.82C175.358 160.835 175.34 160.85 175.321 160.864C175.299 160.882 175.259 160.899 175.218 160.888C175.161 160.873 175.101 160.86 175.044 160.843C175.022 160.836 175.024 160.82 175.035 160.809C175.055 160.785 175.075 160.761 175.096 160.738C175.104 160.73 175.125 160.728 175.135 160.734C175.139 160.73 175.146 160.727 175.154 160.727C175.196 160.729 175.235 160.744 175.273 160.754C175.308 160.765 175.346 160.776 175.371 160.794Z" fill="#FFC95F"/>
<path d="M173.1 160.505C173.09 160.491 173.082 160.477 173.08 160.463C173.074 160.426 173.09 160.388 173.121 160.354C173.144 160.331 173.178 160.312 173.21 160.292C173.284 160.249 173.335 160.214 173.392 160.161C173.499 160.071 173.544 159.973 173.628 159.871C173.639 159.858 173.652 159.844 173.666 159.831C173.571 159.827 173.463 159.826 173.36 159.829C173.356 159.831 173.352 159.832 173.347 159.832C173.329 159.833 173.311 159.834 173.294 159.835C173.267 159.864 173.237 159.892 173.211 159.921C173.095 160.046 172.957 160.166 172.84 160.292C172.803 160.331 172.765 160.37 172.731 160.41C172.727 160.415 172.715 160.427 172.715 160.435C172.719 160.434 172.722 160.434 172.726 160.435C172.741 160.442 172.757 160.45 172.772 160.457C172.845 160.474 172.962 160.488 173.051 160.498C173.067 160.501 173.084 160.503 173.1 160.505Z" fill="black"/>
<path d="M174.009 159.55C174.098 159.502 174.234 159.46 174.315 159.426C174.391 159.393 174.451 159.352 174.532 159.322C174.532 159.321 174.532 159.321 174.533 159.321C174.442 159.314 174.344 159.308 174.259 159.299C174.16 159.291 174.051 159.271 173.982 159.283C173.951 159.288 173.909 159.356 173.875 159.402C173.797 159.507 173.716 159.612 173.601 159.708C173.659 159.708 173.717 159.709 173.775 159.712C173.84 159.654 173.92 159.599 174.009 159.55ZM170.439 158.5C170.758 158.423 171.072 158.343 171.38 158.258C171.634 158.189 171.896 158.125 172.166 158.068C172.151 158.066 172.143 158.064 172.122 158.061C172.046 158.05 171.928 158.043 171.871 158.041C171.752 158.036 171.66 158.051 171.539 158.063C171.345 158.085 171.152 158.108 170.959 158.132C170.43 158.197 169.89 158.247 169.364 158.317C169.346 158.32 169.345 158.32 169.334 158.322C169.355 158.333 169.431 158.347 169.485 158.357C169.6 158.377 169.713 158.4 169.826 158.423C169.949 158.447 170.066 158.478 170.184 158.506C170.226 158.515 170.266 158.526 170.306 158.536C170.349 158.523 170.394 158.511 170.439 158.5Z" fill="#FFC95F"/>
<path d="M170.746 161.555C170.774 161.534 170.802 161.513 170.831 161.492C170.883 161.456 170.928 161.416 170.968 161.376C170.99 161.353 171.011 161.333 171.03 161.313C170.935 161.387 170.834 161.478 170.735 161.553C170.739 161.553 170.742 161.554 170.746 161.555Z" fill="black"/>
<path d="M170.376 158.907C170.363 158.908 170.349 158.909 170.334 158.909C170.303 158.961 170.254 159.012 170.213 159.063C170.163 159.122 170.118 159.182 170.058 159.239C170.031 159.266 170.002 159.292 169.973 159.318C169.961 159.33 169.957 159.332 169.957 159.339C169.958 159.339 169.959 159.339 169.96 159.339C169.964 159.339 169.969 159.34 169.972 159.339C170.107 159.33 170.28 159.3 170.437 159.275C170.66 159.236 170.875 159.19 171.093 159.146C171.383 159.086 171.633 159.022 171.899 158.952C172.016 158.921 172.133 158.89 172.245 158.857C172.313 158.836 172.361 158.822 172.406 158.796C172.443 158.775 172.478 158.747 172.504 158.716C172.505 158.715 172.506 158.713 172.508 158.712C172.513 158.706 172.517 158.7 172.522 158.694C172.522 158.693 172.522 158.693 172.523 158.693C171.99 158.758 171.45 158.808 170.912 158.861C170.734 158.878 170.556 158.896 170.376 158.907Z" fill="#FFC95F"/>
<path d="M175.196 157.487C175.195 157.487 175.194 157.487 175.193 157.487C175.103 157.502 175.014 157.518 174.925 157.535C175.084 157.591 175.191 157.693 175.217 157.785C175.259 157.923 175.145 158.056 175.088 158.188C175.058 158.253 175.031 158.325 175.033 158.392C175.174 158.373 175.315 158.354 175.456 158.335C175.57 158.32 175.684 158.305 175.797 158.288C175.797 158.287 175.798 158.286 175.799 158.285C175.806 158.277 175.811 158.268 175.815 158.26C175.832 158.227 175.839 158.181 175.841 158.139C175.843 158.026 175.762 157.91 175.669 157.805C175.562 157.678 175.401 157.559 175.196 157.487Z" fill="black"/>
<path d="M178.262 157.352C178.168 157.319 178.055 157.312 177.935 157.298C177.691 157.273 177.46 157.274 177.205 157.281C176.773 157.289 176.383 157.331 175.965 157.381C175.743 157.409 175.52 157.437 175.3 157.469C175.285 157.472 175.27 157.474 175.255 157.477C175.299 157.493 175.341 157.511 175.38 157.531C175.551 157.617 175.664 157.727 175.754 157.839C175.858 157.96 175.92 158.093 175.879 158.225C175.876 158.233 175.869 158.259 175.856 158.28C176.155 158.236 176.45 158.185 176.74 158.127C177.064 158.062 177.367 157.989 177.671 157.891C177.905 157.818 178.117 157.713 178.265 157.6C178.326 157.552 178.384 157.498 178.374 157.458C178.365 157.419 178.303 157.369 178.262 157.352ZM177.422 157.748C177.261 157.868 176.818 157.889 176.613 157.79C176.486 157.732 176.471 157.627 176.568 157.557C176.623 157.521 176.701 157.497 176.783 157.478C176.786 157.476 176.79 157.474 176.796 157.473C176.87 157.457 176.949 157.443 177.03 157.441C177.145 157.44 177.263 157.457 177.353 157.494C177.421 157.523 177.464 157.565 177.488 157.607C177.508 157.656 177.476 157.708 177.422 157.748ZM174.464 158.015C174.366 157.901 174.227 157.789 174.048 157.724C174.043 157.722 174.04 157.72 174.038 157.718C173.578 157.806 173.113 157.887 172.655 157.979C172.095 158.091 171.561 158.256 171.04 158.425C170.892 158.472 170.74 158.516 170.588 158.56C170.492 158.589 170.373 158.621 170.305 158.65C170.293 158.657 170.271 158.655 170.264 158.647C170.219 158.671 170.184 158.695 170.184 158.72C170.178 158.738 170.245 158.753 170.33 158.756C170.527 158.763 170.786 158.749 171.006 158.739C171.6 158.712 172.195 158.689 172.784 158.641C173.352 158.599 173.896 158.535 174.467 158.475C174.518 158.47 174.568 158.465 174.619 158.459C174.649 158.398 174.656 158.341 174.635 158.279C174.601 158.181 174.539 158.103 174.464 158.015Z" fill="#FF8B6A"/>
<path d="M175.049 157.831C175.021 157.737 174.947 157.658 174.8 157.597C174.781 157.589 174.762 157.582 174.743 157.576C174.673 157.59 174.603 157.604 174.533 157.618C174.387 157.649 174.24 157.678 174.093 157.707C174.095 157.707 174.097 157.708 174.098 157.709C174.13 157.721 174.16 157.734 174.188 157.749C174.363 157.835 174.47 157.949 174.561 158.062C174.642 158.167 174.718 158.279 174.694 158.394C174.69 158.414 174.682 158.433 174.673 158.452C174.735 158.445 174.798 158.437 174.86 158.429C174.857 158.353 174.892 158.276 174.923 158.203C174.981 158.076 175.08 157.95 175.049 157.831Z" fill="black"/>
<path d="M174.345 159.443C174.269 159.476 174.181 159.502 174.12 159.529C174 159.582 173.902 159.646 173.825 159.715C173.867 159.718 173.909 159.721 173.95 159.726C174.04 159.737 174.118 159.764 174.2 159.785C174.25 159.799 174.301 159.813 174.352 159.827C174.384 159.794 174.416 159.762 174.447 159.729C174.514 159.657 174.57 159.589 174.635 159.51C174.682 159.454 174.746 159.358 174.719 159.342C174.683 159.336 174.641 159.331 174.597 159.326C174.573 159.334 174.552 159.342 174.533 159.35C174.466 159.379 174.412 159.414 174.345 159.443Z" fill="#FFC95F"/>
<path d="M173.364 160.539C173.391 160.544 173.417 160.55 173.444 160.556C173.448 160.552 173.451 160.548 173.453 160.545C173.641 160.314 173.799 160.076 173.967 159.841C173.968 159.838 173.97 159.837 173.973 159.835C173.91 159.82 173.847 159.812 173.765 159.807C173.761 159.806 173.757 159.806 173.753 159.806C173.726 159.833 173.701 159.861 173.68 159.889C173.637 159.944 173.605 160.002 173.559 160.057C173.51 160.116 173.449 160.172 173.379 160.225C173.315 160.274 173.226 160.314 173.178 160.359C173.141 160.399 173.124 160.46 173.167 160.502C173.17 160.505 173.17 160.508 173.169 160.511C173.234 160.519 173.3 160.528 173.364 160.539ZM175.275 159.662C175.316 159.623 175.367 159.587 175.419 159.551C175.214 159.492 174.999 159.431 174.821 159.361C174.821 159.37 174.818 159.379 174.814 159.388C174.793 159.445 174.747 159.499 174.705 159.553C174.641 159.631 174.577 159.71 174.505 159.786C174.481 159.812 174.456 159.837 174.432 159.863C174.649 159.922 174.869 159.978 175.089 160.035C175.113 159.906 175.159 159.777 175.275 159.662Z" fill="black"/>
<path d="M174.594 160.817C174.741 160.787 174.874 160.731 174.947 160.655C175 160.591 175.032 160.499 175.038 160.416C175.044 160.321 175.024 160.227 175.036 160.133C175.037 160.128 175.037 160.124 175.038 160.12C174.724 160.038 174.411 159.954 174.104 159.865C174.089 159.86 174.074 159.856 174.059 159.852C174.032 159.902 173.992 159.95 173.959 160C173.818 160.198 173.689 160.399 173.528 160.593C173.636 160.617 173.744 160.643 173.854 160.665C174.095 160.713 174.346 160.765 174.594 160.817Z" fill="#FFC95F"/>
<path d="M177.232 157.412C177.142 157.372 177.024 157.353 176.909 157.355C176.828 157.357 176.748 157.372 176.674 157.39C176.669 157.391 176.665 157.393 176.661 157.395C176.58 157.415 176.502 157.442 176.447 157.481C176.35 157.557 176.365 157.672 176.492 157.735C176.696 157.843 177.14 157.819 177.3 157.69C177.355 157.645 177.387 157.589 177.367 157.536C177.342 157.489 177.299 157.444 177.232 157.412ZM177.312 157.613C177.277 157.68 177.187 157.734 177.064 157.753C176.876 157.79 176.656 157.783 176.518 157.708C176.419 157.653 176.409 157.561 176.483 157.498C176.513 157.476 176.562 157.453 176.624 157.435C176.664 157.424 176.675 157.42 176.71 157.413C176.719 157.411 176.729 157.409 176.736 157.405C176.756 157.401 176.779 157.397 176.789 157.395C176.851 157.384 176.915 157.38 176.967 157.384C177.072 157.392 177.156 157.41 177.225 157.449C177.271 157.478 177.31 157.519 177.321 157.558C177.325 157.565 177.318 157.605 177.312 157.613ZM172.637 162.024C172.637 162.024 172.637 162.024 172.637 162.023C172.637 162.024 172.637 162.024 172.636 162.025C172.637 162.025 172.637 162.024 172.637 162.024C172.637 162.024 172.637 162.024 172.637 162.024Z" fill="black"/>
<path d="M139.693 134.777C139.591 134.753 139.482 134.739 139.372 134.735C139.299 134.731 139.226 134.732 139.155 134.743C138.886 134.778 138.622 134.821 138.356 134.863C138.018 134.914 137.678 134.963 137.338 135.011C137.196 135.033 137.054 135.053 136.914 135.076C136.857 135.088 136.691 135.101 136.775 135.149C136.826 135.173 136.891 135.185 136.952 135.2C137.031 135.218 137.109 135.238 137.187 135.259C137.356 135.301 137.518 135.352 137.679 135.403C137.689 135.405 137.698 135.409 137.707 135.412C137.676 135.428 137.651 135.448 137.63 135.468C137.551 135.552 137.68 135.574 137.803 135.58C137.688 135.735 137.575 135.885 137.44 136.027C137.371 136.106 137.199 136.207 137.499 136.177C137.732 136.156 137.961 136.123 138.185 136.082C138.403 136.041 138.623 136.001 138.838 135.955C139.064 135.906 139.282 135.849 139.501 135.792C139.625 135.759 139.749 135.726 139.868 135.689C139.96 135.662 140.043 135.625 140.099 135.576C140.139 135.543 140.169 135.507 140.195 135.47C140.198 135.467 140.201 135.463 140.203 135.459C140.215 135.458 140.227 135.457 140.239 135.456C140.82 135.409 141.393 135.337 141.968 135.271C142.015 135.266 142.062 135.26 142.109 135.254C142.109 135.254 142.109 135.254 142.11 135.254C142.113 135.254 142.116 135.253 142.119 135.253C142.192 135.244 142.264 135.234 142.336 135.223C142.34 135.245 142.346 135.266 142.356 135.287C142.378 135.338 142.42 135.389 142.496 135.422C142.648 135.487 142.835 135.521 142.991 135.584C143.002 135.588 143.012 135.592 143.022 135.596C143.024 135.608 143.025 135.62 143.025 135.631C143.009 135.715 142.948 135.796 142.828 135.855C142.757 135.89 142.652 135.927 142.56 135.945C142.475 135.961 142.385 135.965 142.3 135.98C142.234 135.991 142.17 136.007 142.112 136.027C141.992 136.015 141.871 136.007 141.751 135.994C141.653 135.986 141.507 135.952 141.424 135.995C141.389 136.018 141.374 136.047 141.354 136.075C141.316 136.132 141.277 136.19 141.235 136.247C141.184 136.313 141.145 136.365 141.079 136.431C141.06 136.45 141.038 136.469 141.017 136.488C140.967 136.488 140.917 136.49 140.867 136.492C140.865 136.493 140.863 136.494 140.861 136.495C140.837 136.496 140.814 136.496 140.791 136.5C140.777 136.502 140.772 136.511 140.776 136.518C140.713 136.582 140.659 136.648 140.596 136.712C140.508 136.804 140.415 136.894 140.329 136.986C140.285 137.035 140.24 137.084 140.197 137.133C140.177 137.164 140.116 137.203 140.147 137.236C140.164 137.25 140.191 137.258 140.219 137.264C140.343 137.329 140.49 137.379 140.636 137.427C140.896 137.514 141.177 137.577 141.465 137.631C141.466 137.642 141.49 137.644 141.507 137.645C141.526 137.646 141.545 137.648 141.564 137.649C141.596 137.655 141.629 137.661 141.661 137.666C141.866 137.705 142.071 137.743 142.281 137.771C142.377 137.785 142.473 137.798 142.572 137.8C142.652 137.803 142.732 137.802 142.812 137.797C142.831 137.796 142.856 137.796 142.864 137.786C142.922 137.78 142.953 137.74 142.979 137.712C143.021 137.666 143.06 137.618 143.098 137.571C143.222 137.422 143.353 137.273 143.448 137.118C143.458 137.033 143.287 137.003 143.174 136.975C143.132 136.965 143.09 136.955 143.049 136.945C143.05 136.944 143.051 136.942 143.052 136.941C143.063 136.928 143.075 136.915 143.087 136.901C143.128 136.856 143.171 136.811 143.216 136.766C143.29 136.695 143.356 136.621 143.419 136.546C143.439 136.519 143.484 136.488 143.455 136.458C143.433 136.433 143.386 136.421 143.347 136.406C143.231 136.364 143.112 136.324 142.992 136.287C143.048 136.246 143.104 136.206 143.148 136.161C143.214 136.094 143.266 136.022 143.282 135.947C143.293 135.857 143.28 135.763 143.211 135.68C143.178 135.64 143.129 135.608 143.071 135.581C143.063 135.544 143.044 135.508 143.016 135.474C142.96 135.403 142.855 135.351 142.758 135.299C142.688 135.263 142.632 135.223 142.584 135.187C142.666 135.175 142.747 135.163 142.828 135.151C143.284 135.087 143.732 135.008 144.168 134.911C144.479 134.84 144.784 134.759 145.067 134.658C145.3 134.576 145.501 134.467 145.656 134.341C145.721 134.282 145.806 134.213 145.769 134.142C145.746 134.103 145.713 134.063 145.656 134.035C145.547 133.989 145.403 133.98 145.272 133.964C144.961 133.932 144.642 133.944 144.328 133.957C143.988 133.972 143.654 134.014 143.323 134.057C143.033 134.097 142.741 134.133 142.459 134.188C142.381 134.204 142.304 134.22 142.226 134.236C142.175 134.221 142.119 134.211 142.059 134.208C141.976 134.206 141.89 134.227 141.843 134.266C141.82 134.285 141.799 134.307 141.794 134.329C141.543 134.385 141.292 134.44 141.036 134.488C140.661 134.565 140.281 134.637 139.914 134.725C139.842 134.743 139.771 134.762 139.7 134.781C139.698 134.779 139.696 134.778 139.693 134.777ZM141.362 136.141C141.397 136.089 141.441 136.012 141.475 136.007C141.546 135.993 141.661 136.015 141.765 136.025C141.853 136.035 141.956 136.041 142.051 136.05C142.051 136.05 142.051 136.05 142.05 136.05C141.966 136.084 141.902 136.131 141.823 136.168C141.738 136.207 141.596 136.254 141.503 136.309C141.409 136.365 141.325 136.426 141.257 136.493C141.196 136.489 141.135 136.488 141.074 136.487C141.195 136.379 141.281 136.26 141.362 136.141ZM142.573 137.171C142.567 137.261 142.534 137.359 142.478 137.429C142.403 137.51 142.264 137.57 142.112 137.602C141.854 137.547 141.592 137.491 141.341 137.439C141.226 137.415 141.114 137.388 141.001 137.362C141.169 137.154 141.304 136.937 141.45 136.724C141.484 136.671 141.526 136.619 141.555 136.565C141.57 136.569 141.585 136.574 141.601 136.579C141.921 136.675 142.247 136.765 142.574 136.853C142.573 136.858 142.572 136.862 142.572 136.867C142.559 136.968 142.579 137.07 142.573 137.171ZM140.665 137.292C140.62 137.246 140.637 137.179 140.677 137.134C140.727 137.085 140.82 137.041 140.888 136.986C140.962 136.928 141.026 136.865 141.078 136.8C141.126 136.739 141.16 136.675 141.206 136.614C141.228 136.583 141.254 136.552 141.283 136.522C141.287 136.523 141.291 136.523 141.295 136.523C141.381 136.528 141.447 136.538 141.515 136.554C141.511 136.556 141.509 136.558 141.507 136.561C141.33 136.821 141.164 137.084 140.967 137.34C140.965 137.344 140.96 137.348 140.957 137.352C140.929 137.345 140.901 137.339 140.872 137.333C140.805 137.321 140.736 137.311 140.667 137.302C140.668 137.299 140.668 137.295 140.665 137.292ZM141.905 136.635C141.931 136.608 141.956 136.58 141.98 136.552C142.055 136.469 142.12 136.384 142.186 136.299C142.229 136.24 142.275 136.182 142.298 136.12C142.302 136.11 142.304 136.1 142.304 136.09C142.487 136.167 142.707 136.233 142.917 136.297C142.864 136.336 142.811 136.375 142.769 136.418C142.651 136.542 142.604 136.683 142.579 136.822C142.354 136.761 142.128 136.7 141.905 136.635ZM142.158 136.265C142.091 136.354 142.032 136.431 141.961 136.512C141.929 136.55 141.896 136.586 141.862 136.623C141.809 136.607 141.756 136.592 141.703 136.576C141.617 136.552 141.535 136.521 141.441 136.508C141.397 136.503 141.354 136.499 141.309 136.496C141.39 136.419 141.493 136.346 141.619 136.286C141.683 136.255 141.775 136.225 141.855 136.188C141.925 136.156 141.982 136.116 142.052 136.083C142.071 136.074 142.094 136.065 142.118 136.056C142.165 136.061 142.209 136.067 142.246 136.074C142.276 136.092 142.208 136.201 142.158 136.265ZM140.2 137.215C140.197 137.214 140.193 137.214 140.189 137.214C140.189 137.205 140.202 137.192 140.206 137.186C140.244 137.14 140.285 137.095 140.326 137.05C140.454 136.906 140.605 136.768 140.733 136.623C140.761 136.59 140.794 136.558 140.823 136.525C140.842 136.524 140.861 136.522 140.881 136.522C140.886 136.522 140.891 136.52 140.896 136.518C141.008 136.515 141.126 136.515 141.23 136.52C141.215 136.535 141.201 136.551 141.189 136.567C141.097 136.683 141.047 136.797 140.931 136.9C140.868 136.96 140.812 137 140.731 137.05C140.696 137.073 140.659 137.095 140.633 137.122C140.599 137.16 140.582 137.204 140.588 137.247C140.59 137.264 140.6 137.279 140.61 137.295C140.592 137.292 140.574 137.29 140.556 137.288C140.46 137.276 140.331 137.259 140.251 137.24C140.234 137.232 140.218 137.223 140.2 137.215ZM140.355 137.29C140.384 137.295 140.413 137.299 140.442 137.303C140.598 137.324 140.778 137.342 140.908 137.372C141.214 137.446 141.527 137.509 141.84 137.574C141.904 137.588 141.969 137.602 142.033 137.616C142.002 137.62 141.971 137.623 141.941 137.625C141.812 137.63 141.699 137.629 141.582 137.622C141.313 137.573 141.057 137.523 140.801 137.444C140.65 137.4 140.474 137.339 140.355 137.29ZM142.735 137.773C142.687 137.776 142.584 137.772 142.56 137.771C142.465 137.769 142.373 137.754 142.281 137.741C142.109 137.718 141.94 137.688 141.771 137.656C141.828 137.657 141.885 137.656 141.942 137.653C141.999 137.65 142.055 137.643 142.108 137.632C142.324 137.679 142.54 137.727 142.758 137.772C142.75 137.772 142.743 137.772 142.735 137.773ZM143.327 137.049C143.371 137.066 143.419 137.103 143.389 137.134C143.338 137.204 143.287 137.273 143.234 137.342C143.154 137.444 143.061 137.55 142.971 137.659C142.94 137.695 142.896 137.748 142.87 137.757C142.862 137.759 142.853 137.761 142.819 137.754C142.615 137.711 142.398 137.664 142.177 137.616C142.285 137.588 142.381 137.547 142.458 137.497C142.531 137.448 142.564 137.386 142.588 137.325C142.641 137.203 142.622 137.077 142.618 136.952C142.619 136.923 142.621 136.895 142.624 136.867C142.694 136.886 142.763 136.905 142.833 136.924C142.996 136.968 143.17 137 143.327 137.049ZM143.402 136.466C143.42 136.486 143.417 136.476 143.404 136.499C143.343 136.577 143.249 136.681 143.161 136.766C143.107 136.82 143.055 136.876 143.006 136.932C143.005 136.932 143.004 136.933 143.004 136.934C142.936 136.917 142.869 136.901 142.802 136.883C142.744 136.867 142.686 136.851 142.627 136.835C142.647 136.693 142.701 136.553 142.81 136.433C142.852 136.389 142.905 136.349 142.959 136.31C143.123 136.361 143.278 136.411 143.402 136.466ZM143.076 135.623C143.185 135.687 143.231 135.783 143.234 135.874C143.247 135.996 143.17 136.094 143.05 136.198C143.019 136.224 142.984 136.249 142.95 136.274C142.947 136.273 142.944 136.272 142.941 136.271C142.784 136.223 142.626 136.175 142.476 136.121C142.4 136.094 142.351 136.071 142.282 136.044C142.274 136.042 142.267 136.043 142.261 136.045C142.253 136.043 142.244 136.042 142.233 136.041C142.217 136.039 142.201 136.037 142.185 136.035C142.238 136.02 142.297 136.007 142.356 135.999C142.465 135.986 142.579 135.979 142.676 135.946C142.8 135.908 142.916 135.857 142.988 135.788C143.037 135.738 143.068 135.682 143.076 135.626C143.076 135.625 143.076 135.624 143.076 135.623ZM137.658 135.362C137.539 135.326 137.423 135.287 137.299 135.256C137.187 135.226 137.074 135.196 136.959 135.17C136.905 135.158 136.829 135.138 136.808 135.125C136.819 135.122 136.82 135.122 136.838 135.119C137.364 135.028 137.903 134.964 138.433 134.879C138.625 134.848 138.819 134.819 139.013 134.79C139.133 134.774 139.226 134.755 139.345 134.762C139.402 134.764 139.519 134.773 139.596 134.788C139.617 134.792 139.625 134.794 139.639 134.797C139.37 134.87 139.108 134.953 138.854 135.042C138.546 135.151 138.231 135.255 137.913 135.355C137.867 135.369 137.822 135.385 137.78 135.402C137.74 135.388 137.699 135.375 137.658 135.362ZM140.146 135.465C140.141 135.474 140.135 135.482 140.128 135.49C140.126 135.492 140.124 135.494 140.124 135.495C140.09 135.536 140.048 135.573 140.006 135.599C139.955 135.631 139.903 135.647 139.828 135.67C139.706 135.708 139.58 135.741 139.453 135.774C139.166 135.85 138.895 135.919 138.585 135.978C138.352 136.021 138.122 136.068 137.884 136.103C137.718 136.125 137.534 136.153 137.393 136.154C137.39 136.154 137.385 136.153 137.381 136.153C137.38 136.152 137.379 136.152 137.378 136.152C137.379 136.142 137.384 136.14 137.398 136.124C137.434 136.09 137.468 136.055 137.502 136.021C137.576 135.945 137.634 135.865 137.698 135.786C137.75 135.718 137.811 135.651 137.853 135.581C137.869 135.581 137.883 135.582 137.897 135.581C138.084 135.582 138.271 135.571 138.457 135.563C139.021 135.534 139.587 135.511 140.148 135.464C140.147 135.464 140.147 135.465 140.146 135.465ZM142.747 135.334C142.819 135.374 142.89 135.41 142.934 135.452C142.971 135.486 142.996 135.52 143.011 135.555C142.919 135.52 142.814 135.492 142.718 135.464C142.584 135.423 142.474 135.393 142.424 135.313C142.403 135.283 142.392 135.25 142.387 135.216C142.439 135.209 142.49 135.201 142.541 135.194C142.54 135.195 142.54 135.196 142.54 135.197C142.586 135.25 142.673 135.293 142.747 135.334ZM142.652 134.182C142.872 134.146 143.095 134.116 143.318 134.085C143.735 134.031 144.126 133.985 144.558 133.977C144.813 133.969 145.044 133.968 145.288 133.995C145.408 134.01 145.52 134.018 145.615 134.054C145.655 134.072 145.717 134.127 145.726 134.17C145.736 134.213 145.679 134.272 145.618 134.325C145.469 134.448 145.257 134.562 145.023 134.642C144.72 134.748 144.416 134.828 144.093 134.899C143.803 134.962 143.508 135.017 143.209 135.065C143.222 135.043 143.229 135.014 143.231 135.006C143.273 134.862 143.21 134.717 143.107 134.584C143.017 134.462 142.904 134.343 142.732 134.249C142.693 134.228 142.651 134.208 142.607 134.19C142.622 134.187 142.637 134.184 142.652 134.182ZM142.546 134.201C142.547 134.201 142.547 134.202 142.548 134.202C142.754 134.281 142.915 134.41 143.021 134.548C143.114 134.662 143.196 134.789 143.193 134.912C143.191 134.958 143.184 135.008 143.168 135.044C143.164 135.053 143.158 135.062 143.152 135.072C143.151 135.073 143.15 135.074 143.149 135.075C143.036 135.093 142.923 135.109 142.809 135.125C142.667 135.146 142.526 135.168 142.385 135.188C142.384 135.114 142.411 135.036 142.441 134.965C142.498 134.821 142.611 134.676 142.569 134.526C142.544 134.426 142.436 134.315 142.278 134.254C142.367 134.235 142.456 134.218 142.546 134.201ZM142.158 134.25C142.056 134.272 141.953 134.294 141.851 134.317C141.895 134.24 142.025 134.22 142.158 134.25ZM142.006 134.312C142.076 134.297 142.146 134.282 142.216 134.267C142.235 134.273 142.255 134.281 142.274 134.29C142.42 134.356 142.495 134.442 142.522 134.544C142.553 134.674 142.454 134.811 142.397 134.949C142.365 135.029 142.33 135.113 142.334 135.195C142.271 135.204 142.209 135.213 142.146 135.221C142.156 135.2 142.163 135.179 142.167 135.158C142.191 135.033 142.115 134.911 142.034 134.796C141.943 134.673 141.836 134.549 141.662 134.454C141.633 134.439 141.604 134.424 141.572 134.411C141.57 134.41 141.568 134.409 141.566 134.409C141.714 134.377 141.861 134.346 142.006 134.312ZM140.128 134.704C140.586 134.605 141.051 134.516 141.512 134.42C141.513 134.423 141.516 134.425 141.522 134.427C141.7 134.498 141.84 134.62 141.937 134.744C142.012 134.84 142.075 134.925 142.108 135.031C142.13 135.099 142.123 135.162 142.092 135.228C142.042 135.234 141.991 135.24 141.94 135.246C141.369 135.311 140.826 135.381 140.258 135.427C139.668 135.479 139.073 135.504 138.48 135.533C138.26 135.544 138 135.559 137.803 135.551C137.718 135.548 137.652 135.532 137.657 135.513C137.658 135.486 137.693 135.459 137.738 135.433C137.745 135.441 137.766 135.443 137.778 135.436C137.846 135.405 137.966 135.369 138.062 135.338C138.213 135.29 138.365 135.242 138.514 135.191C139.035 135.007 139.569 134.827 140.128 134.704Z" fill="black"/>
<path d="M143.966 134.532C144.17 134.64 144.614 134.616 144.774 134.486C144.829 134.442 144.861 134.386 144.841 134.333C144.816 134.286 144.773 134.241 144.706 134.209C144.616 134.169 144.498 134.15 144.383 134.152C144.301 134.154 144.222 134.169 144.148 134.187C144.143 134.188 144.138 134.19 144.135 134.192C144.054 134.212 143.975 134.239 143.92 134.278C143.824 134.354 143.838 134.469 143.966 134.532ZM143.957 134.295C143.986 134.273 144.036 134.25 144.098 134.232C144.138 134.221 144.149 134.217 144.184 134.21C144.193 134.208 144.203 134.206 144.209 134.202C144.23 134.198 144.253 134.194 144.263 134.192C144.325 134.181 144.389 134.177 144.441 134.181C144.546 134.189 144.63 134.207 144.698 134.246C144.745 134.275 144.783 134.316 144.795 134.355C144.798 134.362 144.791 134.402 144.786 134.409C144.751 134.477 144.661 134.531 144.538 134.55C144.35 134.587 144.129 134.58 143.992 134.505C143.892 134.45 143.883 134.358 143.957 134.295ZM135.529 136.022C135.633 136.007 136.275 135.972 136.243 135.877C136.223 135.847 136.168 135.829 136.125 135.809C136.044 135.774 135.959 135.741 135.885 135.702C135.81 135.666 135.749 135.608 135.765 135.591C135.803 135.534 136.286 135.643 136.441 135.67C136.512 135.68 136.589 135.694 136.662 135.681C136.706 135.673 136.745 135.647 136.729 135.62C136.709 135.588 136.654 135.57 136.61 135.549C136.54 135.519 136.455 135.484 136.4 135.462C136.28 135.415 136.207 135.364 136.28 135.349C136.337 135.338 136.411 135.347 136.495 135.356C136.626 135.372 136.754 135.393 136.88 135.418C137.062 135.452 137.241 135.492 137.426 135.52C137.455 135.524 137.475 135.497 137.442 135.492C137.093 135.439 136.763 135.346 136.403 135.318C136.308 135.309 136.175 135.322 136.205 135.391C136.234 135.431 136.302 135.456 136.36 135.482C136.458 135.524 136.565 135.561 136.663 135.614C136.691 135.631 136.682 135.643 136.667 135.649C136.582 135.678 136.403 135.63 136.28 135.608C136.153 135.585 136.026 135.561 135.895 135.548C135.75 135.534 135.661 135.578 135.745 135.655C135.816 135.719 135.932 135.763 136.038 135.809C136.112 135.84 136.22 135.884 136.187 135.894C136.169 135.911 136.084 135.927 136.007 135.94C135.783 135.977 135.581 135.984 135.353 136.016C135.126 136.046 134.91 136.102 134.719 136.177C134.679 136.193 134.639 136.21 134.604 136.23C134.588 136.238 134.561 136.253 134.588 136.263C134.615 136.27 134.629 136.252 134.647 136.244C134.696 136.218 134.72 136.209 134.774 136.188C135.007 136.1 135.248 136.051 135.529 136.022ZM137.359 135.677C137.142 135.726 136.947 135.801 136.744 135.866C136.553 135.929 136.364 135.994 136.181 136.064C136.125 136.085 136.07 136.106 136.016 136.128C136.008 136.131 135.998 136.134 135.995 136.14C135.989 136.148 136.001 136.158 136.018 136.157C136.032 136.157 136.042 136.15 136.053 136.146C136.413 136.004 136.792 135.878 137.174 135.756C137.251 135.732 137.307 135.717 137.379 135.701C137.401 135.693 137.387 135.671 137.359 135.677ZM136.814 136.11C136.802 136.115 136.785 136.118 136.78 136.126C136.772 136.138 136.797 136.148 136.816 136.141C136.99 136.08 137.161 136.014 137.302 135.93C137.429 135.853 137.552 135.773 137.647 135.682C137.665 135.665 137.622 135.653 137.604 135.67C137.494 135.772 137.37 135.853 137.215 135.941C137.089 136.008 136.967 136.055 136.814 136.11ZM142.695 137.506C142.686 137.506 142.679 137.509 142.675 137.513C142.664 137.507 142.642 137.509 142.634 137.517C142.612 137.543 142.591 137.568 142.57 137.594C142.559 137.606 142.557 137.623 142.58 137.631C142.639 137.649 142.701 137.663 142.761 137.68C142.803 137.691 142.846 137.673 142.868 137.654C142.888 137.638 142.907 137.622 142.921 137.605C142.93 137.597 142.931 137.586 142.92 137.578C142.894 137.559 142.855 137.547 142.818 137.534C142.779 137.524 142.738 137.509 142.695 137.506ZM142.877 137.595C142.877 137.595 142.877 137.595 142.877 137.595C142.877 137.595 142.877 137.595 142.877 137.595C142.877 137.595 142.877 137.595 142.877 137.595C142.873 137.599 142.861 137.611 142.858 137.614C142.827 137.642 142.804 137.657 142.794 137.655C142.778 137.652 142.669 137.623 142.613 137.608C142.614 137.607 142.614 137.607 142.614 137.607C142.636 137.577 142.65 137.562 142.677 137.53C142.677 137.53 142.677 137.529 142.678 137.529C142.692 137.537 142.702 137.534 142.728 137.542C142.778 137.555 142.83 137.571 142.858 137.584C142.87 137.591 142.875 137.593 142.877 137.595ZM140.111 138.821C140.111 138.821 140.111 138.821 140.111 138.82C140.111 138.821 140.11 138.821 140.11 138.822C140.11 138.821 140.111 138.821 140.111 138.821C140.111 138.821 140.111 138.821 140.111 138.821Z" fill="black"/>
<path d="M135.286 138.426C135.324 138.4 135.362 138.37 135.398 138.357C135.487 138.326 135.597 138.33 135.718 138.353C135.764 138.36 135.867 138.394 135.937 138.404C136.079 138.425 136.231 138.379 136.333 138.326C136.401 138.29 136.444 138.245 136.514 138.24C136.562 138.238 136.69 138.254 136.761 138.282C136.796 138.296 136.805 138.299 136.84 138.315C136.844 138.318 136.851 138.319 136.857 138.319C136.878 138.318 136.893 138.303 136.878 138.294C136.799 138.256 136.706 138.226 136.602 138.217C136.601 138.216 136.6 138.216 136.599 138.216C136.6 138.215 136.602 138.214 136.602 138.213C136.698 138.078 136.85 137.951 137.057 137.849C137.227 137.76 137.44 137.676 137.653 137.63C137.911 137.578 138.171 137.585 138.438 137.604C138.751 137.625 139.046 137.683 139.271 137.793C139.416 137.86 139.514 137.93 139.584 138.028C139.642 138.106 139.688 138.175 139.718 138.262C139.747 138.357 139.749 138.446 139.733 138.547C139.723 138.607 139.704 138.672 139.687 138.721C139.685 138.726 139.683 138.733 139.691 138.737C139.603 138.733 139.516 138.73 139.428 138.727C139.428 138.726 139.429 138.726 139.429 138.726C139.436 138.714 139.442 138.702 139.447 138.69C139.467 138.642 139.475 138.592 139.469 138.542C139.429 138.255 139.289 137.913 138.756 137.793C138.547 137.746 138.324 137.718 138.098 137.722C137.946 137.724 137.793 137.739 137.654 137.774C137.465 137.823 137.3 137.901 137.179 137.994C137.063 138.098 137.001 138.219 136.97 138.338C136.95 138.417 136.962 138.497 136.984 138.576C136.996 138.617 137.013 138.658 137.041 138.697C137.047 138.705 137.053 138.718 137.07 138.72C137.074 138.723 137.078 138.727 137.082 138.73C137.056 138.731 137.03 138.732 137.005 138.733C136.998 138.733 136.991 138.735 136.986 138.737C136.971 138.745 136.978 138.762 137.002 138.761C137.81 138.738 138.622 138.731 139.43 138.755C139.564 138.76 139.69 138.765 139.809 138.77C139.916 138.774 140.042 138.79 140.102 138.815C140.109 138.818 140.111 138.819 140.111 138.82C140.112 138.819 140.113 138.819 140.111 138.821C140.112 138.82 140.112 138.82 140.111 138.821C140.111 138.821 140.111 138.821 140.111 138.821C140.111 138.821 140.111 138.821 140.111 138.821C140.111 138.821 140.111 138.822 140.11 138.822C140.11 138.822 140.111 138.822 140.111 138.821C140.11 138.822 140.11 138.822 140.109 138.823C140.097 138.833 140.045 138.847 140.002 138.856C139.79 138.904 139.594 138.917 139.368 138.931C139.093 138.947 138.818 138.959 138.543 138.971C138.516 138.97 138.474 138.979 138.487 138.998C138.5 139.007 138.524 139.009 138.543 139.012C138.607 139.023 138.679 139.033 138.725 139.043C138.829 139.062 138.842 139.102 138.794 139.13C138.721 139.169 138.564 139.19 138.454 139.201C138.265 139.213 138.073 139.207 137.883 139.2C137.662 139.194 137.471 139.188 137.257 139.174C137.041 139.162 136.825 139.144 136.609 139.131C136.597 139.132 136.586 139.139 136.586 139.145C136.585 139.151 136.593 139.157 136.603 139.159C136.644 139.161 136.684 139.164 136.725 139.167C136.887 139.178 137.05 139.19 137.212 139.2C137.431 139.215 137.652 139.222 137.872 139.228C138.081 139.235 138.292 139.244 138.5 139.225C138.613 139.209 138.737 139.195 138.826 139.15C138.875 139.124 138.89 139.079 138.843 139.05C138.805 139.026 138.749 139.016 138.695 139.006C138.673 139.003 138.649 138.999 138.625 138.995C138.875 138.985 139.125 138.973 139.374 138.958C139.588 138.945 139.805 138.93 140.006 138.885C140.307 138.823 140.114 138.764 139.908 138.748C139.846 138.744 139.784 138.741 139.723 138.738C139.731 138.735 139.738 138.729 139.737 138.722C139.744 138.703 139.75 138.683 139.756 138.664C139.775 138.598 139.79 138.532 139.793 138.466C139.795 138.39 139.789 138.314 139.764 138.24C139.734 138.161 139.683 138.085 139.628 138.01C139.525 137.864 139.304 137.752 139.059 137.677C138.839 137.611 138.591 137.582 138.343 137.57C138.107 137.555 137.863 137.558 137.637 137.604C137.535 137.627 137.437 137.656 137.344 137.689C137.339 137.677 137.318 137.665 137.309 137.653C137.276 137.623 137.242 137.592 137.204 137.563C137.191 137.555 137.177 137.542 137.159 137.533C137.165 137.531 137.171 137.529 137.176 137.528C137.197 137.523 137.22 137.517 137.237 137.508C137.251 137.5 137.254 137.488 137.24 137.48C137.209 137.458 137.172 137.438 137.136 137.418C137.104 137.401 137.055 137.387 137.012 137.4C136.959 137.418 136.907 137.44 136.863 137.465C136.834 137.484 136.804 137.51 136.817 137.536C136.831 137.557 136.852 137.577 136.875 137.596C136.89 137.607 136.904 137.619 136.926 137.626C136.952 137.634 136.982 137.628 137.003 137.619C137.023 137.61 137.044 137.601 137.063 137.592C137.068 137.597 137.074 137.602 137.078 137.606C137.125 137.65 137.177 137.692 137.234 137.732C137.092 137.79 136.962 137.858 136.845 137.931C136.756 137.99 136.682 138.056 136.619 138.125C136.596 138.15 136.576 138.177 136.557 138.203C136.554 138.206 136.552 138.209 136.553 138.213C136.518 138.211 136.482 138.213 136.452 138.224C136.406 138.239 136.373 138.263 136.338 138.284C136.29 138.313 136.257 138.33 136.206 138.347C136.116 138.375 136.026 138.394 135.921 138.371C135.871 138.359 135.759 138.326 135.682 138.316C135.575 138.303 135.449 138.3 135.359 138.339C135.317 138.357 135.279 138.389 135.26 138.402C135.217 138.43 135.164 138.459 135.125 138.474C135.043 138.504 134.979 138.517 134.883 138.52C134.861 138.521 134.839 138.521 134.818 138.52C134.817 138.52 134.816 138.52 134.813 138.52C134.794 138.518 134.77 138.517 134.763 138.529C134.755 138.547 134.792 138.548 134.814 138.548C134.851 138.549 134.887 138.549 134.923 138.546C135.005 138.54 135.083 138.522 135.15 138.497C135.201 138.477 135.245 138.452 135.286 138.426ZM139.185 138.045C139.207 138.067 139.227 138.089 139.245 138.112C139.227 138.118 139.208 138.129 139.193 138.133C139.136 138.152 139.088 138.16 139.069 138.149C139.057 138.141 139.046 138.122 139.051 138.118C139.052 138.117 139.052 138.116 139.052 138.116C139.053 138.115 139.053 138.115 139.054 138.114C139.097 138.091 139.143 138.07 139.185 138.045C139.185 138.045 139.185 138.045 139.185 138.045ZM137.5 137.855C137.54 137.839 137.58 137.825 137.62 137.813C137.621 137.815 137.621 137.816 137.623 137.818C137.632 137.826 137.642 137.838 137.641 137.837C137.655 137.86 137.646 137.875 137.633 137.89C137.613 137.907 137.526 137.937 137.505 137.923C137.497 137.92 137.469 137.897 137.445 137.878C137.463 137.87 137.482 137.862 137.5 137.855ZM137.211 138.726C137.186 138.727 137.162 138.728 137.137 138.729C137.137 138.726 137.137 138.724 137.135 138.722C137.122 138.712 137.112 138.701 137.1 138.691C137.104 138.691 137.108 138.69 137.113 138.689C137.154 138.674 137.248 138.648 137.253 138.648C137.263 138.647 137.263 138.647 137.29 138.657C137.306 138.663 137.339 138.682 137.353 138.702C137.358 138.705 137.36 138.715 137.367 138.723C137.315 138.724 137.263 138.725 137.211 138.726ZM139.377 138.725C139.023 138.714 138.668 138.712 138.313 138.713C138.013 138.713 137.713 138.716 137.413 138.722C137.421 138.712 137.407 138.699 137.401 138.69C137.38 138.663 137.344 138.64 137.298 138.625C137.273 138.616 137.242 138.619 137.217 138.627C137.174 138.639 137.131 138.651 137.09 138.665C137.086 138.666 137.083 138.668 137.08 138.67C137.027 138.586 137.009 138.484 137.011 138.395C137.024 138.27 137.09 138.145 137.188 138.039C137.24 137.985 137.32 137.937 137.404 137.897C137.439 137.925 137.474 137.964 137.544 137.953C137.574 137.949 137.6 137.939 137.625 137.93C137.66 137.918 137.685 137.9 137.694 137.878C137.704 137.857 137.699 137.836 137.682 137.817C137.677 137.812 137.673 137.805 137.666 137.801C137.783 137.771 137.905 137.757 138.041 137.751C138.277 137.742 138.519 137.771 138.727 137.818C138.92 137.861 139.06 137.934 139.161 138.023C139.157 138.024 139.153 138.025 139.15 138.027C139.112 138.048 139.072 138.069 139.031 138.089C139.014 138.097 139.002 138.107 139 138.119C138.996 138.135 139.009 138.151 139.023 138.164C139.038 138.178 139.069 138.183 139.097 138.182C139.151 138.179 139.199 138.163 139.242 138.147C139.248 138.144 139.257 138.141 139.265 138.137C139.357 138.263 139.397 138.405 139.417 138.535C139.425 138.606 139.415 138.663 139.377 138.725ZM137.051 137.561C137.05 137.562 137.049 137.562 137.048 137.563C137.014 137.582 136.983 137.596 136.96 137.602C136.96 137.602 136.96 137.602 136.96 137.602C136.938 137.599 136.897 137.564 136.87 137.532C136.843 137.51 136.916 137.47 136.968 137.45C137.004 137.435 137.032 137.421 137.048 137.423C137.07 137.421 137.145 137.462 137.191 137.494C137.167 137.502 137.14 137.507 137.115 137.515C137.107 137.517 137.102 137.522 137.102 137.527C137.081 137.536 137.061 137.548 137.051 137.561ZM137.1 137.566C137.102 137.565 137.104 137.563 137.106 137.561C137.109 137.56 137.114 137.556 137.119 137.553C137.171 137.582 137.204 137.616 137.249 137.655C137.268 137.671 137.282 137.69 137.303 137.705C137.294 137.708 137.286 137.711 137.277 137.715C137.276 137.714 137.275 137.713 137.273 137.712C137.215 137.671 137.137 137.609 137.1 137.566ZM143.362 138.659C142.998 138.641 142.634 138.622 142.269 138.616C142.058 138.614 141.844 138.607 141.635 138.624C141.611 138.628 141.614 138.652 141.642 138.65C141.839 138.637 142.037 138.641 142.234 138.643C142.615 138.649 142.965 138.667 143.347 138.687C143.376 138.691 143.395 138.663 143.362 138.659ZM142.928 138.788C142.944 138.78 142.935 138.764 142.912 138.765C142.738 138.762 142.561 138.753 142.388 138.764C142.364 138.768 142.367 138.791 142.395 138.79C142.525 138.785 142.655 138.787 142.784 138.79C142.826 138.791 142.868 138.792 142.909 138.793C142.916 138.793 142.923 138.791 142.928 138.788Z" fill="black"/>
<path d="M138.584 137.961C138.547 137.976 138.525 138 138.499 138.021C138.447 138.066 138.397 138.112 138.345 138.157C138.288 138.209 138.228 138.259 138.172 138.31C138.169 138.311 138.167 138.311 138.164 138.312C138.106 138.329 138.048 138.368 138.053 138.405C137.989 138.431 137.928 138.458 137.862 138.482C137.844 138.49 137.819 138.495 137.804 138.505C137.771 138.554 137.973 138.503 138.005 138.497C138.047 138.488 138.089 138.477 138.13 138.466C138.134 138.465 138.138 138.463 138.14 138.46C138.199 138.471 138.268 138.461 138.303 138.429C138.335 138.398 138.322 138.354 138.275 138.329C138.3 138.31 138.325 138.29 138.35 138.27C138.459 138.187 138.548 138.093 138.615 137.997C138.619 137.988 138.626 137.979 138.623 137.969C138.62 137.96 138.598 137.956 138.584 137.961ZM138.05 138.457C138.037 138.461 137.996 138.471 137.953 138.479C137.992 138.464 138.031 138.448 138.069 138.432C138.07 138.433 138.072 138.435 138.074 138.436C138.08 138.44 138.086 138.443 138.093 138.446C138.078 138.45 138.064 138.454 138.05 138.457ZM138.175 138.436C138.087 138.424 138.084 138.386 138.147 138.352C138.162 138.344 138.162 138.345 138.184 138.337C138.192 138.339 138.202 138.339 138.211 138.341C138.216 138.342 138.225 138.345 138.23 138.346C138.249 138.356 138.247 138.355 138.26 138.369C138.291 138.408 138.245 138.442 138.175 138.436ZM138.461 138.119C138.419 138.164 138.374 138.206 138.321 138.247C138.292 138.269 138.263 138.292 138.235 138.315C138.231 138.314 138.228 138.314 138.224 138.313C138.325 138.231 138.427 138.132 138.523 138.05C138.504 138.072 138.483 138.094 138.461 138.119ZM137.437 137.348C137.418 137.385 137.398 137.43 137.441 137.463C137.445 137.465 137.448 137.466 137.452 137.466C137.457 137.469 137.465 137.472 137.477 137.47C137.837 137.429 138.251 137.413 138.636 137.388C138.665 137.386 138.702 137.387 138.718 137.371C138.743 137.336 138.72 137.295 138.697 137.262C138.655 137.211 138.589 137.165 138.504 137.134C138.401 137.096 138.278 137.087 138.157 137.093C138.155 137.087 138.152 137.082 138.15 137.077C138.125 137.023 138.024 136.948 137.917 136.995C137.858 137.018 137.828 137.058 137.828 137.097C137.788 137.077 137.749 137.057 137.71 137.037C137.603 136.983 137.497 136.92 137.355 136.897C137.228 136.874 137.088 136.881 136.965 136.909C136.843 136.939 136.741 136.987 136.638 137.032C136.397 137.144 136.15 137.261 135.994 137.415C135.955 137.451 135.967 137.494 135.987 137.532C136.021 137.596 136.06 137.661 136.118 137.719C136.06 137.705 135.992 137.701 135.95 137.73C135.912 137.766 135.978 137.8 136.019 137.825C136.036 137.834 136.053 137.844 136.07 137.853C136.071 137.853 136.071 137.853 136.072 137.853C135.984 137.936 135.927 138.027 135.993 138.124C136.028 138.174 136.092 138.217 136.15 138.26C136.159 138.266 136.164 138.274 136.177 138.277C136.181 138.278 136.185 138.278 136.189 138.277C136.197 138.285 136.221 138.287 136.233 138.276C136.463 138.094 136.713 137.912 136.837 137.698C136.857 137.662 136.849 137.643 136.781 137.631C136.715 137.619 136.645 137.615 136.576 137.616C136.449 137.618 136.367 137.642 136.299 137.679C136.243 137.633 136.218 137.595 136.195 137.542C136.179 137.496 136.174 137.473 136.207 137.43C136.256 137.368 136.368 137.299 136.481 137.243C136.58 137.194 136.654 137.159 136.765 137.12C136.875 137.083 136.963 137.065 137.081 137.037C137.149 137.021 137.213 137.01 137.261 137.015C137.445 137.03 137.57 137.107 137.726 137.167C137.675 137.184 137.627 137.204 137.583 137.227C137.518 137.26 137.461 137.3 137.437 137.348ZM137.978 137.008C138.007 137.004 138.07 137.034 138.095 137.077C138.097 137.08 138.101 137.088 138.102 137.09C138.103 137.092 138.104 137.094 138.105 137.096C138.053 137.1 138.002 137.106 137.954 137.114C137.931 137.117 137.908 137.121 137.886 137.126C137.86 137.071 137.904 137.02 137.978 137.008ZM135.991 137.744C135.991 137.744 135.991 137.744 135.991 137.744C135.992 137.743 135.993 137.743 135.994 137.742C135.996 137.741 135.999 137.74 136.002 137.739C136.006 137.739 136.02 137.736 136.025 137.736C136.019 137.737 136.016 137.737 136.024 137.736C136.054 137.736 136.083 137.741 136.119 137.752C136.144 137.76 136.141 137.759 136.16 137.767C136.163 137.769 136.166 137.77 136.17 137.77C136.162 137.777 136.153 137.784 136.145 137.791C136.13 137.803 136.115 137.815 136.1 137.828C136.042 137.797 135.979 137.762 135.991 137.744ZM136.606 137.644C136.658 137.643 136.785 137.657 136.794 137.667C136.805 137.673 136.76 137.741 136.731 137.777C136.659 137.876 136.538 137.984 136.418 138.082C136.348 138.139 136.276 138.196 136.204 138.252C136.151 138.209 136.096 138.177 136.051 138.125C135.961 138.014 136.053 137.91 136.189 137.803C136.311 137.702 136.383 137.641 136.606 137.644ZM137.404 137.008C137.233 136.963 137.125 136.996 136.968 137.035C136.844 137.063 136.724 137.098 136.619 137.144C136.442 137.224 136.128 137.363 136.132 137.499C136.137 137.547 136.163 137.594 136.196 137.638C136.214 137.658 136.234 137.679 136.257 137.697C136.259 137.699 136.261 137.7 136.263 137.701C136.241 137.715 136.22 137.73 136.199 137.747C136.198 137.747 136.197 137.746 136.196 137.746C136.199 137.742 136.2 137.738 136.196 137.735C136.106 137.652 136.037 137.551 136.018 137.467C136.019 137.439 136.042 137.42 136.076 137.39C136.127 137.349 136.161 137.323 136.215 137.289C136.354 137.2 136.515 137.123 136.678 137.048C136.82 136.984 136.987 136.911 137.177 136.911C137.247 136.909 137.33 136.92 137.39 136.934C137.479 136.959 137.542 136.991 137.622 137.032C137.69 137.067 137.758 137.102 137.826 137.137C137.827 137.138 137.829 137.138 137.83 137.138C137.81 137.143 137.79 137.148 137.771 137.153C137.77 137.151 137.769 137.149 137.765 137.147C137.646 137.099 137.536 137.043 137.404 137.008ZM137.619 137.245C137.717 137.194 137.826 137.162 137.966 137.14C138.143 137.113 138.334 137.102 138.491 137.165C138.604 137.209 138.693 137.302 138.676 137.357C138.666 137.361 138.444 137.37 138.339 137.378C138.051 137.394 137.762 137.41 137.479 137.442C137.476 137.439 137.474 137.438 137.473 137.434C137.461 137.407 137.467 137.396 137.478 137.369C137.502 137.314 137.542 137.286 137.619 137.245ZM135.937 138.538C136.173 138.606 136.414 138.648 136.672 138.59C136.689 138.585 136.687 138.568 136.666 138.566C136.62 138.569 136.575 138.58 136.528 138.585C136.476 138.59 136.391 138.591 136.33 138.586C136.203 138.575 136.114 138.552 136 138.522C135.937 138.505 135.875 138.486 135.806 138.477C135.73 138.467 135.648 138.467 135.573 138.48C135.473 138.498 135.371 138.546 135.293 138.561C135.224 138.574 135.163 138.578 135.079 138.577C135.04 138.576 135.031 138.576 134.998 138.574C134.991 138.573 134.984 138.574 134.978 138.576C134.96 138.581 134.959 138.599 134.982 138.601C135.103 138.608 135.233 138.608 135.345 138.578C135.414 138.56 135.505 138.523 135.555 138.513C135.69 138.483 135.805 138.5 135.937 138.538ZM136.778 138.661C136.786 138.656 136.786 138.648 136.777 138.643C136.77 138.639 136.756 138.638 136.747 138.642C136.72 138.65 136.692 138.658 136.663 138.666C136.471 138.719 136.325 138.722 136.098 138.687C136.027 138.677 135.953 138.663 135.879 138.672C135.843 138.675 135.804 138.681 135.776 138.694C135.758 138.705 135.783 138.722 135.807 138.713C135.838 138.705 135.872 138.698 135.915 138.697C135.955 138.696 136.041 138.708 136.101 138.717C136.218 138.733 136.34 138.746 136.46 138.733C136.518 138.728 136.572 138.717 136.625 138.704C136.677 138.691 136.733 138.68 136.778 138.661Z" fill="black"/>
<path d="M147.601 138.751C147.566 138.714 147.515 138.682 147.472 138.648C147.342 138.545 147.168 138.463 146.999 138.381C146.827 138.302 146.642 138.231 146.451 138.167C146.447 138.166 146.443 138.165 146.439 138.165C146.457 138.158 146.476 138.151 146.494 138.144C146.609 138.101 146.718 138.039 146.814 138.001C146.935 137.959 147.071 137.938 147.215 137.905C147.233 137.901 147.254 137.895 147.26 137.884C147.267 137.872 147.244 137.863 147.223 137.864C147.102 137.868 146.98 137.877 146.858 137.876C146.61 137.877 146.391 137.86 146.142 137.837C145.804 137.807 145.532 137.802 145.238 137.88C145.236 137.877 145.231 137.874 145.223 137.873C145.134 137.864 145.044 137.861 144.953 137.862C144.969 137.854 145.016 137.832 145.006 137.837C145.099 137.796 145.204 137.765 145.309 137.735C145.652 137.642 146.008 137.539 146.237 137.364C146.339 137.286 146.434 137.205 146.509 137.118C146.578 137.037 146.625 136.95 146.671 136.863C146.708 136.793 146.742 136.722 146.76 136.65C146.768 136.612 146.777 136.573 146.763 136.535C146.745 136.485 146.702 136.447 146.599 136.462C146.534 136.469 146.49 136.498 146.446 136.523C146.237 136.644 146.12 136.801 145.94 136.934C145.759 137.073 145.613 137.203 145.38 137.313C145.141 137.432 144.888 137.541 144.649 137.66C144.574 137.698 144.496 137.735 144.43 137.778C144.359 137.823 144.301 137.874 144.239 137.924C144.223 137.939 144.212 137.938 144.204 137.953C144.204 137.955 144.205 137.957 144.206 137.959C144.087 137.999 143.987 138.056 143.916 138.13C143.909 138.138 143.9 138.144 143.895 138.152C143.784 138.19 143.678 138.233 143.582 138.28C143.585 138.269 143.588 138.258 143.591 138.247C143.601 138.209 143.631 138.147 143.663 138.097C143.664 138.097 143.664 138.097 143.665 138.097C143.673 138.092 143.688 138.088 143.7 138.083C143.704 138.084 143.708 138.085 143.712 138.085C143.755 138.077 143.79 138.058 143.823 138.041C143.872 138.011 143.906 137.975 143.953 137.945C144.083 137.851 144.354 137.771 144.485 137.658C144.523 137.626 144.551 137.59 144.573 137.554C144.581 137.554 144.588 137.553 144.593 137.55C144.805 137.469 145.003 137.324 145.157 137.195C145.303 137.077 145.443 136.957 145.548 136.826C145.69 136.656 145.785 136.473 145.836 136.288C145.87 136.171 145.878 136.053 145.848 135.936C145.829 135.872 145.817 135.805 145.76 135.748C145.745 135.736 145.732 135.719 145.703 135.715C145.571 135.707 145.531 135.947 145.494 136.003C145.442 136.116 145.372 136.226 145.29 136.333C145.271 136.357 145.239 136.395 145.21 136.429C145.201 136.425 145.189 136.423 145.176 136.428C145.153 136.439 145.153 136.451 145.145 136.458C145.118 136.487 145.088 136.515 145.055 136.542C144.968 136.612 144.873 136.675 144.748 136.736C144.653 136.783 144.557 136.828 144.469 136.863C144.31 136.924 144.151 136.988 144.045 137.078C143.951 137.152 143.894 137.237 143.847 137.323C143.801 137.405 143.771 137.488 143.735 137.571C143.703 137.539 143.663 137.513 143.63 137.485C143.609 137.466 143.605 137.462 143.601 137.439C143.6 137.435 143.602 137.408 143.59 137.393C143.579 137.38 143.551 137.377 143.528 137.381C143.308 137.438 143.128 137.675 143.044 137.799C142.98 137.894 142.923 137.991 142.908 138.093C142.9 138.163 142.915 138.232 142.935 138.301C142.959 138.37 142.984 138.44 143.025 138.507C142.766 138.495 142.508 138.485 142.248 138.479C141.706 138.464 141.162 138.458 140.619 138.463C140.428 138.466 140.238 138.47 140.047 138.478C140.018 138.479 140.007 138.505 140.045 138.506C140.594 138.484 141.146 138.488 141.696 138.495C142.451 138.506 143.17 138.538 143.92 138.581C144.253 138.6 144.587 138.613 144.919 138.634C144.96 138.639 145.002 138.64 145.033 138.648C144.799 138.693 144.547 138.69 144.293 138.72C144.254 138.726 144.127 138.744 144.191 138.775C144.326 138.807 144.483 138.809 144.627 138.822C144.95 138.848 145.275 138.864 145.599 138.887C145.944 138.912 146.287 138.947 146.626 138.993C146.757 139.011 146.886 139.031 147.015 139.053C147.131 139.072 147.296 139.102 147.268 139.146C147.233 139.186 147.045 139.23 146.936 139.256C146.691 139.314 146.435 139.354 146.176 139.387C145.142 139.527 144.035 139.489 142.98 139.422C142.635 139.4 142.29 139.376 141.946 139.349C141.876 139.344 141.806 139.337 141.736 139.333C141.707 139.331 141.648 139.324 141.652 139.35C141.656 139.363 141.682 139.369 141.698 139.377C141.723 139.388 141.739 139.397 141.748 139.406C141.773 139.434 141.774 139.46 141.737 139.474C141.698 139.488 141.559 139.515 141.469 139.523C141.201 139.552 140.866 139.556 140.571 139.558C140.22 139.558 139.869 139.558 139.517 139.552C138.749 139.539 137.998 139.495 137.229 139.428C136.819 139.391 136.409 139.347 136.012 139.279C135.905 139.261 135.766 139.235 135.685 139.22C135.596 139.203 135.498 139.174 135.482 139.148C135.431 139.045 135.848 138.998 136.053 138.989C136.112 138.987 136.172 138.986 136.231 138.984C136.275 138.984 136.355 138.979 136.337 138.945C136.329 138.932 136.305 138.926 136.287 138.918C136.244 138.903 136.198 138.891 136.154 138.876C136.146 138.874 136.138 138.871 136.131 138.869C136.112 138.861 136.115 138.864 136.1 138.855C136.097 138.853 136.093 138.849 136.092 138.849C136.089 138.846 136.088 138.843 136.087 138.839C136.087 138.838 136.088 138.838 136.088 138.837C136.108 138.822 136.195 138.807 136.252 138.804C136.296 138.802 136.339 138.801 136.383 138.802C136.411 138.805 136.435 138.79 136.416 138.777C136.411 138.775 136.405 138.773 136.399 138.774C136.363 138.773 136.327 138.773 136.291 138.774C136.184 138.778 135.97 138.804 136.057 138.873C136.117 138.908 136.229 138.927 136.282 138.953C136.237 138.958 136.166 138.957 136.108 138.96C135.973 138.963 135.838 138.975 135.709 138.998C135.592 139.018 135.454 139.049 135.428 139.123C135.391 139.227 135.804 139.267 135.934 139.295C136.431 139.384 136.947 139.434 137.462 139.477C138.083 139.526 138.707 139.563 139.334 139.576C139.772 139.586 140.21 139.587 140.648 139.586C140.895 139.581 141.654 139.581 141.801 139.473C141.837 139.434 141.806 139.391 141.751 139.363C142.014 139.382 142.336 139.408 142.615 139.426C143.858 139.513 145.143 139.575 146.367 139.389C146.603 139.356 146.836 139.313 147.058 139.256C147.165 139.225 147.397 139.175 147.296 139.094C147.216 139.051 147.097 139.039 146.994 139.019C146.841 138.994 146.687 138.97 146.531 138.951C145.855 138.86 145.16 138.836 144.473 138.782C144.408 138.776 144.291 138.765 144.246 138.757C144.315 138.742 144.436 138.735 144.531 138.728C144.654 138.718 144.777 138.71 144.899 138.697C144.95 138.691 145.002 138.686 145.05 138.674C145.074 138.668 145.101 138.658 145.094 138.641C145.074 138.602 144.816 138.602 144.747 138.595C144.573 138.586 144.399 138.577 144.226 138.569C144.384 138.511 144.544 138.453 144.699 138.391C144.715 138.397 144.738 138.389 144.755 138.388C144.762 138.387 144.797 138.383 144.806 138.382C144.917 138.375 145.029 138.372 145.14 138.372C145.353 138.378 145.566 138.365 145.772 138.335C145.776 138.345 145.801 138.35 145.816 138.356C145.885 138.38 145.958 138.402 146.032 138.421C146.163 138.456 146.296 138.487 146.43 138.517C146.548 138.542 146.667 138.565 146.778 138.599C146.91 138.639 147.033 138.689 147.168 138.727C147.27 138.754 147.377 138.777 147.489 138.789C147.541 138.795 147.629 138.793 147.601 138.751ZM145.511 137.856C145.812 137.822 146.154 137.873 146.483 137.894C146.657 137.905 146.882 137.905 147.061 137.899C146.902 137.932 146.761 137.95 146.596 137.957C146.379 137.957 146.162 137.969 145.959 138.013C145.762 138.052 145.565 138.09 145.367 138.127C145.307 138.137 145.249 138.149 145.191 138.162C145.222 138.143 145.251 138.124 145.278 138.104C145.31 138.08 145.36 138.047 145.324 138.017C145.315 138.011 145.3 138.01 145.287 138.008C145.228 138.001 145.168 137.997 145.109 137.992C145.075 137.989 145.041 137.986 145.007 137.984C145.175 137.927 145.319 137.88 145.511 137.856ZM146.678 136.496C146.699 136.508 146.71 136.53 146.718 136.563C146.725 136.665 146.663 136.783 146.603 136.894C146.559 136.976 146.511 137.057 146.45 137.124C146.353 137.227 146.236 137.328 146.11 137.408C145.871 137.558 145.525 137.643 145.195 137.738C145.105 137.764 145.02 137.795 144.942 137.832C144.928 137.84 144.894 137.852 144.885 137.863C144.797 137.866 144.709 137.872 144.623 137.879C144.615 137.88 144.607 137.881 144.599 137.881C144.666 137.833 144.767 137.801 144.87 137.76C145.057 137.683 145.242 137.604 145.413 137.517C145.694 137.381 145.934 137.223 146.15 137.055C146.326 136.921 146.461 136.771 146.582 136.619C146.614 136.579 146.647 136.538 146.678 136.496ZM144.489 137.781C144.783 137.616 145.123 137.479 145.431 137.323C145.649 137.219 145.804 137.084 145.971 136.956C146.112 136.854 146.214 136.738 146.346 136.632C146.408 136.587 146.515 136.51 146.587 136.492C146.604 136.489 146.619 136.487 146.631 136.487C146.624 136.495 146.621 136.505 146.613 136.512C146.569 136.57 146.531 136.616 146.489 136.667C146.35 136.842 146.17 137.007 145.954 137.156C145.784 137.283 145.538 137.424 145.302 137.536C145.096 137.634 144.903 137.715 144.676 137.803C144.622 137.827 144.568 137.854 144.534 137.888C144.445 137.898 144.361 137.914 144.283 137.935C144.354 137.88 144.41 137.827 144.489 137.781ZM143.984 138.119C144.179 137.936 144.56 137.898 144.946 137.89C145.035 137.889 145.095 137.89 145.176 137.898C145.156 137.904 145.135 137.911 145.115 137.918C145.068 137.932 145.022 137.947 144.976 137.963C144.969 137.965 144.965 137.968 144.963 137.972C144.961 137.975 144.961 137.979 144.964 137.981C144.88 137.977 144.795 137.977 144.711 137.984C144.457 138.006 144.206 138.055 143.978 138.125C143.98 138.123 143.982 138.121 143.984 138.119ZM144.263 138.081C144.512 138.026 144.767 137.991 145.017 138.013C145.083 138.019 145.172 138.024 145.237 138.032C144.927 138.085 144.63 138.162 144.355 138.257C144.145 138.328 143.938 138.404 143.75 138.491C143.72 138.507 143.685 138.52 143.66 138.539C143.525 138.531 143.39 138.524 143.254 138.517C143.497 138.328 143.869 138.163 144.263 138.081ZM144.593 137.398C144.567 137.481 144.522 137.583 144.43 137.655C144.34 137.726 144.174 137.794 144.038 137.857C143.938 137.902 143.857 137.976 143.792 138.02C143.76 138.038 143.751 138.042 143.716 138.054C143.715 138.055 143.713 138.055 143.712 138.056C143.706 138.054 143.699 138.054 143.693 138.055C143.726 138.01 143.762 137.966 143.789 137.92C143.796 137.92 143.803 137.918 143.808 137.915C143.909 137.86 143.984 137.792 144.048 137.722C144.151 137.608 144.254 137.495 144.349 137.379C144.424 137.291 144.474 137.218 144.557 137.133C144.568 137.121 144.58 137.109 144.591 137.098C144.603 137.191 144.614 137.299 144.593 137.398ZM145.689 135.743C145.69 135.744 145.691 135.744 145.692 135.744C145.752 135.782 145.79 135.893 145.803 135.972C145.835 136.098 145.803 136.248 145.76 136.369C145.685 136.583 145.554 136.778 145.369 136.962C145.28 137.049 145.176 137.131 145.075 137.214C144.977 137.291 144.9 137.355 144.784 137.421C144.719 137.46 144.662 137.487 144.596 137.515C144.597 137.512 144.599 137.509 144.601 137.505C144.617 137.474 144.63 137.443 144.639 137.411C144.641 137.41 144.642 137.409 144.643 137.408C144.665 137.392 144.686 137.375 144.707 137.359C144.764 137.314 144.823 137.27 144.878 137.224C145.046 137.081 145.203 136.933 145.329 136.777C145.499 136.558 145.619 136.327 145.691 136.092C145.716 136.012 145.721 135.932 145.712 135.851C145.708 135.817 145.702 135.784 145.693 135.75C145.693 135.748 145.69 135.746 145.687 135.744C145.688 135.744 145.689 135.744 145.689 135.743ZM144.635 137.059C144.689 137.013 144.749 136.972 144.812 136.929C144.765 136.998 144.716 137.053 144.654 137.123C144.652 137.125 144.65 137.127 144.648 137.13C144.645 137.106 144.641 137.082 144.635 137.059ZM145.185 136.594C145.207 136.554 145.227 136.511 145.225 136.468C145.229 136.467 145.233 136.465 145.235 136.463C145.252 136.443 145.268 136.423 145.285 136.404C145.331 136.351 145.372 136.296 145.41 136.241C145.481 136.139 145.535 136.033 145.578 135.926C145.597 135.881 145.609 135.835 145.64 135.792C145.643 135.787 145.646 135.783 145.649 135.779C145.698 135.977 145.626 136.174 145.53 136.371C145.46 136.516 145.362 136.674 145.258 136.799C145.153 136.925 145.025 137.044 144.895 137.161C144.82 137.228 144.734 137.291 144.653 137.355C144.652 137.355 144.651 137.356 144.651 137.356C144.655 137.332 144.656 137.307 144.655 137.282C144.654 137.248 144.653 137.214 144.652 137.18C144.654 137.179 144.656 137.178 144.657 137.176C144.722 137.112 144.776 137.045 144.829 136.978C144.847 136.955 144.866 136.931 144.878 136.907C144.881 136.902 144.879 136.895 144.87 136.892C144.869 136.892 144.868 136.892 144.867 136.891C144.869 136.89 144.87 136.889 144.872 136.888C145.001 136.799 145.126 136.706 145.185 136.594ZM143.776 137.594C143.869 137.38 143.939 137.152 144.218 137.005C144.32 136.951 144.423 136.915 144.544 136.866C144.745 136.779 144.937 136.685 145.081 136.568C145.113 136.544 145.147 136.513 145.173 136.485C145.165 136.559 145.113 136.634 145.057 136.695C144.981 136.772 144.887 136.835 144.799 136.896C144.686 136.971 144.576 137.048 144.498 137.137C144.318 137.345 144.161 137.55 143.958 137.758C143.91 137.804 143.868 137.839 143.812 137.874C143.816 137.864 143.82 137.854 143.822 137.844C143.837 137.763 143.818 137.679 143.763 137.603C143.769 137.602 143.774 137.599 143.776 137.594ZM143.55 137.436C143.55 137.443 143.551 137.452 143.555 137.463C143.581 137.515 143.645 137.538 143.685 137.582C143.729 137.626 143.748 137.66 143.763 137.712C143.778 137.762 143.783 137.806 143.767 137.861C143.732 137.955 143.606 138.077 143.563 138.185C143.55 138.217 143.54 138.25 143.53 138.282C143.529 138.29 143.523 138.3 143.526 138.308C143.427 138.361 143.326 138.416 143.246 138.479C143.245 138.374 143.295 138.284 143.348 138.18C143.393 138.093 143.43 138.004 143.458 137.915C143.496 137.8 143.482 137.683 143.491 137.567C143.494 137.521 143.521 137.481 143.55 137.436ZM143.075 138.5C142.988 138.339 142.921 138.163 142.979 138.012C143.015 137.915 143.079 137.821 143.146 137.729C143.21 137.645 143.306 137.536 143.412 137.469C143.44 137.451 143.491 137.424 143.513 137.414C143.498 137.434 143.484 137.454 143.473 137.475C143.433 137.54 143.436 137.609 143.437 137.677C143.437 137.754 143.432 137.831 143.41 137.907C143.378 138.027 143.299 138.17 143.239 138.299C143.21 138.369 143.185 138.442 143.198 138.514C143.198 138.514 143.198 138.514 143.199 138.515C143.157 138.513 143.115 138.511 143.073 138.509C143.075 138.506 143.076 138.503 143.075 138.5ZM144.467 138.448C144.379 138.48 144.29 138.512 144.204 138.546C144.189 138.553 144.169 138.557 144.156 138.565C144.133 138.564 144.11 138.563 144.087 138.562C143.966 138.555 143.844 138.548 143.722 138.542C143.882 138.457 144.062 138.393 144.256 138.323C144.582 138.206 144.9 138.116 145.269 138.055C145.273 138.054 145.277 138.054 145.28 138.054C145.278 138.056 145.276 138.059 145.272 138.062C145.202 138.123 145.107 138.174 144.999 138.227C144.831 138.31 144.662 138.375 144.467 138.448ZM145.429 138.341C145.28 138.35 145.13 138.34 144.98 138.346C144.915 138.348 144.849 138.35 144.785 138.357C144.903 138.308 145.017 138.256 145.124 138.2C145.129 138.202 145.136 138.203 145.144 138.201C145.338 138.157 145.54 138.125 145.737 138.085C145.907 138.053 146.074 138.013 146.252 137.997C146.341 137.987 146.506 137.988 146.621 137.983C146.689 137.98 146.757 137.975 146.823 137.967C146.805 137.973 146.788 137.978 146.771 137.985C146.66 138.033 146.569 138.084 146.466 138.122C146.157 138.249 145.797 138.32 145.429 138.341ZM147.18 138.697C147.047 138.658 146.924 138.608 146.791 138.569C146.684 138.537 146.569 138.516 146.456 138.491C146.303 138.458 146.152 138.422 146.005 138.381C145.949 138.365 145.894 138.349 145.841 138.33C145.838 138.329 145.834 138.328 145.83 138.326C145.943 138.308 146.054 138.284 146.161 138.255C146.159 138.26 146.162 138.266 146.172 138.269C146.647 138.402 147.058 138.57 147.459 138.756C147.358 138.742 147.278 138.725 147.18 138.697ZM147.548 138.763C147.547 138.761 147.545 138.758 147.541 138.756C147.279 138.632 147.004 138.516 146.717 138.409C146.557 138.35 146.387 138.299 146.216 138.248C146.211 138.247 146.206 138.246 146.202 138.244C146.275 138.223 146.346 138.2 146.415 138.175C146.409 138.181 146.41 138.188 146.423 138.192C146.69 138.281 146.916 138.373 147.142 138.492C147.278 138.557 147.397 138.636 147.489 138.71C147.511 138.727 147.536 138.744 147.553 138.763C147.551 138.763 147.549 138.763 147.548 138.763Z" fill="black"/>
<path d="M144.372 139.219C144.254 139.235 144.112 139.238 143.973 139.243C143.817 139.247 143.662 139.254 143.506 139.26C143.466 139.263 143.424 139.261 143.385 139.266C143.369 139.269 143.362 139.282 143.375 139.289C143.379 139.291 143.386 139.293 143.392 139.292C143.443 139.291 143.494 139.289 143.544 139.287C143.712 139.28 143.88 139.273 144.048 139.269C144.138 139.266 144.228 139.262 144.317 139.254C144.369 139.247 144.433 139.244 144.467 139.219C144.499 139.193 144.462 139.166 144.438 139.145C144.398 139.112 144.359 139.077 144.294 139.058C144.221 139.037 144.142 139.059 144.072 139.072C144.05 139.077 144.028 139.081 144.006 139.086C144.006 139.07 144 139.054 143.985 139.04C143.972 139.025 143.947 139.017 143.921 139.012C143.852 138.995 143.781 138.981 143.708 138.969C143.596 138.952 143.468 138.935 143.357 138.962C143.31 138.976 143.291 139.005 143.277 139.032C143.239 139.097 143.172 139.155 143.066 139.157C142.976 139.161 142.884 139.16 142.795 139.164C142.771 139.169 142.773 139.192 142.802 139.191C142.906 139.188 143.021 139.192 143.122 139.179C143.182 139.171 143.224 139.143 143.26 139.117C143.289 139.091 143.311 139.062 143.328 139.033C143.344 139.008 143.341 139.004 143.369 138.99C143.437 138.962 143.637 138.983 143.774 139.011C143.812 139.019 143.905 139.035 143.934 139.05C143.948 139.06 143.958 139.08 143.955 139.099C143.955 139.099 143.954 139.1 143.953 139.1C143.948 139.104 143.948 139.108 143.951 139.112C143.949 139.114 143.948 139.117 143.946 139.119C143.93 139.142 143.917 139.155 143.893 139.182C143.881 139.192 143.899 139.206 143.92 139.202C143.949 139.194 143.959 139.165 143.976 139.15C143.985 139.139 143.993 139.128 143.999 139.116C144.069 139.102 144.157 139.082 144.207 139.077C144.236 139.074 144.285 139.088 144.298 139.095C144.351 139.119 144.405 139.168 144.429 139.196C144.43 139.205 144.429 139.209 144.372 139.219ZM141.838 138.162C141.867 138.148 141.888 138.131 141.913 138.115C141.979 138.077 142.036 138.051 142.104 138.047C142.249 138.038 142.297 138.103 142.351 138.187C142.375 138.225 142.417 138.266 142.496 138.274C142.531 138.276 142.564 138.268 142.598 138.265C142.647 138.26 142.68 138.256 142.739 138.253C142.752 138.252 142.768 138.254 142.778 138.248C142.789 138.242 142.789 138.23 142.774 138.226C142.758 138.222 142.74 138.226 142.723 138.226C142.658 138.229 142.559 138.242 142.517 138.246C142.495 138.246 142.47 138.24 142.441 138.222C142.393 138.185 142.366 138.101 142.295 138.057C142.23 138.018 142.121 138.009 142.034 138.029C141.947 138.051 141.883 138.092 141.824 138.132C141.784 138.155 141.774 138.156 141.744 138.141C141.687 138.104 141.609 138.012 141.475 138.034C141.409 138.049 141.363 138.083 141.335 138.118C141.316 138.14 141.305 138.164 141.295 138.187C141.293 138.191 141.294 138.195 141.297 138.198C141.308 138.209 141.339 138.204 141.344 138.193C141.365 138.131 141.42 138.075 141.487 138.06C141.544 138.048 141.62 138.091 141.666 138.132C141.708 138.17 141.765 138.198 141.838 138.162ZM140.665 137.99C140.689 138.032 140.767 137.977 140.792 137.961C140.863 137.909 140.974 137.855 141.004 137.875C141.014 137.878 141.013 137.898 141.014 137.925C141.011 137.948 141.03 137.968 141.077 137.96C141.167 137.94 141.225 137.905 141.3 137.904C141.355 137.901 141.44 137.924 141.462 137.946C141.479 137.961 141.491 137.975 141.495 137.984C141.499 137.989 141.499 137.997 141.51 138C141.522 138.003 141.538 138 141.545 137.993C141.554 137.985 141.545 137.976 141.541 137.968C141.53 137.95 141.513 137.934 141.491 137.919C141.463 137.9 141.42 137.889 141.377 137.882C141.274 137.862 141.179 137.897 141.095 137.926C141.08 137.93 141.073 137.932 141.066 137.933C141.065 137.927 141.065 137.884 141.058 137.869C141.047 137.847 141.001 137.84 140.965 137.845C140.87 137.859 140.774 137.934 140.72 137.966C140.741 137.912 140.782 137.853 140.743 137.8C140.676 137.717 140.482 137.772 140.398 137.818C140.372 137.832 140.352 137.849 140.333 137.866C140.327 137.872 140.319 137.877 140.322 137.884C140.326 137.897 140.358 137.897 140.368 137.886C140.416 137.837 140.481 137.809 140.565 137.79C140.704 137.766 140.724 137.829 140.698 137.898C140.69 137.929 140.663 137.959 140.665 137.99ZM141.679 138.287C141.704 138.282 141.701 138.259 141.672 138.26C141.452 138.26 141.231 138.26 141.011 138.267C140.95 138.269 140.888 138.271 140.826 138.272C140.819 138.273 140.813 138.274 140.808 138.277C140.792 138.285 140.8 138.301 140.824 138.3C141.015 138.296 141.206 138.289 141.397 138.289C141.491 138.287 141.586 138.29 141.679 138.287ZM141.061 138.332C141.047 138.333 141.035 138.339 141.034 138.347C141.033 138.355 141.045 138.361 141.058 138.361C141.102 138.361 141.147 138.361 141.191 138.362C141.222 138.361 141.229 138.333 141.193 138.334C141.149 138.333 141.105 138.333 141.061 138.332ZM134.949 134.886C134.986 134.883 135.022 134.879 135.058 134.875C135.224 134.857 135.39 134.839 135.555 134.818C135.638 134.807 135.721 134.796 135.803 134.783C135.874 134.771 135.966 134.758 135.997 134.716C136.016 134.68 135.967 134.657 135.964 134.63C135.902 134.418 136.229 134.238 136.583 134.148C136.926 134.065 137.395 134.166 137.653 134.332C137.698 134.359 137.738 134.387 137.781 134.415C137.813 134.439 137.892 134.466 137.929 134.431C137.946 134.412 137.938 134.39 137.94 134.37C137.947 134.334 137.951 134.314 137.975 134.279C138.014 134.225 138.104 134.169 138.212 134.136C138.315 134.104 138.492 134.124 138.59 134.173C138.644 134.197 138.675 134.217 138.707 134.244C138.747 134.278 138.83 134.368 138.894 134.295C138.967 134.212 139.139 134.16 139.295 134.178C139.388 134.193 139.475 134.232 139.548 134.281C139.589 134.31 139.629 134.36 139.648 134.396C139.656 134.411 139.662 134.426 139.669 134.441C139.67 134.445 139.674 134.448 139.68 134.45C139.699 134.455 139.723 134.444 139.719 134.433C139.686 134.346 139.616 134.259 139.485 134.204C139.409 134.17 139.319 134.142 139.218 134.147C139.06 134.15 138.914 134.21 138.848 134.287C138.844 134.291 138.843 134.293 138.841 134.294C138.839 134.293 138.834 134.292 138.832 134.291C138.829 134.29 138.825 134.288 138.824 134.287C138.817 134.283 138.812 134.278 138.806 134.274C138.784 134.26 138.736 134.209 138.695 134.186C138.605 134.132 138.479 134.091 138.343 134.092C138.255 134.091 138.173 134.112 138.107 134.143C138.04 134.173 137.982 134.209 137.944 134.252C137.912 134.286 137.898 134.324 137.891 134.361C137.888 134.374 137.89 134.415 137.888 134.413C137.888 134.414 137.886 134.417 137.885 134.419C137.884 134.419 137.884 134.419 137.884 134.419C137.883 134.419 137.882 134.419 137.88 134.419C137.879 134.419 137.879 134.419 137.878 134.419C137.878 134.419 137.877 134.419 137.875 134.419C137.87 134.418 137.861 134.416 137.858 134.414C137.811 134.395 137.745 134.342 137.688 134.31C137.413 134.139 136.931 134.026 136.536 134.13C136.212 134.218 135.888 134.386 135.907 134.601C135.908 134.633 135.923 134.664 135.948 134.693C135.956 134.703 135.947 134.721 135.906 134.732C135.85 134.75 135.747 134.763 135.665 134.775C135.511 134.796 135.355 134.815 135.199 134.832C135.112 134.841 135.026 134.85 134.939 134.86C134.929 134.861 134.921 134.866 134.919 134.872C134.915 134.881 134.933 134.89 134.949 134.886Z" fill="black"/>
<path d="M136.147 134.79C136.155 134.778 136.13 134.768 136.112 134.775C135.981 134.827 135.849 134.877 135.717 134.928C135.681 134.942 135.645 134.957 135.608 134.971C135.602 134.973 135.598 134.976 135.595 134.98C135.588 134.991 135.613 135.001 135.631 134.994C135.773 134.939 135.916 134.884 136.059 134.829C136.084 134.819 136.109 134.809 136.135 134.799C136.141 134.797 136.145 134.794 136.147 134.79ZM136.159 134.949C136.188 134.926 136.216 134.902 136.245 134.879C136.262 134.866 136.28 134.853 136.297 134.84C136.301 134.836 136.302 134.833 136.301 134.829C136.296 134.816 136.264 134.817 136.254 134.827C136.206 134.863 136.162 134.9 136.116 134.936C136.111 134.941 136.11 134.947 136.117 134.951C136.127 134.96 136.151 134.957 136.159 134.949Z" fill="black"/>
<path d="M55.344 11.9442C55.1908 11.4202 54.8939 10.9108 54.5733 10.4395C54.4807 10.3857 54.3535 10.48 54.4041 10.5565C54.6932 11.0303 54.9532 11.456 55.1141 11.9249C55.1602 12.0939 55.0986 12.1224 54.8364 12.2542C54.2026 12.4844 53.1938 12.602 52.497 12.7043C51.0291 12.8943 49.5506 13.028 48.0805 13.2058C45.7048 13.5319 43.3118 13.762 40.9133 13.952C40.7426 13.9854 40.5481 13.9964 40.4089 14.0877C40.2678 14.2139 40.1207 14.356 40.0064 14.41C39.3059 14.7717 38.4583 14.8016 37.5836 14.8888C34.4151 15.1055 31.2323 15.1752 28.0532 15.2246C26.6892 15.241 25.3251 15.251 23.961 15.2575C23.7285 15.2598 23.4956 15.2551 23.2636 15.2672C23.1647 15.2677 23.0323 15.2996 23.0521 15.395C23.0895 15.4809 23.2362 15.4868 23.3276 15.5241C23.4984 15.5629 23.6709 15.656 23.8472 15.6608C24.0481 15.5677 23.8871 15.4954 23.6786 15.4343C24.9343 15.4083 26.3815 15.4266 27.6752 15.4009C30.6778 15.3631 33.6815 15.2899 36.6771 15.1203C37.441 15.0743 38.2087 15.0257 38.96 14.9038C39.4872 14.8112 40.0469 14.6764 40.4053 14.3413C40.5678 14.1722 40.5708 14.1851 40.8477 14.1343C43.0478 13.9397 45.5577 13.7322 47.8441 13.4044C49.4085 13.2116 50.9835 13.0724 52.5454 12.868C53.1988 12.7399 55.422 12.6068 55.344 11.9442ZM22.9087 15.9523C22.6036 15.8171 22.2774 15.7693 21.9431 15.6597C21.8343 15.6475 21.7595 15.7779 21.8639 15.8219C22.1652 15.9152 22.4713 15.9981 22.7764 16.083C22.866 16.099 22.9526 16.0169 22.9087 15.9523ZM22.6467 16.4706C22.1852 16.303 21.7317 16.1199 21.2481 15.993C21.0035 15.9404 20.8551 15.8536 20.6116 15.8306C20.5243 15.8485 20.4869 15.9533 20.5745 15.9897C21.3001 16.1816 21.9489 16.4013 22.6766 16.6776C22.7468 16.7156 22.8487 16.697 22.8746 16.6298C22.9115 16.5238 22.7317 16.5114 22.6467 16.4706ZM65.1047 7.65669C64.9237 7.16095 64.7408 6.64822 64.4476 6.18862C64.3587 6.13436 64.2246 6.22949 64.278 6.30557C64.7577 7.18445 65.1403 8.25907 65.169 9.20773C65.1636 9.32405 65.3884 9.30436 65.3893 9.19869C65.3674 8.67916 65.2675 8.16056 65.1047 7.65669ZM64.0267 8.82812C64.0112 8.63437 63.9852 8.44104 63.9423 8.24974C63.899 8.14058 63.9191 7.95131 63.8183 7.87423C63.7357 7.83991 63.6309 7.90766 63.6509 7.97745C63.7362 8.31077 63.8014 8.65538 63.8137 8.93664C63.8155 8.98222 63.8105 9.04445 63.8803 9.05962C64.0618 9.0939 64.0413 8.91906 64.0267 8.82812ZM62.9204 8.91784C62.8994 8.78052 62.8574 8.64587 62.8146 8.51186C62.8091 8.49035 62.7909 8.47127 62.7662 8.46098C62.6837 8.42659 62.5784 8.49441 62.5989 8.56419C62.6354 8.6798 62.6718 8.79569 62.6942 8.91364C62.7111 8.96406 62.6901 9.03462 62.7589 9.06336C62.8766 9.10491 62.9573 8.99874 62.9204 8.91784ZM86.1143 0.558556C85.6993 1.32003 85.1744 1.94752 84.5068 2.53176C84.4498 2.61628 84.6021 2.68678 84.6796 2.61734C85.043 2.28709 85.4056 1.95233 85.6901 1.57647C85.9177 1.26091 86.1334 0.936304 86.3144 0.603549C86.3418 0.508818 86.1658 0.478898 86.1143 0.558556ZM84.7047 1.03969C84.5268 1.22357 84.4356 1.32293 84.2195 1.49866C84.1894 1.52216 84.172 1.56095 84.1898 1.59255C84.3002 1.73819 84.4602 1.52618 84.546 1.46109C84.6463 1.34275 84.8875 1.18572 84.9058 1.05203C84.8862 0.975269 84.7471 0.976554 84.7047 1.03969ZM46.6509 35.9114C46.0754 36.6528 45.8615 37.4571 45.264 38.1443C45.103 38.3415 44.8013 38.3493 44.4118 38.1532C44.2355 38.1101 44.1692 38.2888 44.3577 38.3376C44.6063 38.4576 44.9391 38.5217 45.2096 38.4084C45.6323 38.1503 45.798 37.7174 46.0265 37.3528C46.2845 36.9042 46.4591 36.5232 46.7331 36.1177C46.7678 36.052 46.8632 35.9988 46.8519 35.9237C46.832 35.8475 46.6938 35.8479 46.6509 35.9114ZM44.7504 37.4286C44.6449 37.3852 44.6665 37.3923 44.5809 37.3332C44.4655 37.262 44.4397 37.1555 44.3304 37.1146C44.2411 37.0986 44.1542 37.1808 44.1981 37.2453C44.309 37.3752 44.4374 37.5048 44.6185 37.5778C44.7029 37.6184 44.8242 37.6369 44.8634 37.5454C44.8918 37.4813 44.818 37.4454 44.7504 37.4286ZM45.1615 36.8867C45.1197 36.8351 45.1131 36.7628 45.0572 36.7208C44.9681 36.666 44.8343 36.7618 44.8877 36.8376C44.9332 36.9206 44.968 37.0167 45.0439 37.0847C45.1043 37.1231 45.2001 37.0861 45.2197 37.0316C45.2408 36.9782 45.1845 36.9337 45.1615 36.8867ZM64.7258 30.5791C64.6555 30.6184 64.6428 30.6953 64.599 30.751C64.0832 31.5337 63.2428 32.8797 62.3253 32.6412C62.1301 32.5824 61.9531 32.4935 61.7739 32.4107C61.7488 32.4004 61.7188 32.3991 61.6923 32.4057C61.6047 32.4234 61.5673 32.5285 61.6549 32.5648C61.9463 32.6966 62.2505 32.8666 62.603 32.8482C63.0312 32.7966 63.3819 32.5514 63.6509 32.2995C63.9815 31.9804 64.2497 31.6244 64.5005 31.2646C64.6259 31.0542 64.8147 30.8489 64.8831 30.6254C64.8699 30.5707 64.7832 30.55 64.7258 30.5791ZM62.1989 31.9423C62.0758 31.8094 61.9509 31.6779 61.8245 31.5469C61.727 31.4724 61.5655 31.5986 61.6604 31.6749C61.8159 31.8303 61.8733 31.908 62.0293 32.0593C62.0621 32.0815 62.1141 32.0781 62.1497 32.0613C62.1999 32.0374 62.2277 31.9847 62.1989 31.9423ZM62.4785 31.3146C62.411 31.2399 62.2537 31.3132 62.2806 31.396C62.3462 31.5272 62.3522 31.6966 62.4671 31.8042C62.5496 31.8386 62.6545 31.7708 62.6344 31.701C62.5738 31.5748 62.5432 31.4381 62.4785 31.3146ZM9.25736 43.9697C9.19051 43.9597 9.13496 43.9968 9.09994 44.0374C8.8401 44.3325 8.59293 44.6344 8.33089 44.9285C7.53667 45.8496 6.6621 46.7297 5.93916 47.6871C5.56 48.1567 4.92566 49.165 4.69793 48.7851C4.52233 48.5263 4.31956 48.214 4.22904 47.9986C4.19622 47.8872 3.98072 47.9506 4.01304 48.051C4.15682 48.3632 4.34115 48.6697 4.56416 48.9521C4.98722 49.2882 5.42215 48.6406 5.63164 48.4066C6.54841 47.1146 8.03653 45.6007 8.97923 44.4657C8.93085 44.5707 8.88301 44.6779 8.8556 44.7669C8.85469 44.8096 8.90772 44.8399 8.95894 44.8377C9.13446 44.8007 9.11718 44.5978 9.19703 44.4895C9.25143 44.3532 9.33488 44.2189 9.34998 44.0758C9.35203 44.0292 9.32275 43.9765 9.25736 43.9697ZM7.95294 44.1463C7.80887 44.3745 7.64829 44.5988 7.51294 44.8292C7.502 44.8609 7.5238 44.8975 7.56113 44.9125C7.61525 44.9339 7.68353 44.9139 7.71349 44.874C7.85771 44.6579 7.99606 44.4397 8.13884 44.2232C8.21728 44.1203 8.02523 44.048 7.95294 44.1463ZM6.88939 44.4699C6.85006 44.3806 6.67561 44.4254 6.67589 44.5109C6.68133 44.8085 6.66581 45.1055 6.63178 45.4021C6.63199 45.4512 6.60825 45.5035 6.62577 45.5512C6.64779 45.6103 6.75461 45.6142 6.80287 45.5726C6.91878 45.229 6.89289 44.8285 6.88939 44.4699ZM24.4565 38.8994C24.3825 38.8688 24.2976 38.9194 24.2919 38.9799C24.0301 38.9699 23.6918 38.9546 23.401 38.9553C22.1214 38.956 20.8407 39.0518 19.5901 39.2658C18.8981 39.3854 18.2127 39.5264 17.5291 39.6717C17.3022 39.7115 17.1517 39.7628 17.0028 39.7397C17.0041 39.7368 17.0049 39.7343 17.0068 39.7308C17.0295 39.6606 17.0905 39.6065 17.1622 39.5036C17.2252 39.3907 17.3885 39.2825 17.4009 39.1625C17.3826 39.0856 17.2416 39.087 17.1999 39.1504C16.1166 40.3268 17.4171 39.8415 18.3374 39.6756C19.5468 39.426 20.6316 39.2483 21.8758 39.1725C22.5149 39.1365 23.1568 39.1177 23.7973 39.134C24.0766 39.1319 24.2615 39.17 24.4968 39.1497C24.6732 39.0959 24.5919 38.9528 24.4565 38.8994ZM24.7374 38.6491C24.5656 38.4882 24.3829 38.3347 24.2068 38.1767C24.1093 38.1019 23.9476 38.2283 24.0428 38.3045C24.2354 38.4633 24.4061 38.6477 24.6089 38.794C24.6346 38.8029 24.6667 38.8008 24.6913 38.7905C24.7601 38.7705 24.7926 38.6918 24.7374 38.6491ZM25.0674 38.4836C24.9853 38.3849 24.9171 38.2746 24.8218 38.1848C24.7329 38.1304 24.599 38.2261 24.6524 38.3016C24.7384 38.3985 24.8042 38.5099 24.898 38.6007C24.9187 38.6149 24.9504 38.6196 24.977 38.6142C25.0505 38.6067 25.1033 38.5359 25.0674 38.4836Z" fill="white"/>
<path d="M49.5818 2.41676C48.9516 2.35245 48.3 2.37233 47.6623 2.36088C47.3159 2.36055 46.9695 2.36323 46.6232 2.36786C46.5934 2.3692 46.5645 2.37964 46.5436 2.39622C46.4926 2.43228 46.4947 2.50457 46.5579 2.53086C47.3676 2.54766 48.189 2.51685 49.0019 2.55537C49.0189 2.5561 49.037 2.55665 49.0552 2.55721C45.2548 3.54069 40.6283 4.79869 36.5751 5.85195C35.4421 6.12805 34.4865 6.35456 33.3707 5.9934C32.5972 5.8182 31.8208 5.60187 31.0063 5.59977C29.3075 5.64587 27.6419 5.98407 26.0039 6.31718C24.8777 6.57335 23.7616 6.85764 22.6597 7.17167C22.4948 7.23344 22.2857 7.24775 22.15 7.34206C22.1022 7.40213 22.1693 7.48932 22.2652 7.46265C24.4877 6.81086 26.9362 6.22123 29.1786 5.9239C29.8248 5.84241 30.6978 5.74047 31.2493 5.77949C32.1015 5.83902 32.91 6.08059 33.7276 6.26246C34.7194 6.52076 35.7591 6.20731 36.717 5.99212C39.8224 5.1763 42.9216 4.34616 46.0278 3.53237C47.0419 3.2623 48.0562 2.99246 49.0691 2.71971C49.2463 2.65607 49.4738 2.64764 49.6139 2.53985C49.6479 2.50128 49.6364 2.43943 49.5818 2.41676ZM50.7119 1.39851C50.0731 1.25131 49.5783 1.1113 48.9734 0.89929C48.7893 0.854016 48.5489 0.70285 48.3772 0.700002C48.2898 0.717864 48.2524 0.822699 48.34 0.859097C48.974 1.11365 49.6381 1.32164 50.3177 1.489C50.4704 1.51897 50.6221 1.57798 50.7777 1.58775C50.8074 1.58518 50.836 1.571 50.8527 1.5518C50.9379 1.46628 50.8129 1.40822 50.7119 1.39851ZM50.8284 0.00998338C50.7112 -0.0397543 50.5868 0.109737 50.7095 0.164052C51.1153 0.367358 51.5161 0.576693 51.9155 0.787644C51.9982 0.822197 52.103 0.754262 52.0829 0.684429C51.7198 0.422789 51.238 0.23718 50.8284 0.00998338ZM90.1361 1.97024C87.249 5.76226 83.6008 7.7148 78.5517 9.43345C78.1463 9.57501 77.5594 9.78682 77.2256 9.8273C77.0856 9.86921 76.8302 9.8111 76.7956 9.95451C76.8015 10.0778 76.9885 10.0236 77.0897 10.0155C77.5863 9.96701 78.0346 9.7891 78.4879 9.63522C82.3513 8.33149 86.1286 6.61657 88.6645 3.92643C89.2697 3.31779 89.8556 2.68728 90.3368 2.01518C90.3605 1.92268 90.1904 1.88902 90.1361 1.97024ZM87.1263 6.24878C86.1436 7.06083 85.1381 7.75599 84.003 8.36236C83.9228 8.43039 84.0354 8.53635 84.1357 8.48298C84.9721 8.05275 85.7341 7.54394 86.456 7.00379C86.7264 6.77978 87.1131 6.56017 87.3101 6.30194C87.3179 6.22489 87.1879 6.1941 87.1263 6.24878ZM87.5824 7.97805C87.2659 8.20246 87.0461 8.33419 86.7246 8.52061C86.6507 8.57402 86.5358 8.60371 86.4925 8.67706C86.4738 8.7191 86.5066 8.77059 86.5641 8.77885C86.6981 8.77828 86.7921 8.66776 86.9038 8.61892C87.1893 8.45357 87.4679 8.28072 87.7297 8.09323C87.8373 8.01138 87.6877 7.89428 87.5824 7.97805ZM39.9524 16.7365C39.2542 17.7085 38.5422 18.5664 37.5038 19.3001C35.0749 20.9584 31.969 22.103 29.0151 23.2471C28.8504 23.3299 28.4485 23.3982 28.2479 23.5123C28.1119 23.8068 28.8861 23.4538 29.0148 23.4286C31.3043 22.5517 33.6127 21.6773 35.7354 20.5678C36.5706 20.1069 37.4101 19.6378 38.1187 19.0582C38.831 18.4789 39.4053 17.8074 39.9182 17.1139C39.9889 16.9919 40.1331 16.8812 40.1533 16.7488C40.132 16.6733 39.9963 16.6724 39.9524 16.7365ZM30.2784 23.5541C29.4647 24.0067 28.6435 24.4508 27.8367 24.9108C27.7766 24.9374 27.753 25.0069 27.8041 25.0474C27.8381 25.0743 27.8955 25.0753 27.9354 25.0559C28.4444 24.7692 28.9529 24.4819 29.4671 24.2009C29.7809 24.0254 30.1087 23.8605 30.4112 23.6747C30.4917 23.6064 30.3788 23.501 30.2784 23.5541ZM30.5254 24.2903C30.3142 24.4648 30.0891 24.6343 29.8949 24.819C29.858 24.8698 29.9126 24.9388 29.9881 24.933C30.1735 24.8641 30.52 24.5152 30.6982 24.3759C30.7556 24.2909 30.6026 24.2212 30.5254 24.2903ZM68.0955 34.0211C67.5541 33.6302 66.6421 33.4657 66.1252 33.2032C65.9119 33.0662 65.9515 33.0174 66.0054 32.8269C66.1741 32.4396 66.436 32.0959 66.6773 31.6831C67.1134 30.9685 67.5468 30.2522 67.9309 29.5195C68.1872 29.003 68.4571 28.465 68.4676 27.9047C68.4603 27.6281 68.3254 27.3443 68.0166 27.1901C67.5785 26.9571 67.138 26.7105 66.6786 26.5095C66.57 26.4994 66.4949 26.6262 66.5994 26.6717C67.1154 26.9605 67.8301 27.2246 68.1156 27.5265C68.4717 28.0804 68.018 28.8476 67.7021 29.5201C67.1979 30.4718 66.6286 31.3875 66.0271 32.3545C65.6075 33.0192 65.5813 33.2959 66.549 33.5704C67.7341 33.8938 68.993 34.6041 68.6277 35.5278C68.2579 36.3598 67.687 37.1331 67.1502 37.9613C67.0589 38.1012 66.9525 38.235 66.8623 38.3753C66.826 38.4202 66.8282 38.4893 66.8935 38.517C67.0782 38.5565 67.2027 38.3771 67.3345 38.302C67.718 38.0186 68.0996 37.7334 68.4891 37.4546C68.5101 37.4382 68.5237 37.4158 68.5251 37.3923C68.4599 37.1701 68.1913 37.4649 68.0837 37.5255C67.8712 37.686 67.5386 37.9271 67.2828 38.1143C67.7476 37.4276 68.2082 36.7379 68.6104 36.0273C69.1129 35.2626 68.9725 34.5628 68.0955 34.0211Z" fill="black"/>
<path d="M69.0376 33.8508C68.8328 33.5999 68.6107 33.3552 68.3389 33.1456C68.2651 33.1018 68.2126 33.0138 68.1137 33.0092C68.0234 33.0108 67.9577 33.1057 68.0257 33.1592C68.722 33.6699 69.2309 34.3751 69.5023 35.0565C69.5132 35.1907 69.7531 35.1595 69.7289 35.0337C69.5693 34.6173 69.3399 34.216 69.0376 33.8508ZM69.9756 33.5962C69.9104 33.4479 69.8411 33.3006 69.7622 33.1564C69.7193 33.1004 69.7116 33.0073 69.6213 32.9867C69.5324 32.971 69.4453 33.0529 69.4895 33.1175C69.609 33.3186 69.6901 33.4908 69.7626 33.6557C69.7896 33.7192 69.8119 33.8247 69.9291 33.7956C70.0499 33.7651 70.0144 33.6656 69.9756 33.5962ZM43.9563 41.0698C43.9515 40.9601 43.9363 40.8506 43.9103 40.7427C43.9078 40.683 43.853 40.625 43.77 40.6469C43.6653 40.67 43.6784 40.7582 43.7007 40.8225C43.7196 40.926 43.7338 40.9917 43.7348 41.0523C43.7391 41.1311 43.7367 41.21 43.7291 41.2885C43.3938 41.0729 42.5304 40.2395 41.9443 39.8559C41.1463 39.3062 40.2319 38.8681 39.2727 38.5118C38.7599 38.2868 38.0097 38.1557 37.7902 37.8389C37.7371 37.7948 37.8305 37.5934 37.9375 37.4128C38.2015 36.9341 38.5579 36.3632 38.9002 35.8368C39.2501 35.2954 39.6152 34.7594 40.0106 34.2374C40.0645 34.1443 40.1931 34.0651 40.1955 33.9609C40.1762 33.8858 40.0369 33.8842 39.9945 33.9485C39.1992 34.9552 38.5281 36.02 37.8897 37.0917C37.5775 37.646 37.2516 37.9732 38.1486 38.2982C39.6064 38.8137 40.9985 39.3534 42.1018 40.2208C42.4863 40.5181 42.8559 40.8269 43.2164 41.1419C43.5544 41.4852 43.9968 41.7215 43.9563 41.0698ZM41.1555 40.6002C40.8318 40.3426 40.4857 40.0954 40.0886 39.9081C39.9365 39.8529 39.6982 39.7128 39.5409 39.7154C39.4534 39.7332 39.4162 39.838 39.5038 39.8744C40.0542 40.0653 40.4193 40.2884 40.8468 40.614C40.9205 40.6567 40.969 40.7467 41.0678 40.7502C41.1582 40.7486 41.2236 40.6537 41.1555 40.6002ZM39.964 40.9519C39.8191 40.8218 39.6665 40.6971 39.5142 40.5722C39.4168 40.4976 39.255 40.6239 39.3503 40.7002C39.5025 40.8251 39.6551 40.9498 39.8 41.0799C39.8422 41.1135 39.9161 41.1061 39.9558 41.0735C39.9968 41.0416 40.0074 40.9854 39.964 40.9519ZM50.7514 21.6232C50.5535 21.6074 50.3469 21.6839 50.1513 21.7146C49.807 21.7828 49.4632 21.9386 49.3428 22.2139C49.2361 22.4268 49.1471 22.6452 49.0669 22.8652C49.055 22.902 49.0295 22.9415 49.0555 22.978C49.102 23.0461 49.2361 23.0175 49.2593 22.949C49.4645 22.4352 49.532 22.0116 50.0742 21.908C50.284 21.8559 50.4979 21.8148 50.7145 21.7822C50.8021 21.7646 50.839 21.6596 50.7514 21.6232ZM49.6583 21.0877C49.5722 21.0277 49.4714 21.1101 49.3893 21.138C49.2219 21.2143 49.0459 21.3002 48.9469 21.4349C48.8494 21.5978 48.7965 21.7753 48.7344 21.9481C48.7203 22.0262 48.661 22.1111 48.6911 22.1884C48.7376 22.2566 48.8722 22.228 48.895 22.1595C49.009 21.7905 49.0673 21.4593 49.3565 21.3449C49.4554 21.2733 49.781 21.2292 49.6583 21.0877ZM38.3827 49.5567C37.9798 49.8173 37.6377 50.1388 37.2616 50.4259C37.2613 50.4219 37.261 50.4187 37.2607 50.4144C37.2052 49.8296 37.098 49.2479 36.9794 48.669C36.6943 47.4871 36.2399 46.3193 35.5552 45.2401C35.0325 44.4967 34.3089 43.8403 33.465 43.3078C32.0998 42.4599 30.5404 41.7749 28.8663 41.3811C27.9352 41.149 26.9615 41.0874 25.9967 40.9968C25.8883 40.994 25.7718 40.9474 25.6691 40.9803C25.5904 41.0146 25.5849 41.121 25.6849 41.1372C26.8351 41.2572 28.0005 41.3196 29.1043 41.6225C31.0061 42.1441 32.9388 43.0136 34.349 44.2137C35.6687 45.3643 36.2464 46.9 36.6941 48.4332C36.8526 49.0714 36.9775 49.8307 37.0389 50.4017C37.0201 50.7725 37.1936 50.7327 37.4739 50.4935C37.8023 50.2227 38.1365 49.9564 38.4788 49.6963C38.5581 49.6376 38.4933 49.5294 38.3827 49.5567ZM38.8949 50.0248C38.2718 50.3134 37.7672 50.7312 37.2786 51.1433C37.1754 51.251 37.0078 51.3373 36.9474 51.4629C36.9394 51.5401 37.0697 51.5707 37.1313 51.516C37.7221 50.991 38.3302 50.4848 39.0276 50.1454C39.1084 50.0771 38.9952 49.9716 38.8949 50.0248ZM39.4617 51.0442C39.4031 50.9674 39.279 51.0267 39.1935 51.0377C38.8723 51.1071 38.5661 51.2115 38.2583 51.3101C38.1032 51.3284 38.0841 51.5127 38.266 51.486C38.5802 51.3858 38.8919 51.2782 39.219 51.206C39.3248 51.184 39.5247 51.1665 39.4617 51.0442ZM16.05 32.4331C15.9343 32.2228 15.773 32.0299 15.6189 31.8358C15.3439 31.5364 15.1079 31.1874 14.7845 30.927C14.6945 30.9116 14.6088 30.9928 14.6522 31.0577C14.7956 31.2132 14.9371 31.3697 15.0764 31.5276C15.3243 31.8096 15.6466 32.1772 15.8104 32.458C15.0987 32.2697 14.3783 32.097 13.629 32.0292C12.835 31.9665 11.9878 31.7936 11.2115 32.0068C10.6832 32.1893 10.215 32.4562 9.74734 32.7173C8.76593 33.2557 7.83067 33.8432 6.93084 34.4622C5.85422 35.2051 4.76204 35.9343 3.69851 36.6887C3.01176 37.1822 2.28767 37.6634 1.76158 38.2715C1.55116 38.5067 1.54816 38.8076 1.62945 39.078C1.74686 39.543 1.86962 40.0072 2.00325 40.4696C2.16098 40.9964 2.33865 41.5194 2.50218 42.0451C2.53992 42.1518 2.74692 42.0965 2.71818 41.9927C2.42767 41.0879 2.13195 40.1839 1.90687 39.2673C1.79097 38.8246 1.69702 38.5708 2.04107 38.2421C2.50589 37.7386 3.28209 37.2049 3.94382 36.7346C5.05663 35.9505 6.19313 35.1872 7.31851 34.4142C8.55789 33.6031 9.91822 32.7041 11.3053 32.1549C12.0456 31.9794 12.8797 32.1417 13.7299 32.2173C14.3219 32.2791 14.8979 32.4059 15.463 32.5542C15.6426 32.5798 15.8724 32.7237 16.0391 32.6373C16.1181 32.5857 16.0831 32.4971 16.05 32.4331ZM16.7937 32.3959C16.4006 31.6498 15.9469 30.9207 15.4168 30.228C15.343 30.0791 15.1227 30.1312 15.1757 30.2689C15.5867 30.7817 15.9285 31.3281 16.2586 31.8748C16.3747 32.0782 16.4878 32.2828 16.5964 32.4887C16.6095 32.5082 16.634 32.5222 16.6615 32.5266C16.7507 32.5423 16.8378 32.4605 16.7937 32.3959ZM17.7007 32.2749C17.6377 31.9655 17.6329 31.6418 17.5562 31.338C17.4884 31.2634 17.3313 31.3366 17.3578 31.4194C17.4143 31.9033 17.4945 32.3851 17.5699 32.8674C17.572 32.9003 17.5823 32.9358 17.6235 32.9515C17.9523 33.0371 17.6822 32.4131 17.7007 32.2749ZM1.20038 37.6166C0.637614 37.9503 0.255736 38.4564 0.0854955 38.988C-0.0214675 39.3655 -0.0132446 39.7569 0.030084 40.1402C0.0496748 40.2168 0.188241 40.2159 0.230997 40.1525C0.256808 40.1392 0.243153 40.0448 0.238791 40.0224C0.159284 39.2881 0.293987 38.6892 0.844102 38.122C0.928115 38.0026 1.19159 37.8457 1.37327 37.7021C1.43026 37.6178 1.27789 37.5471 1.20038 37.6166ZM2.5154 49.0243C2.14718 48.3306 1.87956 47.3515 2.10342 46.6424C2.17428 46.3523 2.29697 45.9978 2.42424 45.7985C2.45499 45.7329 2.53313 45.6735 2.52513 45.6014C2.50554 45.5252 2.36675 45.5255 2.32414 45.5891C1.97186 46.1253 1.80191 46.7423 1.8027 47.3435C1.82207 47.9961 2.05623 48.64 2.38663 49.2363C2.43296 49.3044 2.56738 49.276 2.59041 49.2073C2.611 49.1414 2.53542 49.0861 2.5154 49.0243ZM1.3787 47.6759C1.34031 47.458 1.3243 47.3437 1.32179 47.1414C1.30763 47.0384 1.37899 46.9145 1.31228 46.8229C1.24393 46.7699 1.12231 46.8208 1.12017 46.8915C1.08613 47.1587 1.10765 47.4273 1.15605 47.6927C1.17028 47.7479 1.17043 47.8109 1.20732 47.8598C1.25072 47.9114 1.35583 47.8925 1.39057 47.8432C1.43083 47.7904 1.38314 47.7316 1.3787 47.6759ZM0.490395 47.0368C0.422115 46.9837 0.300422 47.0347 0.298277 47.1053C0.294058 47.1701 0.2636 47.2386 0.281403 47.3021C0.303425 47.3613 0.410247 47.3652 0.45851 47.3234C0.512918 47.2784 0.494399 47.2104 0.509416 47.1539C0.514847 47.1144 0.532869 47.0679 0.490395 47.0368ZM27.1684 37.1466C26.9854 36.7692 26.7625 36.3707 26.3854 36.0898C26.2833 36.0568 26.176 36.1714 26.2568 36.2345C26.5561 36.4929 26.798 36.859 26.9711 37.2394C27.0402 37.3351 27.232 37.2385 27.1684 37.1466ZM27.3118 36.3767C27.2439 36.302 27.087 36.3754 27.1134 36.4581C27.17 36.5336 27.1509 36.6907 27.2808 36.7075C27.5125 36.6967 27.3587 36.4735 27.3118 36.3767Z" fill="black"/>
</svg>
