<svg width="88" height="32" viewBox="0 0 88 32" fill="none" xmlns="http://www.w3.org/2000/svg">
<path fill-rule="evenodd" clip-rule="evenodd" d="M14.6665 5.33317C9.51184 5.33317 5.33317 9.51184 5.33317 14.6665C5.33317 19.8212 9.51184 23.9998 14.6665 23.9998C19.8212 23.9998 23.9998 19.8212 23.9998 14.6665C23.9998 9.51184 19.8212 5.33317 14.6665 5.33317ZM2.6665 14.6665C2.6665 8.03908 8.03908 2.6665 14.6665 2.6665C21.2939 2.6665 26.6665 8.03908 26.6665 14.6665C26.6665 21.2939 21.2939 26.6665 14.6665 26.6665C8.03908 26.6665 2.6665 21.2939 2.6665 14.6665Z" fill="#828FA2"/>
<path fill-rule="evenodd" clip-rule="evenodd" d="M21.2572 21.2572C21.7779 20.7365 22.6221 20.7365 23.1428 21.2572L28.9428 27.0572C29.4635 27.5779 29.4635 28.4221 28.9428 28.9428C28.4221 29.4635 27.5779 29.4635 27.0572 28.9428L21.2572 23.1428C20.7365 22.6221 20.7365 21.7779 21.2572 21.2572Z" fill="#828FA2"/>
<path fill-rule="evenodd" clip-rule="evenodd" d="M69.3335 16.0002C69.3335 14.5274 70.5274 13.3335 72.0002 13.3335C73.4729 13.3335 74.6668 14.5274 74.6668 16.0002C74.6668 17.4729 73.4729 18.6668 72.0002 18.6668C70.5274 18.6668 69.3335 17.4729 69.3335 16.0002Z" fill="#828FA2"/>
<path fill-rule="evenodd" clip-rule="evenodd" d="M78.6665 16.0002C78.6665 14.5274 79.8604 13.3335 81.3332 13.3335C82.8059 13.3335 83.9998 14.5274 83.9998 16.0002C83.9998 17.4729 82.8059 18.6668 81.3332 18.6668C79.8604 18.6668 78.6665 17.4729 78.6665 16.0002Z" fill="#828FA2"/>
<path fill-rule="evenodd" clip-rule="evenodd" d="M60 16.0002C60 14.5274 61.1939 13.3335 62.6667 13.3335C64.1394 13.3335 65.3333 14.5274 65.3333 16.0002C65.3333 17.4729 64.1394 18.6668 62.6667 18.6668C61.1939 18.6668 60 17.4729 60 16.0002Z" fill="#828FA2"/>
</svg>
