<svg width="120" height="64" viewBox="0 0 120 64" fill="none" xmlns="http://www.w3.org/2000/svg">
<path fill-rule="evenodd" clip-rule="evenodd" d="M58 32C58 30.8954 58.8954 30 60 30C61.1046 30 62 30.8954 62 32C62 33.1046 61.1046 34 60 34C58.8954 34 58 33.1046 58 32Z" fill="#828FA2"/>
<path fill-rule="evenodd" clip-rule="evenodd" d="M58 25C58 23.8954 58.8954 23 60 23C61.1046 23 62 23.8954 62 25C62 26.1046 61.1046 27 60 27C58.8954 27 58 26.1046 58 25Z" fill="#828FA2"/>
<path fill-rule="evenodd" clip-rule="evenodd" d="M58 39C58 37.8954 58.8954 37 60 37C61.1046 37 62 37.8954 62 39C62 40.1046 61.1046 41 60 41C58.8954 41 58 40.1046 58 39Z" fill="#828FA2"/>
</svg>
