<svg width="7" height="20" viewBox="0 0 7 20" fill="none" xmlns="http://www.w3.org/2000/svg">
<path fill-rule="evenodd" clip-rule="evenodd" d="M3.12364 2.29748C3.45038 1.35979 3.89354 0.833008 4.35562 0.833008H5.22676C5.38712 0.833008 5.51713 1.2061 5.51713 1.66634V4.99968C5.51713 5.45991 5.38712 5.83301 5.22676 5.83301H4.35562V7.49968H5.22676C5.31618 7.49968 5.40061 7.6179 5.45563 7.82017C5.51068 8.02243 5.53016 8.28617 5.50849 8.53512L5.21809 11.8684C5.18578 12.2394 5.06963 12.4997 4.93638 12.4997H4.35562V18.333C4.35562 18.7932 4.22561 19.1663 4.06524 19.1663H2.90371C2.74334 19.1663 2.61333 18.7932 2.61333 18.333V12.4997H2.03257C1.8722 12.4997 1.74219 12.1266 1.74219 11.6663V8.33301C1.74219 7.87277 1.8722 7.49968 2.03257 7.49968H2.61333V5.83301C2.61333 4.50693 2.79689 3.23516 3.12364 2.29748ZM4.35562 2.49968C4.04756 2.49968 3.75212 2.85087 3.5343 3.47599C3.31647 4.10111 3.19409 4.94895 3.19409 5.83301V8.33301C3.19409 8.79325 3.06408 9.16634 2.90371 9.16634H2.32295V10.833H2.90371C3.06408 10.833 3.19409 11.2061 3.19409 11.6663V17.4997H3.77485V11.6663C3.77485 11.2061 3.90486 10.833 4.06524 10.833H4.70966L4.85485 9.16634H4.06524C3.90486 9.16634 3.77485 8.79325 3.77485 8.33301V5.83301C3.77485 5.39098 3.83604 4.96706 3.94496 4.6545C4.05387 4.34194 4.20159 4.16634 4.35562 4.16634H4.93638V2.49968H4.35562Z" fill="#2D2D2D"/>
</svg>
