<svg width="20" height="20" viewBox="0 0 20 20" fill="none" xmlns="http://www.w3.org/2000/svg">
<path fill-rule="evenodd" clip-rule="evenodd" d="M3.72039 12.887C4.50179 12.1056 5.5616 11.6667 6.66667 11.6667H13.3333C14.4384 11.6667 15.4982 12.1056 16.2796 12.887C17.061 13.6684 17.5 14.7283 17.5 15.8333V17.5C17.5 17.9602 17.1269 18.3333 16.6667 18.3333C16.2064 18.3333 15.8333 17.9602 15.8333 17.5V15.8333C15.8333 15.1703 15.5699 14.5344 15.1011 14.0656C14.6323 13.5967 13.9964 13.3333 13.3333 13.3333H6.66667C6.00363 13.3333 5.36774 13.5967 4.8989 14.0656C4.43006 14.5344 4.16667 15.1703 4.16667 15.8333V17.5C4.16667 17.9602 3.79357 18.3333 3.33333 18.3333C2.8731 18.3333 2.5 17.9602 2.5 17.5V15.8333C2.5 14.7283 2.93899 13.6684 3.72039 12.887ZM16.6667 18.3333C16.2064 18.3333 15.8333 17.9602 15.8333 17.5V15.8333C15.8333 15.1703 15.5699 14.5344 15.1011 14.0656C14.6323 13.5967 13.9964 13.3333 13.3333 13.3333H6.66667C6.00363 13.3333 5.36774 13.5967 4.8989 14.0656C4.43006 14.5344 4.16667 15.1703 4.16667 15.8333V17.5C4.16667 17.9602 3.79357 18.3333 3.33333 18.3333H16.6667Z" fill="#FF8B6A"/>
<path d="M3.72039 12.887C4.50179 12.1056 5.5616 11.6667 6.66667 11.6667H13.3333C14.4384 11.6667 15.4982 12.1056 16.2796 12.887C17.061 13.6684 17.5 14.7283 17.5 15.8333V17.5C17.5 17.9602 17.1269 18.3333 16.6667 18.3333C16.2064 18.3333 15.8333 17.9602 15.8333 17.5V15.8333C15.8333 15.1703 15.5699 14.5344 15.1011 14.0656C14.6323 13.5967 13.9964 13.3333 13.3333 13.3333H6.66667C6.00363 13.3333 5.36774 13.5967 4.8989 14.0656C4.43006 14.5344 4.16667 15.1703 4.16667 15.8333V17.5C4.16667 17.9602 3.79357 18.3333 3.33333 18.3333C2.8731 18.3333 2.5 17.9602 2.5 17.5V15.8333C2.5 14.7283 2.93899 13.6684 3.72039 12.887ZM16.6667 18.3333C16.2064 18.3333 15.8333 17.9602 15.8333 17.5V15.8333C15.8333 15.1703 15.5699 14.5344 15.1011 14.0656C14.6323 13.5967 13.9964 13.3333 13.3333 13.3333H6.66667C6.00363 13.3333 5.36774 13.5967 4.8989 14.0656C4.43006 14.5344 4.16667 15.1703 4.16667 15.8333V17.5C4.16667 17.9602 3.79357 18.3333 3.33333 18.3333H16.6667Z" fill="#FF8B6A"/>
<path fill-rule="evenodd" clip-rule="evenodd" d="M9.99968 3.33333C8.61896 3.33333 7.49968 4.45261 7.49968 5.83333C7.49968 7.21404 8.61896 8.33333 9.99968 8.33333C11.3804 8.33333 12.4997 7.21404 12.4997 5.83333C12.4997 4.45261 11.3804 3.33333 9.99968 3.33333ZM5.83301 5.83333C5.83301 3.53214 7.69849 1.66666 9.99968 1.66666C12.3009 1.66666 14.1663 3.53214 14.1663 5.83333C14.1663 8.13451 12.3009 9.99999 9.99968 9.99999C7.69849 9.99999 5.83301 8.13451 5.83301 5.83333ZM7.49968 5.83333C7.49968 4.45261 8.61896 3.33333 9.99968 3.33333C11.3804 3.33333 12.4997 4.45261 12.4997 5.83333C12.4997 7.21404 11.3804 8.33333 9.99968 8.33333C8.61896 8.33333 7.49968 7.21404 7.49968 5.83333Z" fill="#FF8B6A"/>
<path d="M9.99968 3.33333C8.61896 3.33333 7.49968 4.45261 7.49968 5.83333C7.49968 7.21404 8.61896 8.33333 9.99968 8.33333C11.3804 8.33333 12.4997 7.21404 12.4997 5.83333C12.4997 4.45261 11.3804 3.33333 9.99968 3.33333ZM5.83301 5.83333C5.83301 3.53214 7.69849 1.66666 9.99968 1.66666C12.3009 1.66666 14.1663 3.53214 14.1663 5.83333C14.1663 8.13451 12.3009 9.99999 9.99968 9.99999C7.69849 9.99999 5.83301 8.13451 5.83301 5.83333ZM7.49968 5.83333C7.49968 4.45261 8.61896 3.33333 9.99968 3.33333C11.3804 3.33333 12.4997 4.45261 12.4997 5.83333C12.4997 7.21404 11.3804 8.33333 9.99968 8.33333C8.61896 8.33333 7.49968 7.21404 7.49968 5.83333Z" fill="#FF8B6A"/>
</svg>
