<svg width="226" height="24" viewBox="0 0 226 24" fill="none" xmlns="http://www.w3.org/2000/svg">
<path fill-rule="evenodd" clip-rule="evenodd" d="M220.707 5.29289C221.098 5.68342 221.098 6.31658 220.707 6.70711L208.707 18.7071C208.317 19.0976 207.683 19.0976 207.293 18.7071C206.902 18.3166 206.902 17.6834 207.293 17.2929L219.293 5.29289C219.683 4.90237 220.317 4.90237 220.707 5.29289Z" fill="#828FA2"/>
<path fill-rule="evenodd" clip-rule="evenodd" d="M207.293 5.29289C207.683 4.90237 208.317 4.90237 208.707 5.29289L220.707 17.2929C221.098 17.6834 221.098 18.3166 220.707 18.7071C220.317 19.0976 219.683 19.0976 219.293 18.7071L207.293 6.70711C206.902 6.31658 206.902 5.68342 207.293 5.29289Z" fill="#828FA2"/>
</svg>
