<svg width="32" height="32" viewBox="0 0 32 32" fill="none" xmlns="http://www.w3.org/2000/svg">
<path fill-rule="evenodd" clip-rule="evenodd" d="M24.9426 7.05752C25.4633 7.57822 25.4633 8.42243 24.9426 8.94313L8.94264 24.9431C8.42194 25.4638 7.57773 25.4638 7.05703 24.9431C6.53633 24.4224 6.53633 23.5782 7.05703 23.0575L23.057 7.05752C23.5777 6.53682 24.4219 6.53682 24.9426 7.05752Z" fill="#2D2D2D"/>
<path fill-rule="evenodd" clip-rule="evenodd" d="M7.05703 7.05752C7.57773 6.53682 8.42194 6.53682 8.94264 7.05752L24.9426 23.0575C25.4633 23.5782 25.4633 24.4224 24.9426 24.9431C24.4219 25.4638 23.5777 25.4638 23.057 24.9431L7.05703 8.94313C6.53633 8.42243 6.53633 7.57822 7.05703 7.05752Z" fill="#2D2D2D"/>
</svg>
