<svg width="32" height="32" viewBox="0 0 32 32" fill="none" xmlns="http://www.w3.org/2000/svg">
<path d="M27.3381 24.2666C27.1973 24.4088 23.2391 27.7422 15.9824 27.7422C8.72566 27.7422 4.79383 24.4266 4.62671 24.2844C4.52139 24.1946 4.43463 24.0848 4.37142 23.9611C4.3082 23.8374 4.26978 23.7023 4.25834 23.5636C4.2469 23.4249 4.26267 23.2852 4.30476 23.1526C4.34684 23.0201 4.41439 22.8972 4.50356 22.7911C4.68726 22.5763 4.94755 22.4436 5.22767 22.4219C5.50779 22.4003 5.785 22.4914 5.99889 22.6755C6.06046 22.72 9.59644 25.6177 15.9736 25.6177C22.3507 25.6177 25.9131 22.7022 25.9483 22.6755C26.1646 22.4931 26.4427 22.4032 26.7235 22.4247C27.0044 22.4463 27.2659 22.5777 27.4524 22.7911C27.6319 23.0026 27.7215 23.2773 27.7017 23.5553C27.6819 23.8332 27.5544 24.092 27.3469 24.2755L27.3381 24.2666ZM9.58764 5.86673C9.60355 5.58057 9.73093 5.31241 9.94195 5.12086C10.1529 4.92932 10.4303 4.82996 10.7136 4.84451C10.9762 4.85958 11.2239 4.97237 11.4091 5.16113C11.5942 5.34989 11.7037 5.60124 11.7163 5.86673V20.0889C11.7163 20.3741 11.6042 20.6477 11.4046 20.8494C11.205 21.0511 10.9343 21.1644 10.652 21.1644C10.3697 21.1644 10.099 21.0511 9.89937 20.8494C9.69981 20.6477 9.58764 20.3741 9.58764 20.0889V5.86673ZM14.9532 5.3334C14.9532 5.04815 15.0654 4.77457 15.265 4.57287C15.4646 4.37116 15.7353 4.25785 16.0176 4.25785C16.2998 4.25785 16.5706 4.37116 16.7702 4.57287C16.9698 4.77457 17.0819 5.04815 17.0819 5.3334V20.8C17.0819 21.0852 16.9698 21.3588 16.7702 21.5605C16.5706 21.7622 16.2998 21.8755 16.0176 21.8755C15.7353 21.8755 15.4646 21.7622 15.265 21.5605C15.0654 21.3588 14.9532 21.0852 14.9532 20.8V5.3334ZM20.2309 5.86673C20.2309 5.58148 20.343 5.3079 20.5427 5.1062C20.7422 4.90449 21.013 4.79118 21.2952 4.79118C21.5775 4.79118 21.8482 4.90449 22.0478 5.1062C22.2474 5.3079 22.3595 5.58148 22.3595 5.86673V20.0889C22.3595 20.3741 22.2474 20.6477 22.0478 20.8494C21.8482 21.0511 21.5775 21.1644 21.2952 21.1644C21.013 21.1644 20.7422 21.0511 20.5427 20.8494C20.343 20.6477 20.2309 20.3741 20.2309 20.0889V5.86673ZM27.9978 9.34596e-05H4.00219C3.47934 -0.00341859 2.96094 0.0973232 2.47667 0.29655C1.9924 0.495777 1.55177 0.789576 1.18002 1.16113C0.80826 1.53267 0.512676 1.97468 0.31019 2.46182C0.107705 2.94898 0.00229304 3.4717 -8.96454e-06 4.00007V27.9999C0.00229304 28.5283 0.107705 29.051 0.31019 29.5382C0.512676 30.0253 0.80826 30.4673 1.18002 30.8389C1.55177 31.2104 1.9924 31.5043 2.47667 31.7035C2.96094 31.9027 3.47934 32.0035 4.00219 31.9999H27.9978C28.5199 32.0035 29.0376 31.9029 29.5213 31.7043C30.005 31.5056 30.4452 31.2126 30.8169 30.8421C31.1885 30.4714 31.4843 30.0305 31.6873 29.5444C31.8903 29.0582 31.9965 28.5365 32 28.0088V4.00007C31.9977 3.47245 31.8925 2.95046 31.6907 2.46389C31.4887 1.97733 31.1939 1.53572 30.8231 1.16428C30.4523 0.792851 30.0127 0.498866 29.5294 0.299113C29.0461 0.0993606 28.5287 -0.00224631 28.0066 9.34596e-05" fill="#B8B8B8"/>
</svg>
