<svg width="19" height="19" viewBox="0 0 19 19" fill="none" xmlns="http://www.w3.org/2000/svg">
<path d="M9.49983 5.14586C10.0247 5.14586 10.5281 5.35438 10.8993 5.72554C11.2705 6.09671 11.479 6.60011 11.479 7.12502C11.479 7.38492 11.4278 7.64229 11.3283 7.88241C11.2289 8.12253 11.0831 8.34071 10.8993 8.52449C10.7155 8.70828 10.4973 8.85406 10.2572 8.95352C10.0171 9.05298 9.75974 9.10418 9.49983 9.10418C8.97493 9.10418 8.47152 8.89566 8.10035 8.52449C7.72919 8.15333 7.52067 7.64992 7.52067 7.12502C7.52067 6.60011 7.72919 6.09671 8.10035 5.72554C8.47152 5.35438 8.97493 5.14586 9.49983 5.14586ZM9.49983 1.58337C10.9696 1.58337 12.3791 2.16722 13.4184 3.20648C14.4576 4.24574 15.0415 5.65528 15.0415 7.12502C15.0415 11.2812 9.49983 17.4166 9.49983 17.4166C9.49983 17.4166 3.95819 11.2812 3.95819 7.12502C3.95819 5.65528 4.54204 4.24574 5.5813 3.20648C6.62056 2.16722 8.0301 1.58337 9.49983 1.58337ZM9.49983 3.1667C8.45002 3.1667 7.44321 3.58374 6.70088 4.32607C5.95855 5.06839 5.54151 6.07521 5.54151 7.12502C5.54151 7.91668 5.54151 9.50001 9.49983 14.8121C13.4581 9.50001 13.4581 7.91668 13.4581 7.12502C13.4581 6.07521 13.0411 5.06839 12.2988 4.32607C11.5565 3.58374 10.5496 3.1667 9.49983 3.1667Z" fill="#231D9A"/>
</svg>
