<svg width="242" height="150" viewBox="0 0 242 150" fill="none" xmlns="http://www.w3.org/2000/svg">
<path d="M0 34.7058C0 30.2854 3.58342 26.702 8.00379 26.702H26.7898C31.2101 26.702 34.7936 30.2854 34.7936 34.7058V67.2145H0V34.7058Z" fill="#231D9A"/>
<rect y="72.2169" width="34.7936" height="77.6784" fill="#A2D3FF"/>
<path d="M51.8016 8.00379C51.8016 3.58342 55.385 0 59.8054 0H78.5914C83.0118 0 86.5952 3.58342 86.5952 8.00379V67.2145H51.8016V8.00379Z" fill="#231D9A"/>
<rect x="51.8016" y="72.2169" width="34.7936" height="77.6784" fill="#A2D3FF"/>
<path d="M103.603 106.371C103.603 101.951 107.187 98.3671 111.607 98.3671H130.393C134.813 98.3671 138.397 101.951 138.397 106.371V127.398H103.603V106.371Z" fill="#231D9A"/>
<rect x="103.603" y="132.401" width="34.7936" height="17.4946" fill="#A2D3FF"/>
<path d="M155.405 45.5886C155.405 41.1682 158.988 37.5848 163.409 37.5848H182.195C186.615 37.5848 190.198 41.1682 190.198 45.5886V104.799H155.405V45.5886Z" fill="#231D9A"/>
<rect x="155.405" y="109.802" width="34.7936" height="40.0936" fill="#A2D3FF"/>
<path d="M207.206 89.6616C207.206 85.2412 210.79 81.6578 215.21 81.6578H233.996C238.417 81.6578 242 85.2412 242 89.6616V121.873H207.206V89.6616Z" fill="#231D9A"/>
<rect x="207.206" y="126.875" width="34.7936" height="23.0202" fill="#A2D3FF"/>
</svg>
