<svg width="34" height="34" viewBox="0 0 34 34" fill="none" xmlns="http://www.w3.org/2000/svg">
<path d="M29.0266 24.824C28.8906 24.9769 25.0301 28.5966 17.6195 28.992C10.209 29.3874 6.01319 26.2158 5.83477 26.0797C5.72233 25.9937 5.62774 25.8863 5.55646 25.7634C5.48516 25.6405 5.43856 25.5047 5.41932 25.3637C5.40008 25.2226 5.40857 25.0791 5.44432 24.9414C5.48007 24.8038 5.54237 24.6746 5.62765 24.5614C5.80354 24.3321 6.06211 24.1824 6.34699 24.145C6.63186 24.1077 6.91992 24.1856 7.14837 24.3619C7.21367 24.404 10.9825 27.1705 17.4948 26.823C24.0071 26.4755 27.4862 23.3041 27.5207 23.2749C27.7316 23.0769 28.0107 22.9699 28.2986 22.9765C28.5866 22.9833 28.8609 23.1033 29.0629 23.311C29.2577 23.5172 29.3642 23.7928 29.3591 24.0778C29.3541 24.3627 29.2379 24.634 29.0361 24.8326L29.0266 24.824ZM9.89731 7.00132C9.89796 6.70823 10.0134 6.42745 10.2185 6.22034C10.4235 6.01324 10.7013 5.89666 10.9914 5.89609C11.2604 5.89716 11.5195 5.99885 11.7189 6.18152C11.9183 6.36419 12.0438 6.61491 12.0711 6.88533L12.8461 21.4089C12.8616 21.7002 12.762 21.9857 12.5692 22.2025C12.3763 22.4194 12.1061 22.5499 11.8178 22.5653C11.5295 22.5806 11.2469 22.4797 11.032 22.2846C10.8172 22.0895 10.6878 21.8162 10.6722 21.5249L9.89731 7.00132ZM15.3476 6.16432C15.332 5.87303 15.4317 5.58754 15.6245 5.37069C15.8174 5.15383 16.0876 5.02337 16.3759 5.00798C16.6641 4.99261 16.9468 5.09357 17.1616 5.28867C17.3764 5.48378 17.5059 5.75704 17.5214 6.04834L18.3641 21.8427C18.3797 22.134 18.28 22.4195 18.0872 22.6364C17.8944 22.8532 17.624 22.9837 17.3358 22.9991C17.0475 23.0145 16.765 22.9135 16.5501 22.7184C16.3353 22.5233 16.2059 22.25 16.1903 21.9587L15.3476 6.16432ZM20.7662 6.42139C20.7506 6.13009 20.8502 5.84461 21.0431 5.62775C21.2359 5.4109 21.5062 5.28043 21.7944 5.26505C22.0827 5.24967 22.3653 5.35064 22.5801 5.54574C22.7949 5.74085 22.9244 6.01411 22.9399 6.3054L23.7149 20.829C23.7304 21.1203 23.6308 21.4058 23.438 21.6226C23.2451 21.8395 22.9748 21.9699 22.6865 21.9853C22.3983 22.0007 22.1157 21.8997 21.9009 21.7046C21.686 21.5096 21.5567 21.2363 21.5411 20.945L20.7662 6.42139ZM28.378 0.00721057L3.87381 1.31468C3.33969 1.33958 2.81579 1.47071 2.33211 1.70054C1.84843 1.93038 1.41447 2.25441 1.05509 2.6541C0.695694 3.05377 0.41793 3.52125 0.237695 4.02976C0.057462 4.53827 -0.0217017 5.07782 0.00473729 5.61751L1.31244 30.1261C1.34358 30.6655 1.47971 31.1936 1.71303 31.68C1.94635 32.1665 2.27228 32.6017 2.67217 32.9609C3.07204 33.32 3.53802 33.5961 4.04341 33.7731C4.5488 33.9502 5.08368 34.0249 5.61741 33.9927L30.1216 32.6853C30.655 32.6605 31.1782 32.5296 31.6613 32.3004C32.1444 32.0711 32.578 31.7479 32.9374 31.3493C33.2967 30.9505 33.5747 30.4842 33.7555 29.9767C33.9363 29.4692 34.0164 28.9305 33.9912 28.3915L32.683 3.8739C32.6519 3.33522 32.5161 2.80789 32.2834 2.32201C32.0506 1.83614 31.7255 1.40124 31.3266 1.04213C30.9277 0.683031 30.4628 0.406765 29.9584 0.229112C29.454 0.0514589 28.92 -0.0241084 28.387 0.00673094" fill="black"/>
</svg>
