<svg width="96" height="40" viewBox="0 0 96 40" fill="none" xmlns="http://www.w3.org/2000/svg">
<rect width="40" height="40" rx="20" fill="#F8F8F8"/>
<path fill-rule="evenodd" clip-rule="evenodd" d="M19.166 13.3332C15.9444 13.3332 13.3327 15.9448 13.3327 19.1665C13.3327 22.3882 15.9444 24.9998 19.166 24.9998C22.3877 24.9998 24.9993 22.3882 24.9993 19.1665C24.9993 15.9448 22.3877 13.3332 19.166 13.3332ZM11.666 19.1665C11.666 15.0244 15.0239 11.6665 19.166 11.6665C23.3081 11.6665 26.666 15.0244 26.666 19.1665C26.666 23.3086 23.3081 26.6665 19.166 26.6665C15.0239 26.6665 11.666 23.3086 11.666 19.1665Z" fill="#2D2D2D"/>
<path fill-rule="evenodd" clip-rule="evenodd" d="M23.2851 23.2856C23.6105 22.9601 24.1382 22.9601 24.4636 23.2856L28.0886 26.9106C28.414 27.236 28.414 27.7637 28.0886 28.0891C27.7632 28.4145 27.2355 28.4145 26.9101 28.0891L23.2851 24.4641C22.9597 24.1387 22.9597 23.611 23.2851 23.2856Z" fill="#2D2D2D"/>
<rect x="56" width="40" height="40" rx="20" fill="#F8F8F8"/>
<path fill-rule="evenodd" clip-rule="evenodd" d="M74.334 20.0002C74.334 19.0797 75.0802 18.3335 76.0007 18.3335C76.9211 18.3335 77.6673 19.0797 77.6673 20.0002C77.6673 20.9206 76.9211 21.6668 76.0007 21.6668C75.0802 21.6668 74.334 20.9206 74.334 20.0002Z" fill="#2D2D2D"/>
<path fill-rule="evenodd" clip-rule="evenodd" d="M74.334 14.1667C74.334 13.2462 75.0802 12.5 76.0007 12.5C76.9211 12.5 77.6673 13.2462 77.6673 14.1667C77.6673 15.0871 76.9211 15.8333 76.0007 15.8333C75.0802 15.8333 74.334 15.0871 74.334 14.1667Z" fill="#2D2D2D"/>
<path fill-rule="evenodd" clip-rule="evenodd" d="M74.334 25.8332C74.334 24.9127 75.0802 24.1665 76.0007 24.1665C76.9211 24.1665 77.6673 24.9127 77.6673 25.8332C77.6673 26.7536 76.9211 27.4998 76.0007 27.4998C75.0802 27.4998 74.334 26.7536 74.334 25.8332Z" fill="#2D2D2D"/>
</svg>
