<svg width="23" height="25" viewBox="0 0 23 25" fill="none" xmlns="http://www.w3.org/2000/svg">
<path d="M21.5625 11.9941C21.5625 8.40039 19.6309 5.12109 16.5312 3.32422C13.3867 1.48242 9.56836 1.48242 6.46875 3.32422C3.32422 5.12109 1.4375 8.40039 1.4375 11.9941C1.4375 15.6328 3.32422 18.9121 6.46875 20.709C9.56836 22.5508 13.3867 22.5508 16.5312 20.709C19.6309 18.9121 21.5625 15.6328 21.5625 11.9941ZM0 11.9941C0 7.90625 2.15625 4.13281 5.75 2.06641C9.29883 0 13.6562 0 17.25 2.06641C20.7988 4.13281 23 7.90625 23 11.9941C23 16.127 20.7988 19.9004 17.25 21.9668C13.6562 24.0332 9.29883 24.0332 5.75 21.9668C2.15625 19.9004 0 16.127 0 11.9941ZM7.54688 8.13086C7.86133 7.05273 8.84961 6.24414 9.97266 6.24414H12.5781C14.1504 6.24414 15.4531 7.54688 15.4531 9.16406C15.4531 10.2422 14.8242 11.2305 13.8809 11.7246L12.2188 12.5781V13.4316C12.2188 13.8359 11.8594 14.1504 11.5 14.1504C11.0957 14.1504 10.7812 13.8359 10.7812 13.4316V12.1289C10.7812 11.8594 10.916 11.5898 11.1406 11.5L13.207 10.4219C13.7012 10.1973 14.0156 9.70312 14.0156 9.16406C14.0156 8.35547 13.3418 7.68164 12.5781 7.68164H9.97266C9.52344 7.68164 9.07422 8.04102 8.93945 8.49023V8.53516C8.84961 8.89453 8.44531 9.16406 8.08594 9.0293C7.68164 8.93945 7.45703 8.53516 7.54688 8.17578V8.13086ZM10.4219 16.3066C10.4219 15.7227 10.8711 15.2285 11.5 15.2285C12.084 15.2285 12.5781 15.7227 12.5781 16.3066C12.5781 16.9355 12.084 17.3848 11.5 17.3848C10.8711 17.3848 10.4219 16.9355 10.4219 16.3066Z" fill="black"/>
</svg>
