<svg width="32" height="32" viewBox="0 0 32 32" fill="none" xmlns="http://www.w3.org/2000/svg">
<path fill-rule="evenodd" clip-rule="evenodd" d="M13.3335 16.0002C13.3335 14.5274 14.5274 13.3335 16.0002 13.3335C17.4729 13.3335 18.6668 14.5274 18.6668 16.0002C18.6668 17.4729 17.4729 18.6668 16.0002 18.6668C14.5274 18.6668 13.3335 17.4729 13.3335 16.0002Z" fill="#828FA2"/>
<path fill-rule="evenodd" clip-rule="evenodd" d="M22.6665 16.0002C22.6665 14.5274 23.8604 13.3335 25.3332 13.3335C26.8059 13.3335 27.9998 14.5274 27.9998 16.0002C27.9998 17.4729 26.8059 18.6668 25.3332 18.6668C23.8604 18.6668 22.6665 17.4729 22.6665 16.0002Z" fill="#828FA2"/>
<path fill-rule="evenodd" clip-rule="evenodd" d="M4 16.0002C4 14.5274 5.19391 13.3335 6.66667 13.3335C8.13943 13.3335 9.33333 14.5274 9.33333 16.0002C9.33333 17.4729 8.13943 18.6668 6.66667 18.6668C5.19391 18.6668 4 17.4729 4 16.0002Z" fill="#828FA2"/>
</svg>
