<svg width="20" height="20" viewBox="0 0 20 20" fill="none" xmlns="http://www.w3.org/2000/svg">
<path fill-rule="evenodd" clip-rule="evenodd" d="M3.3335 3.33317C3.11249 3.33317 2.90052 3.42096 2.74424 3.57724C2.58796 3.73352 2.50017 3.94549 2.50017 4.1665V15.8332C2.50017 16.0542 2.58796 16.2661 2.74424 16.4224C2.90052 16.5787 3.11249 16.6665 3.3335 16.6665H16.6668C16.8878 16.6665 17.0998 16.5787 17.2561 16.4224C17.4124 16.2661 17.5002 16.0542 17.5002 15.8332V6.6665C17.5002 6.44549 17.4124 6.23352 17.2561 6.07724C17.0998 5.92096 16.8878 5.83317 16.6668 5.83317H9.16683C8.8882 5.83317 8.62801 5.69392 8.47346 5.46208L7.05418 3.33317H3.3335ZM1.56573 2.39874C2.03457 1.9299 2.67046 1.6665 3.3335 1.6665H7.50017C7.77879 1.6665 8.03899 1.80575 8.19354 2.03759L9.61282 4.1665H16.6668C17.3299 4.1665 17.9658 4.42989 18.4346 4.89873C18.9034 5.36757 19.1668 6.00346 19.1668 6.6665V15.8332C19.1668 16.4962 18.9034 17.1321 18.4346 17.6009C17.9658 18.0698 17.3299 18.3332 16.6668 18.3332H3.3335C2.67046 18.3332 2.03457 18.0698 1.56573 17.6009C1.09689 17.1321 0.833496 16.4962 0.833496 15.8332V4.1665C0.833496 3.50346 1.09689 2.86757 1.56573 2.39874Z" fill="#828FA2"/>
</svg>
