<svg width="12" height="16" viewBox="0 0 12 16" fill="none" xmlns="http://www.w3.org/2000/svg">
<path d="M8 2.5C8 1.9375 8.3125 1.46875 8.75 1.1875C9.21875 0.90625 9.8125 0.90625 10.25 1.1875C10.7187 1.46875 11 1.9375 11 2.5C11 3.03125 10.7187 3.5 10.25 3.78125C9.8125 4.0625 9.21875 4.0625 8.75 3.78125C8.3125 3.5 8 3.03125 8 2.5ZM9 4.9375L9 15.5C9 15.75 9.25 16 9.5 16C9.78125 16 10 15.75 10 15.5L10 4.9375C11.1562 4.71875 12 3.6875 12 2.5C12 1.09375 10.9062 1.8968e-07 9.5 1.72911e-07C8.125 1.56514e-07 7 1.09375 7 2.5C7 3.6875 7.875 4.71875 9 4.9375ZM2.5 12C3.0625 12 3.53125 12.2813 3.8125 12.75C4.09375 13.1875 4.09375 13.7813 3.8125 14.25C3.53125 14.6875 3.0625 15 2.5 15C1.96875 15 1.5 14.6875 1.21875 14.25C0.9375 13.7813 0.9375 13.1875 1.21875 12.75C1.5 12.2813 1.96875 12 2.5 12ZM2 11.0313C0.875 11.2813 -1.46452e-07 12.2813 -1.60986e-07 13.5C-1.77383e-07 14.875 1.125 16 2.5 16C3.90625 16 5 14.875 5 13.5C5 12.2813 4.15625 11.2813 3 11.0313L3 0.5C3 0.21875 2.78125 9.27905e-08 2.5 8.94366e-08C2.25 8.64554e-08 2 0.21875 2 0.5L2 11.0313Z" fill="#585858"/>
</svg>
