<svg width="186" height="152" viewBox="0 0 186 152" fill="none" xmlns="http://www.w3.org/2000/svg">
<path d="M170.346 55.4907C178.991 55.4907 186 43.0687 186 27.7454C186 12.422 178.991 0 170.346 0C161.701 0 154.692 12.422 154.692 27.7454C154.692 43.0687 161.701 55.4907 170.346 55.4907Z" fill="#F79A45"/>
<path d="M165.075 50.5769C172.189 50.5769 177.956 40.3548 177.956 27.745C177.956 15.1353 172.189 4.91309 165.075 4.91309C157.961 4.91309 152.193 15.1353 152.193 27.745C152.193 40.3548 157.961 50.5769 165.075 50.5769Z" fill="#F8AD43"/>
<path opacity="0.55" d="M168.161 6.24235L154.613 43.6975C155.154 44.6786 155.744 45.5717 156.376 46.3659L170.263 7.97187C169.593 7.28397 168.89 6.7051 168.161 6.24235ZM171.672 9.64283L157.819 47.9426C159.571 49.5822 161.514 50.479 163.495 50.5624L175.389 17.681C174.513 14.5325 173.242 11.7825 171.672 9.64283ZM164.155 4.92773L152.262 37.8091C152.637 39.1603 153.087 40.4423 153.605 41.6364L166.682 5.48345C165.852 5.15099 165.006 4.96484 164.155 4.92773Z" fill="#F8D24A"/>
<path d="M163.154 47.564V42.8444C161.485 42.7976 159.758 41.9564 158.751 40.7882L159.442 37.6574C160.697 38.9697 162.128 39.6634 163.585 39.6666C165.628 39.6666 167.01 37.7507 167.01 35.0874C167.01 32.517 165.887 30.9284 163.758 29.5264C160.823 27.6574 159.01 25.5077 159.01 21.4423C159.01 17.5636 160.708 14.6197 163.355 13.9188V9.19922H165.139V13.732C166.442 13.7434 167.724 14.304 168.88 15.3674L168.161 18.4516C167.048 17.3835 165.8 16.8366 164.535 16.8627C162.319 16.8627 161.485 19.0125 161.485 20.8816C161.485 23.3114 162.549 24.5265 165.053 26.2086C168.017 28.1713 169.513 30.6014 169.513 34.7601C169.513 38.4519 167.93 41.9097 164.967 42.7041V47.564H163.154Z" fill="#FFE900"/>
<path d="M99.7837 51.3838H152.309C153.329 51.3838 154.307 52.1018 155.029 53.38C155.75 54.6581 156.155 56.3917 156.155 58.1993V129.914C156.155 131.721 155.75 133.455 155.029 134.733C154.307 136.011 153.329 136.729 152.309 136.729H99.7837C98.7639 136.729 97.7858 136.011 97.0647 134.733C96.3436 133.455 95.9385 131.722 95.9385 129.914V58.1993C95.9385 56.3917 96.3436 54.6581 97.0647 53.38C97.7858 52.1018 98.7639 51.3838 99.7837 51.3838Z" fill="#FF8B6A"/>
<path d="M124.213 51.3838H71.6262C70.6145 51.3838 69.6442 52.0961 68.9288 53.3641C68.2134 54.6321 67.8115 56.3519 67.8115 58.1451C67.8115 59.9383 68.2134 61.658 68.9288 62.926C69.6442 64.194 70.6145 64.9064 71.6262 64.9064H124.213C125.225 64.9064 126.195 64.194 126.911 62.926C127.626 61.658 128.028 59.9383 128.028 58.1451C128.028 56.3519 127.626 54.6321 126.911 53.3641C126.195 52.0961 125.225 51.3838 124.213 51.3838ZM128.028 107.809H102.766C101.481 107.809 100.248 106.904 99.3393 105.292C98.4303 103.681 97.9197 101.496 97.9196 99.2179C97.9196 96.9395 98.4303 94.7545 99.3393 93.1434C100.248 91.5324 101.481 90.6273 102.766 90.6273H128.028V107.809Z" fill="#5564D7"/>
<path d="M91.3562 99.2177C91.3562 100.018 91.2224 100.8 90.9716 101.465C90.7209 102.13 90.3644 102.649 89.9474 102.955C89.5304 103.261 89.0716 103.341 88.6289 103.185C88.1862 103.029 87.7796 102.644 87.4604 102.078C87.1413 101.512 86.9239 100.792 86.8358 100.007C86.7478 99.2222 86.793 98.4089 86.9657 97.6698C87.1384 96.9307 87.431 96.299 87.8062 95.8545C88.1815 95.4101 88.6228 95.1728 89.0741 95.1729C89.6794 95.1729 90.2598 95.599 90.6878 96.3576C91.1158 97.1161 91.3562 98.145 91.3562 99.2177Z" fill="#FF8B6A"/>
<path d="M91.7967 59.802L102.554 40.7339L83.9624 7.78027L56.0537 59.802H91.7967Z" fill="#FF8B6A"/>
<path d="M105.197 34.3139L88.5711 4.8457L59.5986 56.1982H92.8502L105.197 34.3139Z" fill="#E6F1FF"/>
<path d="M88.5711 9.23633L62.0762 56.1975H64.5539L85.2539 19.5075C86.2052 20.9861 87.4118 21.8478 88.6756 21.9514C89.9395 22.055 91.1857 21.3944 92.21 20.0778L96.6027 27.8637C95.8599 29.679 95.4872 31.8879 95.5456 34.128C95.604 36.3682 96.0902 38.5067 96.9243 40.1928L87.8947 56.1975H90.3724L102.719 34.3132L88.5711 9.23633ZM74.8061 42.8752C73.8384 44.5918 73.2116 46.8193 73.02 49.222C72.8285 51.6248 73.0826 54.0728 73.744 56.1975H84.8027C85.5382 53.8358 85.7677 51.0828 85.4491 48.4449C85.1306 45.8071 84.2853 43.4619 83.0688 41.8408C81.8524 40.2196 80.3466 39.4316 78.8284 39.6217C77.3103 39.8117 75.8819 40.9671 74.8061 42.8752Z" fill="#7EA8C4"/>
<path d="M101.119 59.8019L110.417 43.3223L93.7908 13.8535L67.8672 59.8019H101.119Z" fill="#E6F1FF"/>
<path d="M93.7906 18.2451L70.3447 59.802H72.8224L90.4735 28.5162C91.4248 29.9948 92.6313 30.8565 93.8952 30.9602C95.1591 31.0638 96.4053 30.4032 97.4296 29.0866L101.822 36.8724C101.08 38.6878 100.707 40.8966 100.765 43.1368C100.824 45.3769 101.31 47.5154 102.144 49.2016L96.1633 59.802H98.641L107.939 43.322L93.7906 18.2451ZM80.0256 51.8839C79.4387 52.9228 78.9737 54.1573 78.6574 55.5163C78.341 56.8753 78.1797 58.3319 78.1825 59.802H90.8034C90.8055 57.5872 90.4365 55.4211 89.7432 53.5784C89.0499 51.7357 88.0636 50.2992 86.9093 49.4512C85.7549 48.6031 84.4845 48.3816 83.259 48.8146C82.0335 49.2477 80.9082 50.316 80.0256 51.8839Z" fill="#7EA8C4"/>
<path d="M102.882 39.2793H53.0713V59.8022H102.882V39.2793Z" fill="#E6F1FF"/>
<path d="M53.332 42.3838V59.8012H55.0841V54.6106C56.3336 54.2579 57.4783 53.1631 58.3307 51.5057C59.1831 49.8484 59.6924 47.7269 59.7753 45.4891H93.1954C93.2781 47.7269 93.7875 49.8484 94.6399 51.5057C95.4923 53.1631 96.637 54.2579 97.8865 54.6106V59.8012H99.6385V42.3838H53.332ZM76.4853 48.9181C74.8413 48.9192 73.2624 50.0569 72.0842 52.0892C70.9061 54.1216 70.2217 56.8884 70.1765 59.8012H82.7941C82.7489 56.8884 82.0645 54.1216 80.8864 52.0893C79.7083 50.0569 78.1293 48.9192 76.4853 48.9181Z" fill="#8DBAD3"/>
<path d="M59.0166 142.775H29.7744V152H59.0166V142.775Z" fill="#F79A45"/>
<path d="M45.3728 142.775H28.3066V152H45.3728V142.775Z" fill="#F8AD43"/>
<path d="M41.646 142.775H38.9121V152H41.646V142.775Z" fill="#F8D24A"/>
<g style="mix-blend-mode:multiply" opacity="0.5">
<path d="M46.6338 150.624H17.3916V152H46.6338V150.624Z" fill="#F79A45"/>
</g>
<path d="M39.0557 133.551H9.81348V142.775H39.0557V133.551Z" fill="#F79A45"/>
<path d="M33.2702 133.551H16.2041V142.775H33.2702V133.551Z" fill="#F8AD43"/>
<path d="M30.2778 133.551H27.5439V142.775H30.2778V133.551Z" fill="#F8D24A"/>
<g style="mix-blend-mode:multiply" opacity="0.5">
<path d="M35.2666 141.4H6.02441V142.776H35.2666V141.4Z" fill="#F79A45"/>
</g>
<path d="M35.4932 124.328H6.25098V133.552H35.4932V124.328Z" fill="#F79A45"/>
<path d="M33.4969 124.328H16.4307V133.552H33.4969V124.328Z" fill="#F8AD43"/>
<path d="M30.5054 124.328H27.7715V133.552H30.5054V124.328Z" fill="#F8D24A"/>
<g style="mix-blend-mode:multiply" opacity="0.5">
<path d="M35.4932 132.176H6.25098V133.551H35.4932V132.176Z" fill="#F79A45"/>
</g>
<path d="M31.25 115.104H2.00781V124.328H31.25V115.104Z" fill="#F79A45"/>
<path d="M27.2458 115.104H10.1797V124.328H27.2458V115.104Z" fill="#F8AD43"/>
<path d="M24.2544 115.104H21.5205V124.328H24.2544V115.104Z" fill="#F8D24A"/>
<g style="mix-blend-mode:multiply" opacity="0.5">
<path d="M29.2422 122.952H0V124.328H29.2422V122.952Z" fill="#F79A45"/>
</g>
<path d="M30.3594 105.879H1.11719V115.103H30.3594V105.879Z" fill="#F79A45"/>
<path d="M28.364 105.879H11.2979V115.103H28.364V105.879Z" fill="#F8AD43"/>
<path d="M25.3716 105.879H22.6377V115.103H25.3716V105.879Z" fill="#F8D24A"/>
<g style="mix-blend-mode:multiply" opacity="0.5">
<path d="M30.3594 113.729H1.11719V115.104H30.3594V113.729Z" fill="#F79A45"/>
</g>
<path d="M32.4815 96.6553H3.23926V105.879H32.4815V96.6553Z" fill="#F79A45"/>
<path d="M30.4851 96.6553H13.4189V105.879H30.4851V96.6553Z" fill="#F8AD43"/>
<path d="M27.4927 96.6553H24.7588V105.879H27.4927V96.6553Z" fill="#F8D24A"/>
<g style="mix-blend-mode:multiply" opacity="0.5">
<path d="M32.4815 104.504H3.23926V105.88H32.4815V104.504Z" fill="#F79A45"/>
</g>
</svg>
