<svg width="165" height="36" viewBox="0 0 165 36" fill="none" xmlns="http://www.w3.org/2000/svg">
<path d="M51.1735 10.8315C55.1177 10.8315 58.326 13.9571 58.326 17.7998C58.326 21.6425 55.1177 24.7681 51.1735 24.7681H46.2688V10.8315H51.1735ZM51.1735 6.84232H44.4246C43.1951 6.84232 42.1741 7.83448 42.1741 9.03485V26.5674C42.1741 27.7651 43.1925 28.7599 44.4246 28.7599H51.1735C57.3946 28.7599 62.4207 23.8633 62.4207 17.8024C62.4207 11.7414 57.3946 6.84232 51.1735 6.84232Z" fill="black"/>
<path d="M82.1683 26.7678C82.1683 27.8576 81.2423 28.7598 80.1237 28.7598C79.0049 28.7598 78.0789 27.8576 78.0789 26.7678V20.7917C78.0789 18.5812 76.2584 16.8076 73.9895 16.8076C71.7205 16.8076 69.9001 18.5812 69.9001 20.7917V26.7678C69.9001 27.8576 68.974 28.7598 67.8554 28.7598C66.7367 28.7598 65.8106 27.8576 65.8106 26.7678V8.83693C65.8106 7.74709 66.7367 6.84489 67.8554 6.84489C68.974 6.84489 69.9001 7.74709 69.9001 8.83693V13.9108C71.082 13.2271 72.4883 12.821 73.9895 12.821C78.4932 12.821 82.1683 16.4015 82.1683 20.7892V26.7678Z" fill="black"/>
<path d="M90.2208 26.7677C90.2208 27.8575 89.2948 28.7597 88.1761 28.7597C87.0575 28.7597 86.1314 27.8575 86.1314 26.7677V14.8155C86.1314 13.7256 87.0575 12.8234 88.1761 12.8234C89.2948 12.8234 90.2208 13.7256 90.2208 14.8155V26.7677Z" fill="black"/>
<path d="M117.187 26.7678C117.187 27.8576 116.261 28.7598 115.142 28.7598C114.599 28.7598 114.087 28.5414 113.704 28.1687L105.94 20.6041L98.1779 28.1687C97.7953 28.5414 97.2835 28.7598 96.74 28.7598C95.6213 28.7598 94.6953 27.8576 94.6953 26.7678V8.83693C94.6953 7.74709 95.6213 6.84489 96.74 6.84489C97.8586 6.84489 98.7847 7.74709 98.7847 8.83693V21.9741L104.505 16.4015C104.887 15.998 105.431 15.8103 105.942 15.8103C106.454 15.8103 106.998 15.998 107.38 16.4015L113.1 21.9741V8.83693C113.1 7.74709 114.026 6.84489 115.145 6.84489C116.264 6.84489 117.19 7.74709 117.19 8.83693V26.7678H117.187Z" fill="black"/>
<path d="M125.751 26.7677C125.751 27.8575 124.825 28.7597 123.706 28.7597C122.587 28.7597 121.661 27.8575 121.661 26.7677V14.8155C121.661 13.7256 122.587 12.8234 123.706 12.8234C124.825 12.8234 125.751 13.7256 125.751 14.8155V26.7677Z" fill="black"/>
<path d="M138.916 24.7756C139.492 24.7756 139.938 24.3413 139.938 23.7784C139.938 23.2154 139.492 22.781 138.916 22.781H134.827C132.015 22.781 129.714 20.5397 129.714 17.7997C129.714 15.0597 132.015 12.8183 134.827 12.8183H140.961C142.08 12.8183 143.006 13.7205 143.006 14.8103C143.006 15.9002 142.08 16.8024 140.961 16.8024H134.827C134.252 16.8024 133.803 17.2368 133.803 17.7997C133.803 18.3626 134.249 18.797 134.827 18.797H138.916C141.729 18.797 144.027 21.0383 144.027 23.7784C144.027 26.5183 141.726 28.7597 138.916 28.7597H131.759C130.64 28.7597 129.714 27.8575 129.714 26.7677C129.714 25.6778 130.64 24.7756 131.759 24.7756H138.916Z" fill="black"/>
<path d="M155.148 28.7597C150.641 28.7597 146.969 25.1792 146.969 20.7916C146.969 16.404 150.641 12.8234 155.148 12.8234C159.651 12.8234 163.326 16.404 163.326 20.7916C163.326 21.8814 162.4 22.7836 161.282 22.7836H151.599C152.303 23.9968 153.612 24.7756 155.145 24.7756H157.19C158.308 24.7756 159.234 25.6779 159.234 26.7677C159.234 27.8575 158.308 28.7597 157.19 28.7597H155.148ZM151.599 18.797H158.691C157.989 17.6146 156.646 16.8049 155.145 16.8049C153.612 16.8049 152.303 17.6146 151.599 18.797Z" fill="black"/>
<path d="M88.176 11.3276C89.4466 11.3276 90.4766 10.3241 90.4766 9.08625C90.4766 7.84838 89.4466 6.84489 88.176 6.84489C86.9054 6.84489 85.8754 7.84838 85.8754 9.08625C85.8754 10.3241 86.9054 11.3276 88.176 11.3276Z" fill="url(#paint0_linear_33_731)"/>
<path d="M123.706 11.3276C124.977 11.3276 126.007 10.3241 126.007 9.08625C126.007 7.84838 124.977 6.84489 123.706 6.84489C122.436 6.84489 121.406 7.84838 121.406 9.08625C121.406 10.3241 122.436 11.3276 123.706 11.3276Z" fill="url(#paint1_linear_33_731)"/>
<path d="M25.4811 0H2.34548C1.05005 0 0 1.02301 0 2.28506V27.1868C0 28.1121 0.572518 28.9449 1.44845 29.297C2.32173 29.6492 3.33222 29.4539 4.005 28.8009L15.2997 17.7973C16.2152 16.9053 16.2152 15.4582 15.2997 14.5663C14.3842 13.6743 12.8988 13.6743 11.9834 14.5663L4.69096 21.6708V4.57012H25.4837C28.9953 4.57012 31.8499 7.35383 31.8499 10.7724V24.8246C31.8499 28.2458 28.9926 31.0269 25.4837 31.0269H14.2971L21.5895 23.9224C22.505 23.0305 22.505 21.5834 21.5895 20.6914C20.674 19.7996 19.1886 19.7996 18.2731 20.6914L6.97576 31.6978C6.30562 32.3507 6.10511 33.3351 6.46656 34.1884C6.83065 35.0418 7.68547 35.5996 8.63264 35.5996H25.4785C31.5756 35.5996 36.5357 30.7673 36.5357 24.8272V10.775C36.5409 4.83486 31.5809 0 25.4811 0Z" fill="url(#paint2_linear_33_731)"/>
<path d="M25.3833 19.2829C26.6787 19.2829 27.7288 18.2599 27.7288 16.9979V10.8701C27.7288 9.60807 26.6787 8.58506 25.3833 8.58506H19.0935C17.798 8.58506 16.748 9.60807 16.748 10.8701C16.748 12.1322 17.798 13.1552 19.0935 13.1552H23.0378V16.9979C23.0378 18.2599 24.0878 19.2829 25.3833 19.2829Z" fill="url(#paint3_linear_33_731)"/>
<defs>
<linearGradient id="paint0_linear_33_731" x1="85.8754" y1="9.08625" x2="90.4766" y2="9.08625" gradientUnits="userSpaceOnUse">
<stop stop-color="#0068FF"/>
<stop offset="1" stop-color="#0000E1"/>
</linearGradient>
<linearGradient id="paint1_linear_33_731" x1="121.406" y1="9.08625" x2="126.007" y2="9.08625" gradientUnits="userSpaceOnUse">
<stop stop-color="#FF9852"/>
<stop offset="0.2774" stop-color="#FF8A3A"/>
<stop offset="1" stop-color="#FF6700"/>
</linearGradient>
<linearGradient id="paint2_linear_33_731" x1="12.9164" y1="12.5873" x2="38.0826" y2="-13.2369" gradientUnits="userSpaceOnUse">
<stop stop-color="#0068FF"/>
<stop offset="1" stop-color="#0000E1"/>
</linearGradient>
<linearGradient id="paint3_linear_33_731" x1="20.6303" y1="12.3673" x2="28.1922" y2="4.6054" gradientUnits="userSpaceOnUse">
<stop stop-color="#FF9852"/>
<stop offset="0.2774" stop-color="#FF8A3A"/>
<stop offset="1" stop-color="#FF6700"/>
</linearGradient>
</defs>
</svg>
