<svg width="48" height="48" viewBox="0 0 48 48" fill="none" xmlns="http://www.w3.org/2000/svg">
<path d="M47.5005 24C47.5005 30.5791 46.4125 36.5121 44.672 40.7818C43.8012 42.9179 42.7769 44.6134 41.6652 45.767C40.5548 46.9191 39.3896 47.5 38.217 47.5C37.0444 47.5 35.8793 46.9191 34.7689 45.767C33.6571 44.6134 32.6329 42.9179 31.7621 40.7818C30.0216 36.5121 28.9336 30.5791 28.9336 24C28.9336 17.4209 30.0216 11.4879 31.7621 7.21818C32.6329 5.08207 33.6571 3.38656 34.7689 2.23301C35.8793 1.08087 37.0444 0.5 38.217 0.5C39.3896 0.5 40.5548 1.08087 41.6652 2.23301C42.7769 3.38656 43.8012 5.08207 44.672 7.21818C46.4125 11.4879 47.5005 17.4209 47.5005 24Z" stroke="#E2E8ED"/>
<g clip-path="url(#clip0_24_1036)">
<path d="M5.43566 33.167C5.23184 33.167 5.09597 32.8336 5.09597 32.3336V29.0836C5.12993 28.417 5.02802 27.917 4.85819 27.5003C4.75628 27.2503 4.72229 26.917 4.79024 26.667C4.8242 26.3336 4.96011 26.167 5.06202 26.0836C6.04713 25.8336 6.96432 25.0003 6.96432 21.0836C6.96432 20.1669 6.82846 19.2503 6.55668 18.5003C6.45477 18.2503 6.45477 17.9169 6.48877 17.6669C6.59068 17.0003 6.59068 16.3336 6.52272 15.6669C6.35286 15.7503 6.08112 16.0003 5.63948 16.7503C5.57157 16.9169 5.46966 16.9169 5.36775 16.8336C4.65437 16.3336 3.87304 16.3336 3.15967 16.8336C3.05776 16.9169 2.95585 16.9169 2.85393 16.7503C2.44629 16.0003 2.14056 15.7503 1.97071 15.6669C1.90276 16.3336 1.90276 17.0003 2.00467 17.6669C2.03865 18.0003 2.03865 18.3336 1.93674 18.5003C1.66497 19.2503 1.52909 20.1669 1.52909 21.0836C1.52909 25.0003 2.44629 25.8336 3.43143 26.0836C3.56731 26.0836 3.66922 26.3336 3.70319 26.667C3.73716 27.0003 3.70319 27.3336 3.63525 27.5003C3.4654 27.917 3.39746 28.417 3.39746 29.0003V29.7503V29.8336V32.2503C3.39746 32.7503 3.26158 33.0836 3.05776 33.0836C2.85393 33.0836 2.71805 32.7503 2.71805 32.2503V30.8336C1.69894 31.2503 1.25733 29.8336 0.951598 28.917C0.815718 28.5003 0.713806 28.167 0.577924 28.0836C0.408073 28.0003 0.272192 27.5003 0.340133 27.0836C0.374103 26.667 0.577924 26.3336 0.747776 26.5003C1.08748 26.7503 1.2913 27.3336 1.49512 27.917C1.76688 28.8336 2.00467 29.5003 2.71805 29.167V29.0836C2.71805 28.5836 2.75202 28.0003 2.81996 27.5836C1.8688 27.0836 0.849687 25.5836 0.849687 21.1669C0.849687 19.9169 1.01954 18.7503 1.32527 17.8336C1.18939 16.6669 1.22336 15.5836 1.42718 14.5003C1.46115 14.2503 1.52909 14.0836 1.631 14.0003C1.76688 13.9169 2.2085 13.7503 3.12569 15.1669C3.87304 14.7503 4.65437 14.7503 5.36775 15.1669C6.25095 13.7503 6.72655 13.9169 6.86241 14.0003C6.96432 14.0836 7.03228 14.2503 7.06624 14.5003C7.2361 15.5836 7.27006 16.6669 7.16815 17.7503C7.47388 18.6669 7.64374 19.8336 7.64374 21.0836C7.64374 25.8336 6.48877 27.0836 5.67348 27.5836C5.74139 28.0836 5.77539 28.667 5.77539 29.167V32.3336C5.77539 32.8336 5.63948 33.167 5.43566 33.167Z" fill="#2D2D2D"/>
</g>
<defs>
<clipPath id="clip0_24_1036">
<rect width="8.15287" height="20" fill="white" transform="translate(0 14)"/>
</clipPath>
</defs>
</svg>
