<svg width="18" height="18" viewBox="0 0 18 18" fill="none" xmlns="http://www.w3.org/2000/svg">
<path d="M9.13735 3.89756C10.406 3.89674 11.6341 4.3642 12.6038 5.21708L15.3202 2.52001C14.2774 1.51752 13.0249 0.782235 11.6621 0.372507C10.2993 -0.0372215 8.86358 -0.110116 7.46901 0.159609C6.07443 0.429334 4.75935 1.03425 3.62812 1.92636C2.4969 2.81847 1.58067 3.9732 0.952148 5.29893L4.01448 7.75998C4.37163 6.63711 5.05856 5.65985 5.97799 4.96664C6.89741 4.27343 8.00272 3.89941 9.13735 3.89756Z" fill="#E04343"/>
<path d="M3.7381 8.46786C3.73886 7.86711 3.83226 7.2704 4.01472 6.70056L0.952382 4.2395C0.325981 5.55335 0 7.00063 0 8.46786C0 9.93508 0.325981 11.3824 0.952382 12.6962L4.01472 10.2352C3.83226 9.66533 3.73886 9.06861 3.7381 8.46786Z" fill="#FFC95F"/>
<path d="M17.9013 6.73657H9.17908V10.6341H14.1217C13.8277 11.7361 13.154 12.6863 12.2298 13.3026L15.2684 15.745C17.2102 13.9279 18.3511 10.9732 17.9013 6.73657Z" fill="#5564D7"/>
<path d="M12.2283 13.303C11.2893 13.8635 10.2187 14.1391 9.13735 14.099C8.00272 14.0971 6.89741 13.7231 5.97799 13.0299C5.05856 12.3367 4.37163 11.3595 4.01448 10.2366L0.952148 12.6976C1.70855 14.2874 2.87538 15.6256 4.3214 16.5617C5.76742 17.4979 7.43527 17.9947 9.13735 17.9965C11.3771 18.0599 13.5601 17.2579 15.267 15.7446L12.2283 13.303Z" fill="#FF8B6A"/>
</svg>
