<svg width="20" height="20" viewBox="0 0 20 20" fill="none" xmlns="http://www.w3.org/2000/svg">
<path d="M2.35475 10.0001L1.75586 9.66445C1.63696 9.87273 1.63696 10.1275 1.75586 10.3358L2.35475 10.0001ZM17.6451 10.0001L18.244 10.3358C18.3629 10.1275 18.3629 9.87273 18.244 9.66445L17.6451 10.0001ZM2.35475 10.0001C2.95364 10.3358 2.95355 10.336 2.95347 10.3361C2.95345 10.3362 2.95338 10.3363 2.95336 10.3363C2.95331 10.3364 2.9533 10.3364 2.95335 10.3363C2.95343 10.3362 2.9537 10.3357 2.95415 10.335C2.95505 10.3334 2.95668 10.3306 2.95903 10.3266C2.96374 10.3185 2.97135 10.3056 2.9818 10.2881C3.00271 10.2533 3.03499 10.2003 3.07826 10.1318C3.16485 9.99483 3.29513 9.79628 3.46606 9.55672C3.80879 9.0764 4.31046 8.43761 4.94617 7.80123C6.2356 6.51048 7.97961 5.32482 9.99992 5.32482V3.96118C7.43313 3.96118 5.35456 5.45408 3.96817 6.84191C3.26598 7.54482 2.71644 8.24531 2.34244 8.76945C2.155 9.03212 2.01054 9.2521 1.91197 9.40806C1.86265 9.48609 1.82475 9.54821 1.79863 9.59179C1.78556 9.6136 1.77544 9.63077 1.7683 9.64298C1.76473 9.64909 1.7619 9.65396 1.75983 9.65755C1.75879 9.65934 1.75794 9.66082 1.75728 9.66197C1.75695 9.66255 1.75666 9.66304 1.75643 9.66346C1.75631 9.66366 1.75617 9.66391 1.75611 9.66401C1.75598 9.66424 1.75586 9.66445 2.35475 10.0001ZM9.99992 5.32482C12.0202 5.32482 13.7643 6.51048 15.0537 7.80123C15.6894 8.43761 16.191 9.0764 16.5338 9.55672C16.7047 9.79628 16.835 9.99483 16.9216 10.1318C16.9649 10.2003 16.9972 10.2533 17.0181 10.2881C17.0285 10.3056 17.0361 10.3185 17.0408 10.3266C17.0432 10.3306 17.0448 10.3334 17.0457 10.335C17.0461 10.3357 17.0464 10.3362 17.0465 10.3363C17.0465 10.3364 17.0465 10.3364 17.0465 10.3363C17.0465 10.3363 17.0464 10.3362 17.0464 10.3361C17.0463 10.336 17.0462 10.3358 17.6451 10.0001C18.244 9.66445 18.2438 9.66424 18.2437 9.66401C18.2437 9.66391 18.2436 9.66366 18.2434 9.66346C18.2432 9.66304 18.2429 9.66255 18.2425 9.66197C18.2419 9.66082 18.2411 9.65934 18.24 9.65755C18.238 9.65396 18.2351 9.64909 18.2315 9.64298C18.2244 9.63077 18.2143 9.6136 18.2013 9.59179C18.1751 9.54821 18.1372 9.48609 18.0879 9.40806C17.9893 9.2521 17.8448 9.03212 17.6574 8.76945C17.2834 8.24531 16.7339 7.54482 16.0317 6.84191C14.6453 5.45408 12.5667 3.96118 9.99992 3.96118V5.32482ZM17.6451 10.0001C17.0462 9.66445 17.0463 9.66428 17.0464 9.66413C17.0464 9.66411 17.0465 9.66399 17.0465 9.66394C17.0465 9.66386 17.0465 9.66385 17.0465 9.66392C17.0464 9.66407 17.0461 9.66453 17.0457 9.66531C17.0448 9.66688 17.0432 9.66969 17.0408 9.67371C17.0361 9.68177 17.0285 9.69469 17.0181 9.71212C16.9972 9.74701 16.9649 9.79998 16.9216 9.86844C16.835 10.0054 16.7047 10.204 16.5338 10.4436C16.191 10.9239 15.6894 11.5627 15.0537 12.199C13.7643 13.4898 12.0202 14.6754 9.99992 14.6754V16.0391C12.5667 16.0391 14.6453 14.5462 16.0317 13.1584C16.7339 12.4555 17.2834 11.755 17.6574 11.2308C17.8448 10.9681 17.9893 10.7482 18.0879 10.5922C18.1372 10.5142 18.1751 10.4521 18.2013 10.4085C18.2143 10.3867 18.2244 10.3695 18.2315 10.3573C18.2351 10.3512 18.238 10.3463 18.24 10.3427C18.2411 10.3409 18.2419 10.3394 18.2425 10.3383C18.2429 10.3377 18.2432 10.3372 18.2434 10.3368C18.2436 10.3366 18.2437 10.3364 18.2437 10.3363C18.2438 10.336 18.244 10.3358 17.6451 10.0001ZM9.99992 14.6754C7.97961 14.6754 6.2356 13.4898 4.94617 12.199C4.31046 11.5627 3.80879 10.9239 3.46606 10.4436C3.29513 10.204 3.16485 10.0054 3.07826 9.86844C3.03499 9.79998 3.00271 9.74701 2.9818 9.71212C2.97135 9.69469 2.96374 9.68177 2.95903 9.67371C2.95668 9.66969 2.95505 9.66688 2.95415 9.66531C2.9537 9.66453 2.95343 9.66407 2.95335 9.66392C2.9533 9.66385 2.95331 9.66386 2.95336 9.66394C2.95338 9.66399 2.95345 9.66411 2.95347 9.66413C2.95355 9.66428 2.95364 9.66445 2.35475 10.0001C1.75586 10.3358 1.75598 10.336 1.75611 10.3363C1.75617 10.3364 1.75631 10.3366 1.75643 10.3368C1.75666 10.3372 1.75695 10.3377 1.75728 10.3383C1.75794 10.3394 1.75879 10.3409 1.75983 10.3427C1.7619 10.3463 1.76473 10.3512 1.7683 10.3573C1.77544 10.3695 1.78556 10.3867 1.79863 10.4085C1.82475 10.4521 1.86265 10.5142 1.91197 10.5922C2.01054 10.7482 2.155 10.9681 2.34244 11.2308C2.71644 11.755 3.26598 12.4555 3.96817 13.1584C5.35456 14.5462 7.43313 16.0391 9.99992 16.0391V14.6754Z" fill="#828FA2"/>
<path d="M6.25421 9.99989C6.25421 10.3764 6.56227 10.6817 6.94228 10.6817C7.32229 10.6817 7.63034 10.3764 7.63034 9.99989H6.25421ZM10.0003 7.75963C10.3804 7.75963 10.6884 7.45437 10.6884 7.07781C10.6884 6.70126 10.3804 6.396 10.0003 6.396V7.75963ZM7.63034 9.99989C7.63034 8.78565 8.66748 7.75963 10.0003 7.75963V6.396C7.95506 6.396 6.25421 7.98621 6.25421 9.99989H7.63034Z" fill="#828FA2"/>
<path d="M13.7462 9.99993C13.7462 9.62337 13.4382 9.31812 13.0581 9.31812C12.6781 9.31812 12.3701 9.62337 12.3701 9.99993H13.7462ZM10.0001 12.2402C9.62007 12.2402 9.31201 12.5454 9.31201 12.922C9.31201 13.2986 9.62007 13.6038 10.0001 13.6038V12.2402ZM12.3701 9.99993C12.3701 11.2142 11.3329 12.2402 10.0001 12.2402V13.6038C12.0454 13.6038 13.7462 12.0136 13.7462 9.99993H12.3701Z" fill="#828FA2"/>
<path d="M2.38691 16.3274C2.11336 16.5887 2.10544 17.0204 2.36922 17.2914C2.633 17.5625 3.06858 17.5704 3.34213 17.309L2.38691 16.3274ZM17.6132 3.67262C17.8866 3.41124 17.8946 2.97961 17.6308 2.70854C17.367 2.43748 16.9314 2.42963 16.6579 2.69102L17.6132 3.67262ZM3.34213 17.309L17.6132 3.67262L16.6579 2.69102L2.38691 16.3274L3.34213 17.309Z" fill="#828FA2"/>
</svg>
