<svg width="20" height="20" viewBox="0 0 20 20" fill="none" xmlns="http://www.w3.org/2000/svg">
<path fill-rule="evenodd" clip-rule="evenodd" d="M8.92242 3.08861C9.24786 2.76317 9.24786 2.23553 8.92242 1.91009C8.59699 1.58466 8.06935 1.58466 7.74391 1.91009L4.65466 4.99935H4.1665C2.78579 4.99935 1.6665 6.11864 1.6665 7.49935C1.6665 8.33137 2.07295 9.06845 2.69812 9.52289L3.70217 15.5472C3.97005 17.1545 5.36068 18.3325 6.99015 18.3325H13.0093C14.6388 18.3325 16.0294 17.1545 16.2973 15.5472L17.3013 9.5231C17.9266 9.06868 18.3332 8.33149 18.3332 7.49935C18.3332 6.11864 17.2139 4.99935 15.8332 4.99935H15.345L12.2558 1.91009C11.9303 1.58466 11.4027 1.58466 11.0772 1.91009C10.7518 2.23553 10.7518 2.76317 11.0772 3.08861L12.988 4.99935H7.01168L8.92242 3.08861ZM15.8497 8.33252C16.3023 8.32375 16.6665 7.95409 16.6665 7.49935C16.6665 7.03911 16.2934 6.66602 15.8332 6.66602H4.1665C3.70626 6.66602 3.33317 7.03911 3.33317 7.49935C3.33317 7.95409 3.6974 8.32375 4.15005 8.33252H15.8497ZM7.49976 12.4992C7.49976 12.0389 7.87285 11.6659 8.33309 11.6659C8.79333 11.6659 9.16643 12.0389 9.16643 12.4992V14.1659C9.16643 14.6261 8.79333 14.9992 8.33309 14.9992C7.87285 14.9992 7.49976 14.6261 7.49976 14.1659V12.4992ZM10.8331 12.4992C10.8331 12.0389 11.2062 11.6659 11.6664 11.6659C12.1267 11.6659 12.4998 12.0389 12.4998 12.4992V14.1659C12.4998 14.6261 12.1267 14.9992 11.6664 14.9992C11.2062 14.9992 10.8331 14.6261 10.8331 14.1659V12.4992Z" fill="#D9D9D9"/>
</svg>
