<svg width="25" height="23" viewBox="0 0 25 23" fill="none" xmlns="http://www.w3.org/2000/svg">
<path d="M12.9534 0.215889L24.6978 10.5786C25 10.8377 25 11.2694 24.7841 11.5717C24.525 11.8739 24.0933 11.8739 23.791 11.6149L22.1934 10.19V18.696C22.1934 20.639 20.639 22.1503 18.7392 22.1503H6.30397C4.36097 22.1503 2.84974 20.639 2.84974 18.696V10.19L1.20898 11.6149C0.949914 11.8739 0.474957 11.8739 0.259067 11.5717C0 11.2694 0 10.8377 0.302245 10.5786L12.0466 0.215889C12.3057 0 12.6943 0 12.9534 0.215889ZM4.23143 18.696C4.23143 19.8618 5.13817 20.7686 6.30397 20.7686H9.06736V13.8601C9.06736 13.1261 9.67185 12.4784 10.4491 12.4784H14.5941C15.3282 12.4784 15.9758 13.1261 15.9758 13.8601V20.7686H18.7392C19.8618 20.7686 20.8117 19.8618 20.8117 18.696V8.981L12.5216 1.68394L4.23143 8.981V18.696ZM10.4491 20.7686H14.5941V13.8601H10.4491V20.7686Z" fill="black"/>
</svg>
