<svg width="32" height="32" viewBox="0 0 32 32" fill="none" xmlns="http://www.w3.org/2000/svg">
<path d="M16 2.66663C13.363 2.66663 10.785 3.44861 8.5924 4.9137C6.39974 6.37879 4.69077 8.46117 3.68161 10.8975C2.67243 13.3338 2.40839 16.0147 2.92286 18.6011C3.43733 21.1876 4.70721 23.5633 6.57191 25.428C8.43661 27.2927 10.8124 28.5626 13.3988 29.0771C15.9852 29.5915 18.6661 29.3275 21.1025 28.3183C23.5388 27.3092 25.6212 25.6002 27.0863 23.4075C28.5514 21.2149 29.3334 18.637 29.3334 15.9999C29.3334 14.249 28.9885 12.5152 28.3184 10.8975C27.6484 9.27984 26.6662 7.80999 25.4281 6.57187C24.19 5.33376 22.7202 4.35163 21.1025 3.68157C19.4848 3.0115 17.751 2.66663 16 2.66663ZM16 26.6666C13.8904 26.6666 11.828 26.041 10.0739 24.8689C8.31979 23.6969 6.95262 22.031 6.14528 20.0819C5.33795 18.1328 5.12671 15.9881 5.53829 13.919C5.94987 11.8499 6.96577 9.94925 8.45753 8.45749C9.94929 6.96573 11.8499 5.94983 13.9191 5.53825C15.9882 5.12668 18.1329 5.33791 20.082 6.14525C22.0311 6.95258 23.697 8.31976 24.869 10.0739C26.0411 11.828 26.6667 13.8903 26.6667 15.9999C26.6667 18.8289 25.5429 21.542 23.5425 23.5424C21.5421 25.5428 18.829 26.6666 16 26.6666ZM21.3334 14.6666H10.6667C10.313 14.6666 9.97391 14.8071 9.72386 15.0571C9.47381 15.3072 9.33333 15.6463 9.33333 15.9999C9.33333 16.3536 9.47381 16.6927 9.72386 16.9427C9.97391 17.1928 10.313 17.3333 10.6667 17.3333H21.3334C21.687 17.3333 22.0261 17.1928 22.2762 16.9427C22.5262 16.6927 22.6667 16.3536 22.6667 15.9999C22.6667 15.6463 22.5262 15.3072 22.2762 15.0571C22.0261 14.8071 21.687 14.6666 21.3334 14.6666Z" fill="black"/>
</svg>
