<svg width="24" height="24" viewBox="0 0 24 24" fill="none" xmlns="http://www.w3.org/2000/svg">
<path d="M17 8C16.4477 8 16 8.44771 16 9C16 9.55228 16.4477 10 17 10V8ZM23 22V23C23.5523 23 24 22.5523 24 22H23ZM19 22H18C18 22.5523 18.4477 23 19 23V22ZM15 22V23C15.5523 23 16 22.5523 16 22H15ZM11 22H10C10 22.5523 10.4477 23 11 23V22ZM17 10C18.3261 10 19.5978 10.5268 20.5355 11.4645L21.9497 10.0503C20.637 8.7375 18.8565 8 17 8V10ZM20.5355 11.4645C21.4732 12.4022 22 13.6739 22 15H24C24 13.1435 23.2625 11.363 21.9497 10.0503L20.5355 11.4645ZM22 15V22H24V15H22ZM23 21H19V23H23V21ZM20 22V15H18V22H20ZM20 15C20 14.2043 19.6839 13.4413 19.1213 12.8787L17.7071 14.2929C17.8946 14.4804 18 14.7348 18 15H20ZM19.1213 12.8787C18.5587 12.3161 17.7957 12 17 12V14C17.2652 14 17.5196 14.1054 17.7071 14.2929L19.1213 12.8787ZM17 12C16.2043 12 15.4413 12.3161 14.8787 12.8787L16.2929 14.2929C16.4804 14.1054 16.7348 14 17 14V12ZM14.8787 12.8787C14.3161 13.4413 14 14.2043 14 15H16C16 14.7348 16.1054 14.4804 16.2929 14.2929L14.8787 12.8787ZM14 15V22H16V15H14ZM15 21H11V23H15V21ZM12 22V15H10V22H12ZM12 15C12 13.6739 12.5268 12.4022 13.4645 11.4645L12.0503 10.0503C10.7375 11.363 10 13.1435 10 15H12ZM13.4645 11.4645C14.4022 10.5268 15.6739 10 17 10V8C15.1435 8 13.363 8.7375 12.0503 10.0503L13.4645 11.4645Z" fill="#424C5D"/>
<path d="M3 10V9C2.44771 9 2 9.44771 2 10H3ZM7 10H8C8 9.44771 7.55228 9 7 9V10ZM7 22V23C7.55228 23 8 22.5523 8 22H7ZM3 22H2C2 22.5523 2.44771 23 3 23V22ZM3 11H7V9H3V11ZM6 10V22H8V10H6ZM7 21H3V23H7V21ZM4 22V10H2V22H4Z" fill="#424C5D"/>
<path d="M6 5C6 5.55228 5.55228 6 5 6V8C6.65685 8 8 6.65685 8 5H6ZM5 6C4.44772 6 4 5.55228 4 5H2C2 6.65685 3.34315 8 5 8V6ZM4 5C4 4.44772 4.44772 4 5 4V2C3.34315 2 2 3.34315 2 5H4ZM5 4C5.55228 4 6 4.44772 6 5H8C8 3.34315 6.65685 2 5 2V4Z" fill="#424C5D"/>
</svg>
