<svg width="37" height="37" viewBox="0 0 37 37" fill="none" xmlns="http://www.w3.org/2000/svg">
<rect x="1.21302" y="1.2129" width="34.5742" height="34.5742" stroke="#3047EC" stroke-width="2.40028"/>
<path d="M29.8999 26.8115C29.7583 26.9545 25.7786 30.306 18.4824 30.306C11.1862 30.306 7.23304 26.9724 7.06501 26.8294C6.95911 26.7391 6.87189 26.6287 6.80834 26.5044C6.74477 26.38 6.70614 26.2441 6.69464 26.1047C6.68313 25.9652 6.69899 25.8248 6.74131 25.6914C6.78362 25.5582 6.85154 25.4347 6.9412 25.328C7.12589 25.112 7.38759 24.9786 7.66924 24.9568C7.95088 24.9351 8.2296 25.0267 8.44465 25.2118C8.50655 25.2565 12.0617 28.17 18.4736 28.17C24.8854 28.17 28.4671 25.2386 28.5025 25.2118C28.72 25.0284 28.9996 24.9379 29.2819 24.9596C29.5643 24.9813 29.8273 25.1135 30.0148 25.328C30.1952 25.5407 30.2853 25.8168 30.2654 26.0963C30.2455 26.3758 30.1173 26.636 29.9087 26.8205L29.8999 26.8115ZM12.0529 8.31164C12.0689 8.02393 12.197 7.75431 12.4091 7.56173C12.6212 7.36914 12.9001 7.26924 13.185 7.28387C13.449 7.29902 13.6981 7.41242 13.8842 7.60221C14.0704 7.79199 14.1805 8.04472 14.1932 8.31164V22.6111C14.1932 22.8979 14.0804 23.173 13.8797 23.3757C13.679 23.5785 13.4069 23.6925 13.123 23.6925C12.8392 23.6925 12.5671 23.5785 12.3663 23.3757C12.1657 23.173 12.0529 22.8979 12.0529 22.6111V8.31164ZM17.4477 7.77542C17.4477 7.48861 17.5604 7.21355 17.7611 7.01075C17.9618 6.80795 18.2339 6.69402 18.5178 6.69402C18.8016 6.69402 19.0738 6.80795 19.2745 7.01075C19.4751 7.21355 19.5879 7.48861 19.5879 7.77542V23.326C19.5879 23.6128 19.4751 23.8879 19.2745 24.0907C19.0738 24.2935 18.8016 24.4074 18.5178 24.4074C18.2339 24.4074 17.9618 24.2935 17.7611 24.0907C17.5604 23.8879 17.4477 23.6128 17.4477 23.326V7.77542ZM22.754 8.31164C22.754 8.02484 22.8667 7.74978 23.0675 7.54698C23.2681 7.34418 23.5403 7.23025 23.8241 7.23025C24.1079 7.23025 24.3801 7.34418 24.5808 7.54698C24.7814 7.74978 24.8942 8.02484 24.8942 8.31164V22.6111C24.8942 22.8979 24.7814 23.173 24.5808 23.3757C24.3801 23.5785 24.1079 23.6925 23.8241 23.6925C23.5403 23.6925 23.2681 23.5785 23.0675 23.3757C22.8667 23.173 22.754 22.8979 22.754 22.6111V8.31164ZM30.5631 2.41313H6.43709C5.91141 2.4096 5.39019 2.51089 4.90328 2.7112C4.41638 2.91151 3.97336 3.2069 3.59959 3.58047C3.22581 3.95403 2.92862 4.39844 2.72503 4.88823C2.52145 5.37804 2.41546 5.9036 2.41315 6.43484V30.5651C2.41546 31.0964 2.52145 31.622 2.72503 32.1117C2.92862 32.6016 3.22581 33.0459 3.59959 33.4195C3.97336 33.7931 4.41638 34.0885 4.90328 34.2888C5.39019 34.4891 5.91141 34.5904 6.43709 34.5869H30.5631C31.088 34.5904 31.6085 34.4893 32.0949 34.2896C32.5812 34.0899 33.0238 33.7953 33.3975 33.4227C33.7712 33.05 34.0685 32.6067 34.2726 32.118C34.4768 31.6292 34.5836 31.1046 34.5871 30.5741V6.43484C34.5847 5.90435 34.479 5.37953 34.276 4.89032C34.073 4.40111 33.7765 3.9571 33.4038 3.58364C33.0309 3.21019 32.589 2.91461 32.103 2.71377C31.6171 2.51293 31.0969 2.41078 30.5719 2.41313" fill="white"/>
</svg>
