<svg width="413" height="24" viewBox="0 0 413 24" fill="none" xmlns="http://www.w3.org/2000/svg">
<g clip-path="url(#clip0_24_3712)">
<path d="M411 13C411 17.9706 406.971 22 402 22V24C408.075 24 413 19.0751 413 13H411ZM402 22C397.029 22 393 17.9706 393 13H391C391 19.0751 395.925 24 402 24V22ZM393 13C393 8.02944 397.029 4 402 4V2C395.925 2 391 6.92487 391 13H393ZM402 4C406.971 4 411 8.02944 411 13H413C413 6.92487 408.075 2 402 2V4Z" fill="#828FA2"/>
<path d="M405.707 10.7071C406.098 10.3166 406.098 9.68342 405.707 9.29289C405.317 8.90237 404.683 8.90237 404.293 9.29289L405.707 10.7071ZM398.293 15.2929C397.902 15.6834 397.902 16.3166 398.293 16.7071C398.683 17.0976 399.317 17.0976 399.707 16.7071L398.293 15.2929ZM404.293 9.29289L398.293 15.2929L399.707 16.7071L405.707 10.7071L404.293 9.29289Z" fill="#828FA2"/>
<path d="M399.707 9.29289C399.317 8.90237 398.683 8.90237 398.293 9.29289C397.902 9.68342 397.902 10.3166 398.293 10.7071L399.707 9.29289ZM404.293 16.7071C404.683 17.0976 405.317 17.0976 405.707 16.7071C406.098 16.3166 406.098 15.6834 405.707 15.2929L404.293 16.7071ZM398.293 10.7071L404.293 16.7071L405.707 15.2929L399.707 9.29289L398.293 10.7071Z" fill="#828FA2"/>
</g>
<defs>
<clipPath id="clip0_24_3712">
<rect width="24" height="24" fill="white" transform="translate(389)"/>
</clipPath>
</defs>
</svg>
