<svg width="14" height="15" viewBox="0 0 14 15" fill="none" xmlns="http://www.w3.org/2000/svg">
<path d="M13.125 7.30078C13.125 5.11328 11.9492 3.11719 10.0625 2.02344C8.14844 0.902344 5.82422 0.902344 3.9375 2.02344C2.02344 3.11719 0.875 5.11328 0.875 7.30078C0.875 9.51562 2.02344 11.5117 3.9375 12.6055C5.82422 13.7266 8.14844 13.7266 10.0625 12.6055C11.9492 11.5117 13.125 9.51562 13.125 7.30078ZM0 7.30078C0 4.8125 1.3125 2.51562 3.5 1.25781C5.66016 0 8.3125 0 10.5 1.25781C12.6602 2.51562 14 4.8125 14 7.30078C14 9.81641 12.6602 12.1133 10.5 13.3711C8.3125 14.6289 5.66016 14.6289 3.5 13.3711C1.3125 12.1133 0 9.81641 0 7.30078ZM6.5625 3.36328C6.5625 3.14453 6.75391 2.92578 7 2.92578C7.21875 2.92578 7.4375 3.14453 7.4375 3.36328V7.08203L9.84375 8.69531C10.0625 8.83203 10.1172 9.10547 9.98047 9.29687C9.84375 9.51562 9.57031 9.57031 9.37891 9.43359L6.75391 7.68359C6.61719 7.60156 6.5625 7.46484 6.5625 7.30078V3.36328Z" fill="#F8F8F8"/>
</svg>
