<svg width="32" height="32" viewBox="0 0 32 32" fill="none" xmlns="http://www.w3.org/2000/svg">
<rect x="0.5" y="0.5" width="31" height="31" stroke="#E2E8ED"/>
<path fill-rule="evenodd" clip-rule="evenodd" d="M15.9998 9.33301C16.4601 9.33301 16.8332 9.7061 16.8332 10.1663V21.833C16.8332 22.2932 16.4601 22.6663 15.9998 22.6663C15.5396 22.6663 15.1665 22.2932 15.1665 21.833V10.1663C15.1665 9.7061 15.5396 9.33301 15.9998 9.33301Z" fill="#2D2D2D"/>
<path fill-rule="evenodd" clip-rule="evenodd" d="M9.3335 16.0003C9.3335 15.5401 9.70659 15.167 10.1668 15.167H21.8335C22.2937 15.167 22.6668 15.5401 22.6668 16.0003C22.6668 16.4606 22.2937 16.8337 21.8335 16.8337H10.1668C9.70659 16.8337 9.3335 16.4606 9.3335 16.0003Z" fill="#2D2D2D"/>
</svg>
