<svg width="298" height="234" viewBox="0 0 298 234" fill="none" xmlns="http://www.w3.org/2000/svg">
<path d="M227.315 77.9242L224.675 77.3481L224.074 74.7133C224.064 74.6682 224.039 74.6278 224.003 74.599C223.967 74.5701 223.922 74.5543 223.875 74.5543C223.829 74.5547 223.784 74.5705 223.748 74.5992C223.711 74.628 223.685 74.6682 223.674 74.7133L223.073 77.3605L220.434 77.9863C220.388 77.9974 220.348 78.0236 220.319 78.0605C220.29 78.0975 220.274 78.143 220.275 78.1899C220.275 78.2362 220.291 78.281 220.32 78.3167C220.35 78.3524 220.391 78.3769 220.436 78.3861L223.076 78.9622L223.674 81.597C223.685 81.6421 223.711 81.6823 223.748 81.7111C223.784 81.7398 223.829 81.7556 223.875 81.756C223.922 81.756 223.967 81.7402 224.003 81.7113C224.039 81.6825 224.064 81.6421 224.074 81.597L224.678 78.9498L227.317 78.324C227.364 78.315 227.406 78.2901 227.436 78.2537C227.466 78.2172 227.482 78.1714 227.482 78.1241C227.482 78.0768 227.466 78.031 227.436 77.9945C227.406 77.9581 227.364 77.9332 227.317 77.9242H227.315ZM73.3479 116.168L70.7081 115.591L70.1071 112.957C70.097 112.912 70.0718 112.871 70.0357 112.842C69.9995 112.813 69.9547 112.798 69.9085 112.798C69.862 112.798 69.817 112.814 69.7806 112.843C69.7441 112.871 69.7184 112.912 69.7073 112.957L69.1063 115.604L66.4666 116.23C66.421 116.241 66.3806 116.267 66.3518 116.304C66.3229 116.341 66.3074 116.386 66.3076 116.433C66.3079 116.48 66.324 116.524 66.3534 116.56C66.3828 116.596 66.4237 116.62 66.469 116.629L69.1088 117.206L69.7073 119.84C69.7184 119.886 69.7441 119.926 69.7806 119.954C69.817 119.983 69.862 119.999 69.9085 119.999C69.9547 119.999 69.9995 119.984 70.0357 119.955C70.0718 119.926 70.097 119.886 70.1071 119.84L70.7106 117.193L73.3503 116.567C73.3968 116.558 73.4386 116.534 73.4687 116.497C73.4988 116.461 73.5152 116.415 73.5152 116.367C73.5152 116.32 73.4988 116.274 73.4687 116.238C73.4386 116.201 73.3968 116.177 73.3503 116.168H73.3479ZM213.982 67.3527L212.616 67.0547L212.308 65.6913C212.303 65.6675 212.29 65.6463 212.271 65.631C212.252 65.6157 212.228 65.6074 212.204 65.6074C212.179 65.6074 212.156 65.6157 212.137 65.631C212.118 65.6463 212.105 65.6675 212.1 65.6913L211.789 67.0621L210.423 67.3849C210.4 67.3905 210.379 67.4039 210.364 67.4228C210.349 67.4418 210.341 67.4652 210.341 67.4892C210.341 67.5134 210.35 67.5367 210.365 67.5553C210.381 67.5738 210.402 67.5865 210.426 67.5911L211.792 67.8891L212.1 69.2524C212.105 69.2762 212.118 69.2975 212.137 69.3127C212.156 69.328 212.179 69.3363 212.204 69.3363C212.228 69.3363 212.252 69.328 212.271 69.3127C212.29 69.2975 212.303 69.2762 212.308 69.2524L212.619 67.8816L213.984 67.5588C214.008 67.5528 214.028 67.5393 214.043 67.5205C214.058 67.5016 214.066 67.4784 214.066 67.4545C214.066 67.4304 214.058 67.407 214.042 67.3885C214.027 67.3699 214.006 67.3573 213.982 67.3527Z" fill="#4F3CC9"/>
<path d="M71.5234 42.6836L71.6923 38.3874C71.7122 37.8994 71.8479 37.4231 72.0882 36.9979C72.3286 36.5726 72.6666 36.2107 73.0744 35.9419C73.4822 35.6731 73.9481 35.5051 74.4337 35.4519C74.9192 35.3987 75.4104 35.4618 75.8668 35.6359C76.3235 35.8103 76.7322 36.0911 77.0588 36.455C77.3854 36.8188 77.6205 37.2553 77.7448 37.7281C77.8691 38.201 77.8789 38.6967 77.7734 39.1741C77.6679 39.6515 77.4502 40.0969 77.1382 40.4734L74.4066 43.7862L71.5234 42.6836ZM70.3538 45.7654L67.6221 49.0782C67.3107 49.4546 67.0934 49.8999 66.9882 50.377C66.883 50.8541 66.8929 51.3494 67.0172 51.822C67.1414 52.2945 67.3764 52.7306 67.7027 53.0943C68.029 53.4579 68.4372 53.7387 68.8936 53.9132C69.3499 54.0879 69.8413 54.1514 70.3271 54.0985C70.8128 54.0455 71.279 53.8777 71.6869 53.6087C72.0949 53.3398 72.433 52.9776 72.6732 52.5521C72.9133 52.1266 73.0487 51.6499 73.0681 51.1617L73.2394 46.8655L70.3538 45.7654Z" fill="#FF8B6A"/>
<path d="M68.627 43.3817L69.968 46.2251C70.2284 46.7761 70.6969 47.2013 71.2705 47.4071C71.8442 47.6129 72.4761 47.5825 73.0274 47.3227L75.774 46.0289L74.4355 43.1855C74.175 42.6345 73.7067 42.2092 73.1332 42.003C72.5596 41.7967 71.9277 41.8264 71.376 42.0854L68.627 43.3817Z" fill="#4F3CC9"/>
<path d="M67.7584 45.0949C68.9118 45.0949 69.8469 44.1599 69.8469 43.0064C69.8469 41.853 68.9118 40.918 67.7584 40.918C66.605 40.918 65.6699 41.853 65.6699 43.0064C65.6699 44.1599 66.605 45.0949 67.7584 45.0949Z" fill="#4F3CC9"/>
<path d="M64.625 41.0889L65.6123 39.9729L67.0203 41.2186L66.033 42.3345L64.625 41.0889Z" fill="#4F3CC9"/>
<path d="M64.127 43.8301L64.1368 42.3401L66.0167 42.3526L66.0068 43.8425L64.127 43.8301Z" fill="#4F3CC9"/>
<path d="M112.773 136.389L111.315 136.089C111.455 135.416 111.586 134.735 111.713 134.065L113.175 134.336C113.051 135.018 112.915 135.709 112.773 136.389ZM113.796 130.635L112.324 130.429C112.507 129.188 112.664 127.961 112.793 126.766L114.283 126.923C114.144 128.13 113.988 129.381 113.796 130.638V130.635ZM114.586 123.166L113.096 123.076C113.171 121.834 113.213 120.593 113.22 119.393H114.71C114.703 120.628 114.661 121.894 114.586 123.168V123.166ZM113.136 115.716C113.066 114.474 112.957 113.232 112.808 112.06L114.298 111.876C114.449 113.088 114.564 114.36 114.633 115.634L113.136 115.716ZM112.209 108.449C111.961 107.235 111.651 106.045 111.303 104.913L112.726 104.476C113.089 105.651 113.406 106.885 113.67 108.146L112.209 108.449ZM98.5512 101.993C98.1116 101.993 97.6646 101.975 97.2201 101.943L97.3319 100.453C97.7391 100.485 98.1638 100.495 98.5512 100.5C99.3271 100.501 100.102 100.44 100.868 100.319L101.116 101.789C100.271 101.923 99.4168 101.988 98.5611 101.985L98.5512 101.993ZM110.039 101.496C109.561 100.387 109.015 99.3093 108.405 98.2677L109.691 97.5227C110.332 98.6215 110.905 99.7585 111.407 100.927L110.039 101.496ZM93.3759 101.054C92.1331 100.517 91.0209 99.7184 90.1153 98.7122L91.2278 97.7188C91.9915 98.5658 92.9293 99.2376 93.9769 99.6881L93.3759 101.054ZM104.874 100.649L104.248 99.2983C105.31 98.8108 106.291 98.1644 107.158 97.3811L108.164 98.4812C107.18 99.3681 106.066 100.099 104.861 100.649H104.874ZM106.396 95.2678C105.653 94.32 104.838 93.4301 103.96 92.6057L104.978 91.518C105.908 92.3941 106.769 93.3396 107.556 94.3465L106.396 95.2678ZM110.451 95.2678L109.14 94.56C109.715 93.4997 110.213 92.3992 110.63 91.2671L112.028 91.7837C111.582 92.9784 111.051 94.1394 110.439 95.2579L110.451 95.2678ZM88.1932 95.1908C88.0645 94.745 87.965 94.2912 87.8952 93.8324C87.8436 93.5038 87.8178 93.1717 87.8182 92.8391C87.8182 92.2508 87.9018 91.6655 88.0665 91.1008L89.497 91.5155C89.3743 91.9434 89.3124 92.3865 89.3132 92.8316C89.3132 93.0878 89.3331 93.3435 89.3728 93.5965C89.4311 93.9928 89.514 94.3851 89.6211 94.7711L88.1932 95.1908ZM101.139 90.388C100.238 89.7762 99.2702 89.2712 98.2532 88.8832L98.0222 88.8186L98.4146 87.3807L98.6803 87.4552C99.8382 87.8784 100.939 88.4449 101.956 89.1414L101.139 90.388ZM91.3669 89.052L90.5896 87.783C91.7766 87.0949 93.1318 86.751 94.5034 86.7897H94.553L94.5406 88.2797H94.5034C93.4034 88.2371 92.3132 88.5011 91.3545 89.0421L91.3669 89.052ZM113.064 88.0785L111.599 87.8029C111.822 86.6263 111.938 85.4319 111.946 84.2344H113.436C113.423 85.5214 113.294 86.8046 113.051 88.0686L113.064 88.0785ZM111.648 80.6683C111.439 79.4871 111.136 78.3245 110.742 77.1916L112.15 76.6949C112.571 77.9044 112.894 79.146 113.116 80.4075L111.648 80.6683ZM109.319 73.8664C108.764 72.7865 108.148 71.7393 107.474 70.73L108.715 69.9055C109.421 70.9619 110.065 72.0581 110.645 73.1885L109.319 73.8664ZM105.296 67.7798C104.551 66.861 103.736 65.9347 102.872 65.0233L103.952 63.9977C104.844 64.9364 105.691 65.8925 106.453 66.8411L105.296 67.7798ZM100.25 62.4431C99.3732 61.6335 98.437 60.8165 97.4685 60.0169L98.4196 58.8671C99.4129 59.6841 100.364 60.5185 101.26 61.3504L100.25 62.4431ZM94.5629 57.7248C93.5994 57.0046 92.5763 56.2819 91.5532 55.5767L92.3925 54.335C93.443 55.0527 94.4735 55.7902 95.4545 56.5228L94.5629 57.7248ZM88.4539 53.5503C87.4184 52.9021 86.3481 52.2589 85.2778 51.6406L86.0228 50.3492C87.108 50.9775 88.1932 51.6282 89.2511 52.2887L88.4539 53.5503ZM82.032 49.8501C80.0106 48.7847 78.7292 48.2086 78.7168 48.2012L79.3277 46.8428C79.3823 46.8676 80.6588 47.4437 82.7274 48.5314L82.032 49.8501Z" fill="#4F3CC9"/>
<path d="M186.725 87.813L180.715 85.7915L180.121 68.7037C187.467 63.1286 183.35 59.133 183.35 59.133L183.037 51.3154H153.721C148.258 83.1741 162.15 80.1221 162.15 80.1221L161.797 86.76L154.421 90.0554L154.714 102.864H187.743L186.725 87.813Z" fill="white"/>
<path d="M188.54 103.61H153.987L153.666 89.584L161.077 86.2713L161.36 80.952C160.354 80.9687 159.354 80.785 158.419 80.4115C157.485 80.038 156.634 79.4822 155.916 78.7766C151.551 74.6071 150.565 65.3244 152.986 51.1867L153.093 50.5684H183.769L184.1 58.8354C184.92 59.8536 185.33 61.1414 185.25 62.4462C185.113 64.6663 183.648 66.8889 180.891 69.0568L181.455 85.2481L187.445 87.2646L188.54 103.61ZM155.442 102.12H186.946L186.004 88.3598L179.98 86.3334L179.364 68.3466L179.672 68.1131C182.227 66.1712 183.645 64.182 183.75 62.3617C183.813 61.3789 183.484 60.411 182.836 59.6698L182.622 59.4637L182.324 52.0633H154.349C151.618 68.5701 154.238 75.1186 156.944 77.7038C159.309 79.9586 161.963 79.4098 161.988 79.4024L162.944 79.1938L162.517 87.2621L155.179 90.5426L155.442 102.12Z" fill="#4F3CC9"/>
<path d="M170.411 53.0294C170.411 53.0294 164.138 57.0897 153.438 53.0294L152.919 56.7693C152.919 56.7693 148.2 53.4094 149.467 47.191C149.467 47.191 150.103 43.255 156.703 42.4926C156.703 42.4926 159.495 36.7809 165.589 39.1922C165.589 39.1922 170.158 36.401 174.601 40.5903C174.601 40.5903 178.534 40.4637 179.17 43.6349C179.17 43.6349 185.642 42.875 187.42 48.8499C187.42 48.8499 188.435 56.4713 182.977 59.7766C182.977 59.7766 179.041 57.2312 177.265 62.5629L174.981 63.1986L174.472 59.645C174.472 59.645 171.045 58.6144 170.411 53.0294Z" fill="#4F3CC9"/>
<path d="M155.244 66.4715C154.33 66.4715 153.436 66.2004 152.676 65.6926C151.916 65.1848 151.324 64.463 150.974 63.6186C150.624 62.7741 150.533 61.8449 150.711 60.9484C150.889 60.0519 151.329 59.2284 151.976 58.5821C152.622 57.9358 153.445 57.4956 154.342 57.3173C155.238 57.139 156.168 57.2305 157.012 57.5803C157.857 57.9301 158.578 58.5224 159.086 59.2824C159.594 60.0424 159.865 60.936 159.865 61.85C159.864 63.0753 159.376 64.25 158.51 65.1164C157.644 65.9828 156.469 66.4702 155.244 66.4715ZM155.244 58.2219C154.526 58.2219 153.825 58.4346 153.228 58.8333C152.631 59.232 152.166 59.7986 151.892 60.4616C151.617 61.1245 151.545 61.854 151.685 62.5578C151.825 63.2616 152.171 63.9081 152.678 64.4155C153.185 64.9229 153.832 65.2684 154.536 65.4084C155.24 65.5484 155.969 65.4766 156.632 65.202C157.295 64.9274 157.862 64.4623 158.26 63.8657C158.659 63.269 158.872 62.5676 158.872 61.85C158.871 60.888 158.489 59.9655 157.808 59.2852C157.128 58.605 156.206 58.2225 155.244 58.2219ZM165.145 66.4715C164.231 66.4715 163.337 66.2004 162.577 65.6926C161.817 65.1848 161.225 64.463 160.875 63.6186C160.525 62.7741 160.434 61.8449 160.612 60.9484C160.79 60.0519 161.23 59.2284 161.877 58.5821C162.523 57.9358 163.347 57.4956 164.243 57.3173C165.139 57.139 166.069 57.2305 166.913 57.5803C167.758 57.9301 168.479 58.5224 168.987 59.2824C169.495 60.0424 169.766 60.936 169.766 61.85C169.765 63.0753 169.277 64.25 168.411 65.1164C167.545 65.9828 166.37 66.4702 165.145 66.4715ZM165.145 58.2219C164.427 58.2219 163.726 58.4346 163.129 58.8333C162.532 59.232 162.067 59.7986 161.793 60.4616C161.518 61.1245 161.446 61.854 161.586 62.5578C161.726 63.2616 162.072 63.9081 162.579 64.4155C163.087 64.9229 163.733 65.2684 164.437 65.4084C165.141 65.5484 165.87 65.4766 166.533 65.202C167.196 64.9274 167.763 64.4623 168.161 63.8657C168.56 63.269 168.773 62.5676 168.773 61.85C168.772 60.888 168.39 59.9655 167.709 59.2852C167.029 58.605 166.107 58.2225 165.145 58.2219Z" fill="#4F3CC9"/>
<path d="M155.305 63.563C155.936 63.563 156.448 63.0516 156.448 62.4207C156.448 61.7898 155.936 61.2783 155.305 61.2783C154.675 61.2783 154.163 61.7898 154.163 62.4207C154.163 63.0516 154.675 63.563 155.305 63.563Z" fill="#4F3CC9"/>
<path d="M165.144 63.6284C165.775 63.6284 166.287 63.117 166.287 62.4861C166.287 61.8552 165.775 61.3438 165.144 61.3438C164.513 61.3438 164.002 61.8552 164.002 62.4861C164.002 63.117 164.513 63.6284 165.144 63.6284Z" fill="#4F3CC9"/>
<path d="M169.196 60.8555L174.811 60.0314L174.955 61.0142L169.341 61.8383L169.196 60.8555Z" fill="#4F3CC9"/>
<path d="M161.603 69.5162L157.304 69.0717L159.972 61.0952L160.915 61.4106L158.64 68.21L161.705 68.5278L161.603 69.5162ZM158.993 57.7353C158.973 57.7179 156.982 56.1633 153.075 56.6525L152.951 55.6592C157.309 55.1153 159.527 56.881 159.619 56.9555L158.991 57.7253L159.304 57.3404L158.993 57.7353ZM162.03 57.6086L161.285 56.9629C161.315 56.9282 164.216 53.6303 168.969 56.6153L168.44 57.4571C164.424 54.9365 162.125 57.4993 162.03 57.6086ZM158.318 73.8099C158.212 73.7064 158.131 73.5808 158.081 73.4421C158.03 73.3035 158.011 73.1553 158.025 73.0083C158.038 72.8613 158.085 72.7192 158.16 72.5924C158.236 72.4656 158.339 72.3572 158.462 72.2752C158.837 72.0198 159.277 71.8768 159.731 71.8629C160.913 71.8282 162.477 72.5881 163.207 72.9804C163.256 73.0062 163.297 73.0432 163.328 73.0884C163.359 73.1335 163.379 73.1855 163.385 73.2399C163.392 73.2942 163.385 73.3494 163.366 73.4006C163.347 73.4519 163.315 73.4977 163.274 73.5342C162.455 74.2544 159.959 75.5184 158.318 73.8099Z" fill="#4F3CC9"/>
<path d="M157.198 88.7093C157.198 88.7093 158.191 100.629 171.601 100.133C171.601 100.133 182.652 99.0151 185.88 87.5918C185.88 87.5918 200.646 91.282 212.66 97.699C214.881 98.8865 216.833 100.519 218.393 102.496C219.954 104.472 221.09 106.749 221.73 109.184L232.195 144.584L205.623 144.833L202.519 139.245L207.237 202.57H138.945L137.207 150.668L115.354 147.937L127.817 108.948C128.738 106.064 130.263 103.409 132.291 101.16C134.319 98.9122 136.804 97.1225 139.578 95.911L157.198 88.7093Z" fill="#FF8B6A"/>
<path d="M208.039 203.316H138.225L136.487 151.329L114.37 148.558L127.107 108.703C128.061 105.719 129.639 102.973 131.737 100.648C133.836 98.3219 136.405 96.4702 139.276 95.2158L157.851 87.6292L157.935 88.6399C157.977 89.1142 159.065 99.8323 171.541 99.3828C172.212 99.3083 182.15 98.0244 185.158 87.3809L185.354 86.6855L186.057 86.8619C186.206 86.8991 201.048 90.6489 213.006 97.0435C215.313 98.2831 217.342 99.9836 218.965 102.04C220.588 104.096 221.772 106.463 222.442 108.996L233.188 145.329L205.186 145.578L203.514 142.566L208.039 203.316ZM139.665 201.826H206.435L201.523 135.92L206.06 144.088L231.201 143.839L221.019 109.396C220.403 107.057 219.312 104.87 217.814 102.971C216.316 101.072 214.443 99.5015 212.313 98.3572C201.977 92.8368 189.429 89.3079 186.389 88.4934C185.024 92.9158 181.968 96.6205 177.886 98.8017C175.96 99.8627 173.856 100.565 171.678 100.873H171.631C171.35 100.873 171.077 100.888 170.806 100.888C164.072 100.888 160.54 97.7264 158.752 95.0122C157.709 93.411 156.981 91.6248 156.609 89.75L139.864 96.5891C137.19 97.759 134.797 99.4852 132.842 101.653C130.888 103.82 129.418 106.38 128.53 109.16L116.337 147.316L137.93 150.016L139.665 201.826Z" fill="#4F3CC9"/>
<path d="M95.6113 128.939H189.481V202.446H95.6113V128.939Z" fill="#5564D7"/>
<path d="M190.226 203.191H94.8662V128.194H190.226V203.191ZM96.3562 201.701H188.736V129.684H96.3562V201.701Z" fill="#4F3CC9"/>
<path d="M74.3789 148.682H130.999L153.846 129.063H95.4872L74.3789 148.682Z" fill="white"/>
<path d="M131.275 149.428H72.4844L95.1945 128.319H155.857L131.275 149.428ZM76.2739 147.938H130.723L151.832 129.809H95.7806L76.2739 147.938Z" fill="#4F3CC9"/>
<path d="M153.473 128.939H189.481V202.446H153.473V128.939Z" fill="#4F3CC9"/>
<path d="M204.753 148.682H165.517L153.597 129.063H189.605L204.753 148.682Z" fill="white"/>
<path d="M206.271 149.428H165.097L152.273 128.319H189.978L206.271 149.428ZM165.937 147.938H203.236L189.233 129.809H154.921L165.937 147.938Z" fill="#4F3CC9"/>
<path d="M95.6117 174.137C95.6117 174.137 88.7801 178.279 89.1029 185.808C89.1692 187.342 89.6724 188.825 90.5532 190.082C92.2592 192.513 96.1233 196.315 103.807 196.983C103.807 196.983 107.283 197.48 106.29 194.997C106.29 194.997 108.773 193.755 107.78 191.52C107.78 191.52 110.015 189.533 108.773 187.795C108.773 187.795 110.512 185.312 109.022 184.318C107.532 183.325 100.827 182.083 100.827 182.083C100.827 182.083 105.793 181.09 105.048 178.855C104.303 176.62 95.6117 176.95 95.6117 176.95V174.137Z" fill="white"/>
<path d="M104.484 197.772C104.229 197.773 103.974 197.757 103.722 197.723C95.6558 197.015 91.6279 192.898 89.9442 190.504C88.9797 189.132 88.4297 187.511 88.3598 185.835C88.0196 177.958 94.9307 173.667 95.2262 173.498L96.3561 172.812V176.185C99.0879 176.135 104.983 176.307 105.756 178.619C105.854 178.904 105.889 179.207 105.858 179.508C105.826 179.808 105.73 180.098 105.574 180.357C105.192 181.017 104.459 181.524 103.687 181.902C105.793 182.368 108.475 183.054 109.433 183.692C109.666 183.844 109.866 184.042 110.02 184.274C110.173 184.506 110.278 184.767 110.327 185.04C110.521 186.068 109.99 187.203 109.642 187.804C110.33 189.267 109.453 190.817 108.649 191.708C109.128 193.387 108.105 194.658 107.174 195.326C107.24 195.596 107.246 195.877 107.19 196.149C107.134 196.421 107.018 196.677 106.851 196.898C106.275 197.628 105.227 197.772 104.484 197.772ZM94.8661 175.609C93.0285 177.119 89.6263 180.633 89.8473 185.771C89.9065 187.161 90.3623 188.507 91.161 189.647C92.6982 191.83 96.3909 195.59 103.871 196.24H103.91C104.573 196.332 105.463 196.24 105.674 195.977C105.761 195.868 105.731 195.602 105.597 195.267L105.348 194.631L105.962 194.326C106.148 194.229 107.779 193.332 107.104 191.817L106.883 191.321L107.29 190.961C107.305 190.946 109.006 189.394 108.172 188.229L107.861 187.795L108.162 187.362C108.492 186.886 108.976 185.907 108.862 185.314C108.851 185.236 108.823 185.162 108.78 185.096C108.737 185.031 108.68 184.975 108.614 184.934C107.621 184.271 103.23 183.28 100.695 182.81L96.8925 182.105L100.685 181.348C101.822 181.119 103.809 180.444 104.293 179.609C104.342 179.532 104.372 179.445 104.381 179.354C104.39 179.263 104.378 179.171 104.345 179.085C104.012 178.08 99.4902 177.543 95.6534 177.69L94.881 177.72L94.8661 175.609Z" fill="#4F3CC9"/>
<path d="M231.303 144.406L206.368 144.655L209.295 152.917L171.427 192.002C171.427 192.002 162.735 186.206 157.58 185.793C157.324 185.774 157.067 185.807 156.824 185.891C156.581 185.975 156.358 186.107 156.168 186.28C155.978 186.453 155.826 186.663 155.72 186.897C155.615 187.131 155.558 187.384 155.554 187.641C155.536 189.022 156.177 191.043 159.211 193.067C159.211 193.067 154.493 196.683 151.143 198.53C150.548 198.848 150.072 199.35 149.786 199.961C149.5 200.572 149.419 201.26 149.556 201.92C149.872 203.289 151.128 204.652 154.9 204.622C154.9 204.622 154.9 208.513 159.929 207.436C159.929 207.436 161.367 211.029 165.678 209.231C165.678 209.231 166.883 211.623 172.505 208.156L229.763 168.45C231.713 167.098 233.199 165.179 234.021 162.953C234.842 160.727 234.959 158.303 234.355 156.008L231.303 144.406Z" fill="white"/>
<path d="M167.521 210.793C167.172 210.796 166.824 210.751 166.488 210.659C166.112 210.557 165.763 210.374 165.465 210.123C164.059 210.619 162.785 210.619 161.668 210.147C160.779 209.762 160.033 209.109 159.532 208.28C157.836 208.548 156.492 208.28 155.531 207.513C154.874 206.964 154.423 206.208 154.25 205.37C150.381 205.228 149.162 203.537 148.831 202.099C148.659 201.281 148.756 200.429 149.108 199.671C149.46 198.913 150.047 198.289 150.783 197.892C153.224 196.541 156.468 194.195 157.953 193.092C155.348 191.066 154.791 189.039 154.809 187.644C154.814 187.285 154.893 186.931 155.04 186.604C155.187 186.277 155.4 185.984 155.665 185.742C155.93 185.5 156.242 185.315 156.581 185.199C156.92 185.082 157.28 185.036 157.637 185.063C162.246 185.421 169.334 189.782 171.318 191.043L208.439 152.73L205.317 143.919L231.874 143.656L235.075 155.825C235.713 158.267 235.587 160.847 234.713 163.216C233.839 165.584 232.26 167.628 230.188 169.071L172.912 208.804H172.895C170.747 210.128 168.944 210.793 167.521 210.793ZM166.339 208.903C166.647 209.343 168.236 209.924 172.095 207.547L229.338 167.839C231.159 166.57 232.547 164.774 233.315 162.693C234.083 160.611 234.195 158.344 233.635 156.197L230.729 145.156L207.418 145.39L210.15 153.103L171.529 192.965L171.012 192.62C170.928 192.565 162.423 186.931 157.523 186.548C157.368 186.536 157.212 186.556 157.065 186.607C156.918 186.658 156.783 186.738 156.669 186.844C156.554 186.947 156.462 187.073 156.398 187.214C156.334 187.354 156.3 187.507 156.299 187.661C156.276 189.335 157.426 190.994 159.626 192.459L160.493 193.037L159.664 193.671C159.47 193.82 154.853 197.343 151.503 199.196C151.05 199.435 150.686 199.815 150.466 200.278C150.246 200.742 150.182 201.264 150.284 201.766C150.612 203.197 152.166 203.912 154.896 203.889H155.641V204.634C155.657 204.965 155.739 205.289 155.882 205.588C156.025 205.886 156.227 206.153 156.475 206.373C157.173 206.929 158.28 207.048 159.77 206.73L160.384 206.599L160.617 207.182C160.953 207.898 161.535 208.469 162.256 208.792C163.12 209.149 164.173 209.072 165.388 208.568L166.088 208.275L166.339 208.903Z" fill="#4F3CC9"/>
<path d="M161.735 123.16L167.694 110.247L169.047 110.871L163.088 123.784L161.735 123.16Z" fill="#4F3CC9"/>
<path d="M148.754 104.106H150.244V123.476H148.754V104.106Z" fill="#4F3CC9"/>
<path d="M130.682 110.816L132.073 110.283L136.544 121.955L135.153 122.488L130.682 110.816Z" fill="#4F3CC9"/>
</svg>
