<svg width="22" height="23" viewBox="0 0 22 23" fill="none" xmlns="http://www.w3.org/2000/svg">
<path d="M0 2.75C0 1.24609 1.20312 0 2.75 0H19.25C20.7539 0 22 1.24609 22 2.75V15.125C22 16.6719 20.7539 17.875 19.25 17.875H13.2773L7.94922 21.8711C7.73438 22.043 7.47656 22.043 7.21875 21.957C7.00391 21.8281 6.875 21.6133 6.875 21.3125V17.875H2.75C1.20312 17.875 0 16.6719 0 15.125V2.75ZM6.53125 6.1875C5.92969 6.1875 5.5 6.66016 5.5 7.21875C5.5 7.82031 5.92969 8.25 6.53125 8.25H15.4688C16.0273 8.25 16.5 7.82031 16.5 7.21875C16.5 6.66016 16.0273 6.1875 15.4688 6.1875H6.53125ZM6.53125 10.3125C5.92969 10.3125 5.5 10.7852 5.5 11.3438C5.5 11.9453 5.92969 12.375 6.53125 12.375H11.3438C11.9023 12.375 12.375 11.9453 12.375 11.3438C12.375 10.7852 11.9023 10.3125 11.3438 10.3125H6.53125Z" fill="#3047EC"/>
</svg>
