<svg width="15" height="15" viewBox="0 0 15 15" fill="none" xmlns="http://www.w3.org/2000/svg">
<path d="M12.093 6.04651C12.093 7.38372 11.657 8.63372 10.9302 9.62209L14.593 13.314C14.9709 13.6628 14.9709 14.2733 14.593 14.6221C14.2442 15 13.6337 15 13.2849 14.6221L9.59302 10.9302C8.60465 11.686 7.35465 12.093 6.04651 12.093C2.70349 12.093 0 9.38953 0 6.04651C0 2.73256 2.70349 0 6.04651 0C9.36047 0 12.093 2.73256 12.093 6.04651ZM6.04651 10.2326C7.52907 10.2326 8.89535 9.44767 9.65116 8.13953C10.407 6.86047 10.407 5.26163 9.65116 3.95349C8.89535 2.67442 7.52907 1.86047 6.04651 1.86047C4.53488 1.86047 3.1686 2.67442 2.41279 3.95349C1.65698 5.26163 1.65698 6.86047 2.41279 8.13953C3.1686 9.44767 4.53488 10.2326 6.04651 10.2326Z" fill="#3047EC"/>
</svg>
