<svg width="88" height="28" viewBox="0 0 88 28" fill="none" xmlns="http://www.w3.org/2000/svg">
<path d="M73.7948 17.5547C72.4242 17.5551 71.11 17.7103 70.1411 17.9862C69.1718 18.2621 68.6267 18.6361 68.6253 19.0263V22.6916C68.6399 22.9539 68.471 23.2144 68.1284 23.4579C67.7858 23.7014 67.2765 23.9231 66.63 24.11C65.9836 24.2969 65.2128 24.4454 64.3628 24.5468C63.5128 24.6481 62.6003 24.7003 61.6788 24.7003C60.7571 24.7003 59.8448 24.6481 58.9948 24.5468C58.1448 24.4454 57.3741 24.2969 56.7276 24.11C56.0811 23.9231 55.5717 23.7014 55.2292 23.4579C54.8866 23.2144 54.7177 22.9539 54.7322 22.6916V19.0263C54.7322 18.636 54.1876 18.2617 53.2181 17.9858C52.2486 17.7099 50.9337 17.5548 49.5626 17.5548C48.1916 17.5548 46.8767 17.7099 45.9072 17.9858C44.9377 18.2617 44.3931 18.636 44.3931 19.0263V23.0797C44.3931 23.7258 44.8402 24.3656 45.7089 24.9625C46.5776 25.5595 47.8508 26.1018 49.4559 26.5587C51.061 27.0156 52.9666 27.378 55.0638 27.6252C57.161 27.8725 59.4088 27.9997 61.6788 27.9997C63.9487 27.9997 66.1966 27.8725 68.2937 27.6252C70.3909 27.378 72.2965 27.0156 73.9015 26.5587C75.5067 26.1018 76.7801 25.5595 77.6486 24.9625C78.5174 24.3656 78.9645 23.7258 78.9645 23.0797V19.0263C78.9629 18.6361 78.418 18.2621 77.4489 17.9862C76.4796 17.7103 75.1654 17.5551 73.7948 17.5547ZM76.7027 23.0794C76.7027 24.2136 75.1198 25.3012 72.3023 26.1032C69.4849 26.9051 65.6635 27.3557 61.6788 27.3557C57.6942 27.3557 53.8728 26.9051 51.0552 26.1032C48.2377 25.3012 46.6548 24.2136 46.6548 23.0794V19.0263C46.6614 18.808 46.9706 18.5993 47.5153 18.4456C48.0599 18.2919 48.7957 18.2057 49.5626 18.2057C50.3295 18.2057 51.0654 18.2919 51.61 18.4456C52.1546 18.5993 52.4639 18.808 52.4705 19.0263V22.6916C52.4705 23.3867 53.4406 24.0534 55.1675 24.5449C56.8944 25.0364 59.2366 25.3126 61.6788 25.3126C64.1209 25.3126 66.4632 25.0364 68.1902 24.5449C69.9168 24.0534 70.887 23.3867 70.887 22.6916V19.0263C70.887 18.8067 71.1933 18.5962 71.7388 18.441C72.2842 18.2858 73.0237 18.1986 73.7948 18.1986C74.5662 18.1986 75.3057 18.2858 75.8512 18.441C76.3963 18.5962 76.7027 18.8067 76.7027 19.0263V23.0794Z" fill="#FF8B6A"/>
<path d="M60.548 18.3049V22.5484C60.548 22.6338 60.6671 22.7156 60.8792 22.776C61.0913 22.8364 61.3789 22.8703 61.6789 22.8703C61.9788 22.8703 62.2664 22.8364 62.4785 22.776C62.6906 22.7156 62.8097 22.6338 62.8097 22.5484V18.3049C64.2698 18.2249 65.5726 17.9928 66.4637 17.654C67.3548 17.3152 67.7703 16.894 67.629 16.4727C67.4877 16.0514 66.7998 15.6602 65.6995 15.3755C64.5993 15.0909 63.1658 14.9331 61.6789 14.9331C60.1919 14.9331 58.7584 15.0909 57.6582 15.3755C56.5579 15.6602 55.87 16.0514 55.7287 16.4727C55.5874 16.894 56.0029 17.3152 56.894 17.654C57.7852 17.9928 59.0879 18.2249 60.548 18.3049ZM61.6789 15.5775C62.4138 15.5775 63.1321 15.6396 63.7432 15.7558C64.3542 15.872 64.8305 16.0372 65.1117 16.2304C65.3929 16.4237 65.4665 16.6363 65.3231 16.8415C65.1797 17.0466 64.8258 17.2351 64.3062 17.383C63.7865 17.5309 63.1244 17.6316 62.4036 17.6724C61.6828 17.7132 60.9357 17.6923 60.2568 17.6122C59.5778 17.5322 58.9975 17.3966 58.5893 17.2227C58.181 17.0487 57.9631 16.8443 57.9632 16.6351C57.9643 16.3547 58.3562 16.0859 59.0527 15.8876C59.7493 15.6894 60.6938 15.5779 61.6789 15.5775Z" fill="#FF8B6A"/>
<path d="M17.2794 0.40303H22.2451V5.85004C22.2451 6.44714 21.7811 6.97228 20.8532 7.42551C19.934 7.87878 18.6401 8.23293 16.9716 8.48806C15.303 8.74048 13.3533 8.86667 11.1226 8.86667C8.88288 8.86667 6.92873 8.74048 5.26012 8.48806C3.59152 8.23293 2.29768 7.87878 1.37861 7.42551C0.459536 6.97228 0 6.44714 0 5.85004V0.40303H4.96567V5.72385C4.96567 6.07124 5.21551 6.38064 5.71519 6.65205C6.22382 6.92342 6.93765 7.1365 7.85672 7.2912C8.7758 7.44315 9.86441 7.51917 11.1226 7.51917C12.3807 7.51917 13.4693 7.44315 14.3884 7.2912C15.3164 7.1365 16.0301 6.92342 16.5299 6.65205C17.0296 6.38064 17.2794 6.07124 17.2794 5.72385V0.40303ZM37.6942 2.48739V3.62727H25.8756V2.48739H37.6942ZM28.7934 0.989254H33.6386V6.85967C33.6386 7.05777 33.7368 7.20977 33.9331 7.31561C34.1383 7.41874 34.4061 7.4893 34.7363 7.52729C35.0664 7.56532 35.4323 7.58431 35.8338 7.58431C36.1372 7.58431 36.4138 7.5775 36.6636 7.56392C36.9224 7.55039 37.1187 7.53816 37.2524 7.52729L38.069 8.67939C37.8101 8.70655 37.4399 8.73637 36.9581 8.76895C36.4851 8.80152 35.9051 8.82051 35.2181 8.82597C34.0046 8.8368 32.9115 8.78117 31.9388 8.65905C30.9663 8.53421 30.1944 8.34153 29.6233 8.08094C29.0612 7.8204 28.7846 7.49471 28.7934 7.10393V0.989254ZM41.7464 8.74048V2.48739H46.5916V8.74048H41.7464ZM44.1823 1.59991C43.415 1.59991 42.7546 1.52256 42.2015 1.36786C41.6482 1.21045 41.3716 1.02182 41.3716 0.80199C41.3716 0.579441 41.6482 0.390817 42.2015 0.236118C42.7546 0.0787061 43.415 0 44.1823 0C44.9587 0 45.619 0.0787061 46.1632 0.236118C46.7165 0.390817 46.9931 0.579441 46.9931 0.80199C46.9931 1.02182 46.7165 1.21045 46.1632 1.36786C45.619 1.52256 44.9587 1.59991 44.1823 1.59991ZM56.4192 0.40303V8.74048H51.574V0.40303H56.4192ZM66.2467 0.40303V8.74048H61.4015V0.40303H66.2467ZM77.1452 8.86667C75.8423 8.86667 74.6689 8.79611 73.625 8.65499C72.5899 8.51111 71.769 8.29943 71.1623 8.0199C70.5644 7.74037 70.2655 7.39569 70.2655 6.98586C70.2655 6.63306 70.4797 6.3413 70.9079 6.11058C71.3363 5.87991 71.9207 5.69534 72.6613 5.55693C73.4019 5.41851 74.2362 5.31403 75.1643 5.24347C76.1011 5.1702 77.0693 5.11728 78.0687 5.08471C79.2732 5.04672 80.2503 5.01279 80.9999 4.98293C81.7495 4.95035 82.2937 4.90149 82.6328 4.83635C82.9809 4.76849 83.1548 4.66403 83.1548 4.5229V4.49847C83.1548 4.19179 82.8559 3.95431 82.258 3.78604C81.6602 3.61777 80.7991 3.53364 79.6749 3.53364C78.488 3.53364 77.5467 3.61235 76.8507 3.76976C76.1637 3.92717 75.6996 4.11308 75.4587 4.32749L70.9348 4.13208C71.2916 3.75212 71.8806 3.43458 72.7015 3.17946C73.5224 2.92163 74.5263 2.72894 75.713 2.60138C76.8997 2.47111 78.2114 2.40597 79.648 2.40597C80.6385 2.40597 81.6246 2.44125 82.6061 2.51181C83.5876 2.58238 84.4844 2.69908 85.2964 2.86192C86.1083 3.02205 86.7597 3.24052 87.2504 3.51736C87.7501 3.79418 88 4.14022 88 4.55546V8.74048H83.3421V7.88149H83.1815C82.887 8.05518 82.4722 8.218 81.9368 8.36999C81.4104 8.51928 80.7457 8.64005 79.9425 8.73231C79.1483 8.82187 78.216 8.86667 77.1452 8.86667ZM78.4033 7.78377C79.3758 7.78377 80.2191 7.72543 80.933 7.60872C81.6469 7.4893 82.1956 7.33189 82.5792 7.1365C82.9719 6.94106 83.1682 6.72803 83.1682 6.49735V5.76049C83.0165 5.79847 82.7577 5.83375 82.3919 5.86633C82.035 5.8989 81.6334 5.92741 81.1872 5.95182C80.7411 5.97623 80.2994 5.99797 79.8622 6.01697C79.425 6.03596 79.0457 6.05225 78.7245 6.06583C78.0018 6.09565 77.3548 6.14451 76.7838 6.21236C76.2127 6.28021 75.762 6.37523 75.4319 6.49735C75.1017 6.61677 74.9367 6.77147 74.9367 6.96145C74.9367 7.23282 75.2623 7.43773 75.9138 7.57615C76.5652 7.71456 77.3951 7.78377 78.4033 7.78377Z" fill="#2D2D2D"/>
<path d="M17.2794 0.40303H22.2451V5.85004C22.2451 6.44714 21.7811 6.97228 20.8532 7.42551C19.934 7.87878 18.6401 8.23293 16.9716 8.48806C15.303 8.74048 13.3533 8.86667 11.1226 8.86667C8.88288 8.86667 6.92873 8.74048 5.26012 8.48806C3.59152 8.23293 2.29768 7.87878 1.37861 7.42551C0.459536 6.97228 0 6.44714 0 5.85004V0.40303H4.96567V5.72385C4.96567 6.07124 5.21551 6.38064 5.71519 6.65205C6.22382 6.92342 6.93765 7.1365 7.85672 7.2912C8.7758 7.44315 9.86441 7.51917 11.1226 7.51917C12.3807 7.51917 13.4693 7.44315 14.3884 7.2912C15.3164 7.1365 16.0301 6.92342 16.5299 6.65205C17.0296 6.38064 17.2794 6.07124 17.2794 5.72385V0.40303ZM37.6942 2.48739V3.62727H25.8756V2.48739H37.6942ZM28.7934 0.989254H33.6386V6.85967C33.6386 7.05777 33.7368 7.20977 33.9331 7.31561C34.1383 7.41874 34.4061 7.4893 34.7363 7.52729C35.0664 7.56532 35.4323 7.58431 35.8338 7.58431C36.1372 7.58431 36.4138 7.5775 36.6636 7.56392C36.9224 7.55039 37.1187 7.53816 37.2524 7.52729L38.069 8.67939C37.8101 8.70655 37.4399 8.73637 36.9581 8.76895C36.4851 8.80152 35.9051 8.82051 35.2181 8.82597C34.0046 8.8368 32.9115 8.78117 31.9388 8.65905C30.9663 8.53421 30.1944 8.34153 29.6233 8.08094C29.0612 7.8204 28.7846 7.49471 28.7934 7.10393V0.989254ZM41.7464 8.74048V2.48739H46.5916V8.74048H41.7464ZM44.1823 1.59991C43.415 1.59991 42.7546 1.52256 42.2015 1.36786C41.6482 1.21045 41.3716 1.02182 41.3716 0.80199C41.3716 0.579441 41.6482 0.390817 42.2015 0.236118C42.7546 0.0787061 43.415 0 44.1823 0C44.9587 0 45.619 0.0787061 46.1632 0.236118C46.7165 0.390817 46.9931 0.579441 46.9931 0.80199C46.9931 1.02182 46.7165 1.21045 46.1632 1.36786C45.619 1.52256 44.9587 1.59991 44.1823 1.59991ZM56.4192 0.40303V8.74048H51.574V0.40303H56.4192ZM66.2467 0.40303V8.74048H61.4015V0.40303H66.2467ZM77.1452 8.86667C75.8423 8.86667 74.6689 8.79611 73.625 8.65499C72.5899 8.51111 71.769 8.29943 71.1623 8.0199C70.5644 7.74037 70.2655 7.39569 70.2655 6.98586C70.2655 6.63306 70.4797 6.3413 70.9079 6.11058C71.3363 5.87991 71.9207 5.69534 72.6613 5.55693C73.4019 5.41851 74.2362 5.31403 75.1643 5.24347C76.1011 5.1702 77.0693 5.11728 78.0687 5.08471C79.2732 5.04672 80.2503 5.01279 80.9999 4.98293C81.7495 4.95035 82.2937 4.90149 82.6328 4.83635C82.9809 4.76849 83.1548 4.66403 83.1548 4.5229V4.49847C83.1548 4.19179 82.8559 3.95431 82.258 3.78604C81.6602 3.61777 80.7991 3.53364 79.6749 3.53364C78.488 3.53364 77.5467 3.61235 76.8507 3.76976C76.1637 3.92717 75.6996 4.11308 75.4587 4.32749L70.9348 4.13208C71.2916 3.75212 71.8806 3.43458 72.7015 3.17946C73.5224 2.92163 74.5263 2.72894 75.713 2.60138C76.8997 2.47111 78.2114 2.40597 79.648 2.40597C80.6385 2.40597 81.6246 2.44125 82.6061 2.51181C83.5876 2.58238 84.4844 2.69908 85.2964 2.86192C86.1083 3.02205 86.7597 3.24052 87.2504 3.51736C87.7501 3.79418 88 4.14022 88 4.55546V8.74048H83.3421V7.88149H83.1815C82.887 8.05518 82.4722 8.218 81.9368 8.36999C81.4104 8.51928 80.7457 8.64005 79.9425 8.73231C79.1483 8.82187 78.216 8.86667 77.1452 8.86667ZM78.4033 7.78377C79.3758 7.78377 80.2191 7.72543 80.933 7.60872C81.6469 7.4893 82.1956 7.33189 82.5792 7.1365C82.9719 6.94106 83.1682 6.72803 83.1682 6.49735V5.76049C83.0165 5.79847 82.7577 5.83375 82.3919 5.86633C82.035 5.8989 81.6334 5.92741 81.1872 5.95182C80.7411 5.97623 80.2994 5.99797 79.8622 6.01697C79.425 6.03596 79.0457 6.05225 78.7245 6.06583C78.0018 6.09565 77.3548 6.14451 76.7838 6.21236C76.2127 6.28021 75.762 6.37523 75.4319 6.49735C75.1017 6.61677 74.9367 6.77147 74.9367 6.96145C74.9367 7.23282 75.2623 7.43773 75.9138 7.57615C76.5652 7.71456 77.3951 7.78377 78.4033 7.78377Z" fill="#2D2D2D"/>
<path d="M17.2794 0.40303H22.2451V5.85004C22.2451 6.44714 21.7811 6.97228 20.8532 7.42551C19.934 7.87878 18.6401 8.23293 16.9716 8.48806C15.303 8.74048 13.3533 8.86667 11.1226 8.86667C8.88288 8.86667 6.92873 8.74048 5.26012 8.48806C3.59152 8.23293 2.29768 7.87878 1.37861 7.42551C0.459536 6.97228 0 6.44714 0 5.85004V0.40303H4.96567V5.72385C4.96567 6.07124 5.21551 6.38064 5.71519 6.65205C6.22382 6.92342 6.93765 7.1365 7.85672 7.2912C8.7758 7.44315 9.86441 7.51917 11.1226 7.51917C12.3807 7.51917 13.4693 7.44315 14.3884 7.2912C15.3164 7.1365 16.0301 6.92342 16.5299 6.65205C17.0296 6.38064 17.2794 6.07124 17.2794 5.72385V0.40303ZM37.6942 2.48739V3.62727H25.8756V2.48739H37.6942ZM28.7934 0.989254H33.6386V6.85967C33.6386 7.05777 33.7368 7.20977 33.9331 7.31561C34.1383 7.41874 34.4061 7.4893 34.7363 7.52729C35.0664 7.56532 35.4323 7.58431 35.8338 7.58431C36.1372 7.58431 36.4138 7.5775 36.6636 7.56392C36.9224 7.55039 37.1187 7.53816 37.2524 7.52729L38.069 8.67939C37.8101 8.70655 37.4399 8.73637 36.9581 8.76895C36.4851 8.80152 35.9051 8.82051 35.2181 8.82597C34.0046 8.8368 32.9115 8.78117 31.9388 8.65905C30.9663 8.53421 30.1944 8.34153 29.6233 8.08094C29.0612 7.8204 28.7846 7.49471 28.7934 7.10393V0.989254ZM41.7464 8.74048V2.48739H46.5916V8.74048H41.7464ZM44.1823 1.59991C43.415 1.59991 42.7546 1.52256 42.2015 1.36786C41.6482 1.21045 41.3716 1.02182 41.3716 0.80199C41.3716 0.579441 41.6482 0.390817 42.2015 0.236118C42.7546 0.0787061 43.415 0 44.1823 0C44.9587 0 45.619 0.0787061 46.1632 0.236118C46.7165 0.390817 46.9931 0.579441 46.9931 0.80199C46.9931 1.02182 46.7165 1.21045 46.1632 1.36786C45.619 1.52256 44.9587 1.59991 44.1823 1.59991ZM56.4192 0.40303V8.74048H51.574V0.40303H56.4192ZM66.2467 0.40303V8.74048H61.4015V0.40303H66.2467ZM77.1452 8.86667C75.8423 8.86667 74.6689 8.79611 73.625 8.65499C72.5899 8.51111 71.769 8.29943 71.1623 8.0199C70.5644 7.74037 70.2655 7.39569 70.2655 6.98586C70.2655 6.63306 70.4797 6.3413 70.9079 6.11058C71.3363 5.87991 71.9207 5.69534 72.6613 5.55693C73.4019 5.41851 74.2362 5.31403 75.1643 5.24347C76.1011 5.1702 77.0693 5.11728 78.0687 5.08471C79.2732 5.04672 80.2503 5.01279 80.9999 4.98293C81.7495 4.95035 82.2937 4.90149 82.6328 4.83635C82.9809 4.76849 83.1548 4.66403 83.1548 4.5229V4.49847C83.1548 4.19179 82.8559 3.95431 82.258 3.78604C81.6602 3.61777 80.7991 3.53364 79.6749 3.53364C78.488 3.53364 77.5467 3.61235 76.8507 3.76976C76.1637 3.92717 75.6996 4.11308 75.4587 4.32749L70.9348 4.13208C71.2916 3.75212 71.8806 3.43458 72.7015 3.17946C73.5224 2.92163 74.5263 2.72894 75.713 2.60138C76.8997 2.47111 78.2114 2.40597 79.648 2.40597C80.6385 2.40597 81.6246 2.44125 82.6061 2.51181C83.5876 2.58238 84.4844 2.69908 85.2964 2.86192C86.1083 3.02205 86.7597 3.24052 87.2504 3.51736C87.7501 3.79418 88 4.14022 88 4.55546V8.74048H83.3421V7.88149H83.1815C82.887 8.05518 82.4722 8.218 81.9368 8.36999C81.4104 8.51928 80.7457 8.64005 79.9425 8.73231C79.1483 8.82187 78.216 8.86667 77.1452 8.86667ZM78.4033 7.78377C79.3758 7.78377 80.2191 7.72543 80.933 7.60872C81.6469 7.4893 82.1956 7.33189 82.5792 7.1365C82.9719 6.94106 83.1682 6.72803 83.1682 6.49735V5.76049C83.0165 5.79847 82.7577 5.83375 82.3919 5.86633C82.035 5.8989 81.6334 5.92741 81.1872 5.95182C80.7411 5.97623 80.2994 5.99797 79.8622 6.01697C79.425 6.03596 79.0457 6.05225 78.7245 6.06583C78.0018 6.09565 77.3548 6.14451 76.7838 6.21236C76.2127 6.28021 75.762 6.37523 75.4319 6.49735C75.1017 6.61677 74.9367 6.77147 74.9367 6.96145C74.9367 7.23282 75.2623 7.43773 75.9138 7.57615C76.5652 7.71456 77.3951 7.78377 78.4033 7.78377Z" fill="#2D2D2D"/>
<path d="M17.2794 0.40303H22.2451V5.85004C22.2451 6.44714 21.7811 6.97228 20.8532 7.42551C19.934 7.87878 18.6401 8.23293 16.9716 8.48806C15.303 8.74048 13.3533 8.86667 11.1226 8.86667C8.88288 8.86667 6.92873 8.74048 5.26012 8.48806C3.59152 8.23293 2.29768 7.87878 1.37861 7.42551C0.459536 6.97228 0 6.44714 0 5.85004V0.40303H4.96567V5.72385C4.96567 6.07124 5.21551 6.38064 5.71519 6.65205C6.22382 6.92342 6.93765 7.1365 7.85672 7.2912C8.7758 7.44315 9.86441 7.51917 11.1226 7.51917C12.3807 7.51917 13.4693 7.44315 14.3884 7.2912C15.3164 7.1365 16.0301 6.92342 16.5299 6.65205C17.0296 6.38064 17.2794 6.07124 17.2794 5.72385V0.40303ZM37.6942 2.48739V3.62727H25.8756V2.48739H37.6942ZM28.7934 0.989254H33.6386V6.85967C33.6386 7.05777 33.7368 7.20977 33.9331 7.31561C34.1383 7.41874 34.4061 7.4893 34.7363 7.52729C35.0664 7.56532 35.4323 7.58431 35.8338 7.58431C36.1372 7.58431 36.4138 7.5775 36.6636 7.56392C36.9224 7.55039 37.1187 7.53816 37.2524 7.52729L38.069 8.67939C37.8101 8.70655 37.4399 8.73637 36.9581 8.76895C36.4851 8.80152 35.9051 8.82051 35.2181 8.82597C34.0046 8.8368 32.9115 8.78117 31.9388 8.65905C30.9663 8.53421 30.1944 8.34153 29.6233 8.08094C29.0612 7.8204 28.7846 7.49471 28.7934 7.10393V0.989254ZM41.7464 8.74048V2.48739H46.5916V8.74048H41.7464ZM44.1823 1.59991C43.415 1.59991 42.7546 1.52256 42.2015 1.36786C41.6482 1.21045 41.3716 1.02182 41.3716 0.80199C41.3716 0.579441 41.6482 0.390817 42.2015 0.236118C42.7546 0.0787061 43.415 0 44.1823 0C44.9587 0 45.619 0.0787061 46.1632 0.236118C46.7165 0.390817 46.9931 0.579441 46.9931 0.80199C46.9931 1.02182 46.7165 1.21045 46.1632 1.36786C45.619 1.52256 44.9587 1.59991 44.1823 1.59991ZM56.4192 0.40303V8.74048H51.574V0.40303H56.4192ZM66.2467 0.40303V8.74048H61.4015V0.40303H66.2467ZM77.1452 8.86667C75.8423 8.86667 74.6689 8.79611 73.625 8.65499C72.5899 8.51111 71.769 8.29943 71.1623 8.0199C70.5644 7.74037 70.2655 7.39569 70.2655 6.98586C70.2655 6.63306 70.4797 6.3413 70.9079 6.11058C71.3363 5.87991 71.9207 5.69534 72.6613 5.55693C73.4019 5.41851 74.2362 5.31403 75.1643 5.24347C76.1011 5.1702 77.0693 5.11728 78.0687 5.08471C79.2732 5.04672 80.2503 5.01279 80.9999 4.98293C81.7495 4.95035 82.2937 4.90149 82.6328 4.83635C82.9809 4.76849 83.1548 4.66403 83.1548 4.5229V4.49847C83.1548 4.19179 82.8559 3.95431 82.258 3.78604C81.6602 3.61777 80.7991 3.53364 79.6749 3.53364C78.488 3.53364 77.5467 3.61235 76.8507 3.76976C76.1637 3.92717 75.6996 4.11308 75.4587 4.32749L70.9348 4.13208C71.2916 3.75212 71.8806 3.43458 72.7015 3.17946C73.5224 2.92163 74.5263 2.72894 75.713 2.60138C76.8997 2.47111 78.2114 2.40597 79.648 2.40597C80.6385 2.40597 81.6246 2.44125 82.6061 2.51181C83.5876 2.58238 84.4844 2.69908 85.2964 2.86192C86.1083 3.02205 86.7597 3.24052 87.2504 3.51736C87.7501 3.79418 88 4.14022 88 4.55546V8.74048H83.3421V7.88149H83.1815C82.887 8.05518 82.4722 8.218 81.9368 8.36999C81.4104 8.51928 80.7457 8.64005 79.9425 8.73231C79.1483 8.82187 78.216 8.86667 77.1452 8.86667ZM78.4033 7.78377C79.3758 7.78377 80.2191 7.72543 80.933 7.60872C81.6469 7.4893 82.1956 7.33189 82.5792 7.1365C82.9719 6.94106 83.1682 6.72803 83.1682 6.49735V5.76049C83.0165 5.79847 82.7577 5.83375 82.3919 5.86633C82.035 5.8989 81.6334 5.92741 81.1872 5.95182C80.7411 5.97623 80.2994 5.99797 79.8622 6.01697C79.425 6.03596 79.0457 6.05225 78.7245 6.06583C78.0018 6.09565 77.3548 6.14451 76.7838 6.21236C76.2127 6.28021 75.762 6.37523 75.4319 6.49735C75.1017 6.61677 74.9367 6.77147 74.9367 6.96145C74.9367 7.23282 75.2623 7.43773 75.9138 7.57615C76.5652 7.71456 77.3951 7.78377 78.4033 7.78377Z" fill="#2D2D2D"/>
<path d="M17.2794 0.40303H22.2451V5.85004C22.2451 6.44714 21.7811 6.97228 20.8532 7.42551C19.934 7.87878 18.6401 8.23293 16.9716 8.48806C15.303 8.74048 13.3533 8.86667 11.1226 8.86667C8.88288 8.86667 6.92873 8.74048 5.26012 8.48806C3.59152 8.23293 2.29768 7.87878 1.37861 7.42551C0.459536 6.97228 0 6.44714 0 5.85004V0.40303H4.96567V5.72385C4.96567 6.07124 5.21551 6.38064 5.71519 6.65205C6.22382 6.92342 6.93765 7.1365 7.85672 7.2912C8.7758 7.44315 9.86441 7.51917 11.1226 7.51917C12.3807 7.51917 13.4693 7.44315 14.3884 7.2912C15.3164 7.1365 16.0301 6.92342 16.5299 6.65205C17.0296 6.38064 17.2794 6.07124 17.2794 5.72385V0.40303ZM37.6942 2.48739V3.62727H25.8756V2.48739H37.6942ZM28.7934 0.989254H33.6386V6.85967C33.6386 7.05777 33.7368 7.20977 33.9331 7.31561C34.1383 7.41874 34.4061 7.4893 34.7363 7.52729C35.0664 7.56532 35.4323 7.58431 35.8338 7.58431C36.1372 7.58431 36.4138 7.5775 36.6636 7.56392C36.9224 7.55039 37.1187 7.53816 37.2524 7.52729L38.069 8.67939C37.8101 8.70655 37.4399 8.73637 36.9581 8.76895C36.4851 8.80152 35.9051 8.82051 35.2181 8.82597C34.0046 8.8368 32.9115 8.78117 31.9388 8.65905C30.9663 8.53421 30.1944 8.34153 29.6233 8.08094C29.0612 7.8204 28.7846 7.49471 28.7934 7.10393V0.989254ZM41.7464 8.74048V2.48739H46.5916V8.74048H41.7464ZM44.1823 1.59991C43.415 1.59991 42.7546 1.52256 42.2015 1.36786C41.6482 1.21045 41.3716 1.02182 41.3716 0.80199C41.3716 0.579441 41.6482 0.390817 42.2015 0.236118C42.7546 0.0787061 43.415 0 44.1823 0C44.9587 0 45.619 0.0787061 46.1632 0.236118C46.7165 0.390817 46.9931 0.579441 46.9931 0.80199C46.9931 1.02182 46.7165 1.21045 46.1632 1.36786C45.619 1.52256 44.9587 1.59991 44.1823 1.59991ZM56.4192 0.40303V8.74048H51.574V0.40303H56.4192ZM66.2467 0.40303V8.74048H61.4015V0.40303H66.2467ZM77.1452 8.86667C75.8423 8.86667 74.6689 8.79611 73.625 8.65499C72.5899 8.51111 71.769 8.29943 71.1623 8.0199C70.5644 7.74037 70.2655 7.39569 70.2655 6.98586C70.2655 6.63306 70.4797 6.3413 70.9079 6.11058C71.3363 5.87991 71.9207 5.69534 72.6613 5.55693C73.4019 5.41851 74.2362 5.31403 75.1643 5.24347C76.1011 5.1702 77.0693 5.11728 78.0687 5.08471C79.2732 5.04672 80.2503 5.01279 80.9999 4.98293C81.7495 4.95035 82.2937 4.90149 82.6328 4.83635C82.9809 4.76849 83.1548 4.66403 83.1548 4.5229V4.49847C83.1548 4.19179 82.8559 3.95431 82.258 3.78604C81.6602 3.61777 80.7991 3.53364 79.6749 3.53364C78.488 3.53364 77.5467 3.61235 76.8507 3.76976C76.1637 3.92717 75.6996 4.11308 75.4587 4.32749L70.9348 4.13208C71.2916 3.75212 71.8806 3.43458 72.7015 3.17946C73.5224 2.92163 74.5263 2.72894 75.713 2.60138C76.8997 2.47111 78.2114 2.40597 79.648 2.40597C80.6385 2.40597 81.6246 2.44125 82.6061 2.51181C83.5876 2.58238 84.4844 2.69908 85.2964 2.86192C86.1083 3.02205 86.7597 3.24052 87.2504 3.51736C87.7501 3.79418 88 4.14022 88 4.55546V8.74048H83.3421V7.88149H83.1815C82.887 8.05518 82.4722 8.218 81.9368 8.36999C81.4104 8.51928 80.7457 8.64005 79.9425 8.73231C79.1483 8.82187 78.216 8.86667 77.1452 8.86667ZM78.4033 7.78377C79.3758 7.78377 80.2191 7.72543 80.933 7.60872C81.6469 7.4893 82.1956 7.33189 82.5792 7.1365C82.9719 6.94106 83.1682 6.72803 83.1682 6.49735V5.76049C83.0165 5.79847 82.7577 5.83375 82.3919 5.86633C82.035 5.8989 81.6334 5.92741 81.1872 5.95182C80.7411 5.97623 80.2994 5.99797 79.8622 6.01697C79.425 6.03596 79.0457 6.05225 78.7245 6.06583C78.0018 6.09565 77.3548 6.14451 76.7838 6.21236C76.2127 6.28021 75.762 6.37523 75.4319 6.49735C75.1017 6.61677 74.9367 6.77147 74.9367 6.96145C74.9367 7.23282 75.2623 7.43773 75.9138 7.57615C76.5652 7.71456 77.3951 7.78377 78.4033 7.78377Z" fill="#2D2D2D"/>
<path d="M17.2794 0.40303H22.2451V5.85004C22.2451 6.44714 21.7811 6.97228 20.8532 7.42551C19.934 7.87878 18.6401 8.23293 16.9716 8.48806C15.303 8.74048 13.3533 8.86667 11.1226 8.86667C8.88288 8.86667 6.92873 8.74048 5.26012 8.48806C3.59152 8.23293 2.29768 7.87878 1.37861 7.42551C0.459536 6.97228 0 6.44714 0 5.85004V0.40303H4.96567V5.72385C4.96567 6.07124 5.21551 6.38064 5.71519 6.65205C6.22382 6.92342 6.93765 7.1365 7.85672 7.2912C8.7758 7.44315 9.86441 7.51917 11.1226 7.51917C12.3807 7.51917 13.4693 7.44315 14.3884 7.2912C15.3164 7.1365 16.0301 6.92342 16.5299 6.65205C17.0296 6.38064 17.2794 6.07124 17.2794 5.72385V0.40303ZM37.6942 2.48739V3.62727H25.8756V2.48739H37.6942ZM28.7934 0.989254H33.6386V6.85967C33.6386 7.05777 33.7368 7.20977 33.9331 7.31561C34.1383 7.41874 34.4061 7.4893 34.7363 7.52729C35.0664 7.56532 35.4323 7.58431 35.8338 7.58431C36.1372 7.58431 36.4138 7.5775 36.6636 7.56392C36.9224 7.55039 37.1187 7.53816 37.2524 7.52729L38.069 8.67939C37.8101 8.70655 37.4399 8.73637 36.9581 8.76895C36.4851 8.80152 35.9051 8.82051 35.2181 8.82597C34.0046 8.8368 32.9115 8.78117 31.9388 8.65905C30.9663 8.53421 30.1944 8.34153 29.6233 8.08094C29.0612 7.8204 28.7846 7.49471 28.7934 7.10393V0.989254ZM41.7464 8.74048V2.48739H46.5916V8.74048H41.7464ZM44.1823 1.59991C43.415 1.59991 42.7546 1.52256 42.2015 1.36786C41.6482 1.21045 41.3716 1.02182 41.3716 0.80199C41.3716 0.579441 41.6482 0.390817 42.2015 0.236118C42.7546 0.0787061 43.415 0 44.1823 0C44.9587 0 45.619 0.0787061 46.1632 0.236118C46.7165 0.390817 46.9931 0.579441 46.9931 0.80199C46.9931 1.02182 46.7165 1.21045 46.1632 1.36786C45.619 1.52256 44.9587 1.59991 44.1823 1.59991ZM56.4192 0.40303V8.74048H51.574V0.40303H56.4192ZM66.2467 0.40303V8.74048H61.4015V0.40303H66.2467ZM77.1452 8.86667C75.8423 8.86667 74.6689 8.79611 73.625 8.65499C72.5899 8.51111 71.769 8.29943 71.1623 8.0199C70.5644 7.74037 70.2655 7.39569 70.2655 6.98586C70.2655 6.63306 70.4797 6.3413 70.9079 6.11058C71.3363 5.87991 71.9207 5.69534 72.6613 5.55693C73.4019 5.41851 74.2362 5.31403 75.1643 5.24347C76.1011 5.1702 77.0693 5.11728 78.0687 5.08471C79.2732 5.04672 80.2503 5.01279 80.9999 4.98293C81.7495 4.95035 82.2937 4.90149 82.6328 4.83635C82.9809 4.76849 83.1548 4.66403 83.1548 4.5229V4.49847C83.1548 4.19179 82.8559 3.95431 82.258 3.78604C81.6602 3.61777 80.7991 3.53364 79.6749 3.53364C78.488 3.53364 77.5467 3.61235 76.8507 3.76976C76.1637 3.92717 75.6996 4.11308 75.4587 4.32749L70.9348 4.13208C71.2916 3.75212 71.8806 3.43458 72.7015 3.17946C73.5224 2.92163 74.5263 2.72894 75.713 2.60138C76.8997 2.47111 78.2114 2.40597 79.648 2.40597C80.6385 2.40597 81.6246 2.44125 82.6061 2.51181C83.5876 2.58238 84.4844 2.69908 85.2964 2.86192C86.1083 3.02205 86.7597 3.24052 87.2504 3.51736C87.7501 3.79418 88 4.14022 88 4.55546V8.74048H83.3421V7.88149H83.1815C82.887 8.05518 82.4722 8.218 81.9368 8.36999C81.4104 8.51928 80.7457 8.64005 79.9425 8.73231C79.1483 8.82187 78.216 8.86667 77.1452 8.86667ZM78.4033 7.78377C79.3758 7.78377 80.2191 7.72543 80.933 7.60872C81.6469 7.4893 82.1956 7.33189 82.5792 7.1365C82.9719 6.94106 83.1682 6.72803 83.1682 6.49735V5.76049C83.0165 5.79847 82.7577 5.83375 82.3919 5.86633C82.035 5.8989 81.6334 5.92741 81.1872 5.95182C80.7411 5.97623 80.2994 5.99797 79.8622 6.01697C79.425 6.03596 79.0457 6.05225 78.7245 6.06583C78.0018 6.09565 77.3548 6.14451 76.7838 6.21236C76.2127 6.28021 75.762 6.37523 75.4319 6.49735C75.1017 6.61677 74.9367 6.77147 74.9367 6.96145C74.9367 7.23282 75.2623 7.43773 75.9138 7.57615C76.5652 7.71456 77.3951 7.78377 78.4033 7.78377Z" fill="#2D2D2D"/>
</svg>
