<svg width="20" height="20" viewBox="0 0 20 20" fill="none" xmlns="http://www.w3.org/2000/svg">
<path fill-rule="evenodd" clip-rule="evenodd" d="M3.33398 3.33317C3.11297 3.33317 2.901 3.42096 2.74472 3.57724C2.58844 3.73352 2.50065 3.94549 2.50065 4.1665V15.8332C2.50065 16.0542 2.58844 16.2661 2.74472 16.4224C2.901 16.5787 3.11297 16.6665 3.33398 16.6665H16.6673C16.8883 16.6665 17.1003 16.5787 17.2566 16.4224C17.4129 16.2661 17.5007 16.0542 17.5007 15.8332V6.6665C17.5007 6.44549 17.4129 6.23352 17.2566 6.07724C17.1003 5.92096 16.8883 5.83317 16.6673 5.83317H9.16731C8.88868 5.83317 8.62849 5.69392 8.47394 5.46208L7.05466 3.33317H3.33398ZM1.56622 2.39874C2.03505 1.9299 2.67094 1.6665 3.33398 1.6665H7.50065C7.77927 1.6665 8.03947 1.80575 8.19402 2.03759L9.6133 4.1665H16.6673C17.3304 4.1665 17.9663 4.42989 18.4351 4.89873C18.9039 5.36757 19.1673 6.00346 19.1673 6.6665V15.8332C19.1673 16.4962 18.9039 17.1321 18.4351 17.6009C17.9663 18.0698 17.3304 18.3332 16.6673 18.3332H3.33398C2.67094 18.3332 2.03505 18.0698 1.56622 17.6009C1.09738 17.1321 0.833984 16.4962 0.833984 15.8332V4.1665C0.833984 3.50346 1.09738 2.86757 1.56622 2.39874ZM2.74472 3.57724C2.901 3.42096 3.11297 3.33317 3.33398 3.33317H7.05466L8.47394 5.46208C8.62849 5.69392 8.88868 5.83317 9.16731 5.83317H16.6673C16.8883 5.83317 17.1003 5.92096 17.2566 6.07724C17.4129 6.23352 17.5007 6.44549 17.5007 6.6665V15.8332C17.5007 16.0542 17.4129 16.2661 17.2566 16.4224C17.1003 16.5787 16.8883 16.6665 16.6673 16.6665H3.33398C3.11297 16.6665 2.901 16.5787 2.74472 16.4224C2.58844 16.2661 2.50065 16.0542 2.50065 15.8332V4.1665C2.50065 3.94549 2.58844 3.73352 2.74472 3.57724Z" fill="#FF8B6A"/>
<path d="M3.33398 3.33317C3.11297 3.33317 2.901 3.42096 2.74472 3.57724C2.58844 3.73352 2.50065 3.94549 2.50065 4.1665V15.8332C2.50065 16.0542 2.58844 16.2661 2.74472 16.4224C2.901 16.5787 3.11297 16.6665 3.33398 16.6665H16.6673C16.8883 16.6665 17.1003 16.5787 17.2566 16.4224C17.4129 16.2661 17.5007 16.0542 17.5007 15.8332V6.6665C17.5007 6.44549 17.4129 6.23352 17.2566 6.07724C17.1003 5.92096 16.8883 5.83317 16.6673 5.83317H9.16731C8.88868 5.83317 8.62849 5.69392 8.47394 5.46208L7.05466 3.33317H3.33398ZM1.56622 2.39874C2.03505 1.9299 2.67094 1.6665 3.33398 1.6665H7.50065C7.77927 1.6665 8.03947 1.80575 8.19402 2.03759L9.6133 4.1665H16.6673C17.3304 4.1665 17.9663 4.42989 18.4351 4.89873C18.9039 5.36757 19.1673 6.00346 19.1673 6.6665V15.8332C19.1673 16.4962 18.9039 17.1321 18.4351 17.6009C17.9663 18.0698 17.3304 18.3332 16.6673 18.3332H3.33398C2.67094 18.3332 2.03505 18.0698 1.56622 17.6009C1.09738 17.1321 0.833984 16.4962 0.833984 15.8332V4.1665C0.833984 3.50346 1.09738 2.86757 1.56622 2.39874ZM2.74472 3.57724C2.901 3.42096 3.11297 3.33317 3.33398 3.33317H7.05466L8.47394 5.46208C8.62849 5.69392 8.88868 5.83317 9.16731 5.83317H16.6673C16.8883 5.83317 17.1003 5.92096 17.2566 6.07724C17.4129 6.23352 17.5007 6.44549 17.5007 6.6665V15.8332C17.5007 16.0542 17.4129 16.2661 17.2566 16.4224C17.1003 16.5787 16.8883 16.6665 16.6673 16.6665H3.33398C3.11297 16.6665 2.901 16.5787 2.74472 16.4224C2.58844 16.2661 2.50065 16.0542 2.50065 15.8332V4.1665C2.50065 3.94549 2.58844 3.73352 2.74472 3.57724Z" fill="#FF8B6A"/>
</svg>
