<svg width="24" height="24" viewBox="0 0 24 24" fill="none" xmlns="http://www.w3.org/2000/svg">
<path d="M19 3H20C20 2.44771 19.5523 2 19 2V3ZM16 3V2V3ZM11 8H10H11ZM11 11V12C11.5523 12 12 11.5523 12 11H11ZM8 11V10C7.44771 10 7 10.4477 7 11H8ZM8 15H7C7 15.5523 7.44771 16 8 16V15ZM11 15H12C12 14.4477 11.5523 14 11 14V15ZM11 23H10C10 23.5523 10.4477 24 11 24V23ZM15 23V24C15.5523 24 16 23.5523 16 23H15ZM15 15V14C14.4477 14 14 14.4477 14 15H15ZM18 15V16C18.4589 16 18.8589 15.6877 18.9701 15.2425L18 15ZM19 11L19.9701 11.2425C20.0448 10.9438 19.9777 10.6273 19.7882 10.3846C19.5987 10.1419 19.3079 10 19 10V11ZM15 11H14C14 11.5523 14.4477 12 15 12V11ZM16 7V8V7ZM19 7V8C19.5523 8 20 7.55228 20 7H19ZM19 2H16V4H19V2ZM16 2C14.4087 2 12.8826 2.63214 11.7574 3.75736L13.1716 5.17157C13.9217 4.42143 14.9391 4 16 4V2ZM11.7574 3.75736C10.6321 4.88258 10 6.4087 10 8H12C12 6.93913 12.4214 5.92172 13.1716 5.17157L11.7574 3.75736ZM10 8V11H12V8H10ZM11 10H8V12H11V10ZM7 11V15H9V11H7ZM8 16H11V14H8V16ZM10 15V23H12V15H10ZM11 24H15V22H11V24ZM16 23V15H14V23H16ZM15 16H18V14H15V16ZM18.9701 15.2425L19.9701 11.2425L18.0299 10.7575L17.0299 14.7575L18.9701 15.2425ZM19 10H15V12H19V10ZM16 11V8H14V11H16ZM16 8L14.5858 6.58579C14.2107 6.96086 14 7.46957 14 8H16ZM16 8V6C15.4696 6 14.9609 6.21071 14.5858 6.58579L16 8ZM16 8H19V6H16V8ZM20 7V3H18V7H20Z" fill="#424C5D"/>
</svg>
