<svg width="601" height="483" viewBox="0 0 601 483" fill="none" xmlns="http://www.w3.org/2000/svg">
<path d="M2.82512 482.997C2.82512 482.998 2.71178 482.999 2.48262 483H1.90015C1.6712 482.999 1.55787 482.998 1.55787 482.997C1.55787 482.995 1.6712 482.994 1.90015 482.993H2.48262C2.71178 482.994 2.82512 482.995 2.82512 482.997ZM5.35941 482.996C5.36394 482.997 5.33976 482.998 5.28165 482.998C5.22333 482.999 5.12881 483 5.01717 483H4.43471C4.20571 482.999 4.09236 482.998 4.09236 482.997C4.09236 482.995 4.20571 482.994 4.43471 482.993H5.01717C5.135 482.994 5.21126 482.994 5.26665 482.994C5.32223 482.995 5.35466 482.996 5.35941 482.996ZM6.56509 482.951C6.62573 482.951 6.68049 482.954 6.70565 482.959C6.70854 482.964 6.70849 482.969 6.64393 482.974C6.54518 482.979 6.42266 482.981 6.37332 482.98C6.31732 482.979 6.33753 482.977 6.37105 482.972C6.42375 482.968 6.42391 482.964 6.42153 482.959C6.44819 482.954 6.50146 482.951 6.56509 482.951ZM6.56509 482.892C6.62573 482.892 6.68049 482.894 6.70565 482.9V482.913C6.68049 482.919 6.62573 482.921 6.56359 482.921C6.50146 482.921 6.44819 482.919 6.42153 482.913V482.9C6.44819 482.894 6.50146 482.892 6.56509 482.892ZM6.56509 482.832C6.62573 482.832 6.68049 482.835 6.70565 482.84V482.854C6.68049 482.859 6.62573 482.862 6.56359 482.862C6.50146 482.862 6.44819 482.859 6.42153 482.854V482.84C6.44819 482.835 6.50146 482.832 6.56509 482.832ZM5.86851 482.778C5.89563 482.777 6.03624 482.777 6.23822 482.781C6.39091 482.785 6.51316 482.789 6.59257 482.793C6.66095 482.799 6.60743 482.802 6.54966 482.802C6.48506 482.803 6.4287 482.8 6.32913 482.796C6.26442 482.792 6.16427 482.789 6.03929 482.786C5.90955 482.782 5.83498 482.78 5.86851 482.778ZM3.36804 482.774C3.36804 482.772 3.48138 482.771 3.71053 482.771H4.29296C4.52195 482.771 4.63529 482.772 4.63529 482.774C4.63529 482.775 4.52195 482.777 4.29296 482.777H3.71053C3.48138 482.777 3.36804 482.775 3.36804 482.774ZM0.863344 482.778C0.833695 482.777 0.904541 482.774 1.14231 482.772C1.34728 482.77 1.57318 482.77 1.7583 482.771C1.98734 482.771 2.10079 482.772 2.10079 482.774C2.10079 482.775 1.98734 482.777 1.7583 482.777C1.55617 482.777 1.38791 482.777 1.21795 482.778C1.0135 482.779 0.896346 482.779 0.863344 482.778ZM0.140564 482.831C0.079925 482.831 0.0251635 482.829 0 482.823V482.81C0.00928158 482.807 0.0405297 482.805 0.0693543 482.803C0.0987972 482.802 0.130046 482.802 0.160675 482.802C0.191304 482.802 0.217654 482.803 0.237712 482.804C0.258545 482.805 0.267723 482.807 0.28412 482.81V482.823C0.257462 482.829 0.204195 482.831 0.140564 482.831ZM0.140564 482.891C0.079925 482.891 0.0251635 482.888 0 482.883V482.869C0.0251635 482.864 0.079925 482.861 0.14206 482.861C0.204195 482.861 0.257462 482.864 0.28412 482.869V482.883C0.257462 482.888 0.204195 482.891 0.140564 482.891ZM0.140564 482.95C0.079925 482.95 0.0251635 482.948 0 482.942V482.929C0.0251635 482.923 0.079925 482.921 0.14206 482.921C0.204195 482.921 0.257462 482.923 0.28412 482.929V482.942C0.257462 482.948 0.204195 482.95 0.140564 482.95ZM1.31423 482.996C1.30655 482.998 1.17484 482.999 0.930121 482.997C0.734124 482.995 0.557103 482.992 0.412568 482.988C0.261639 482.983 0.265145 482.98 0.316967 482.979C0.374307 482.979 0.464132 482.981 0.621455 482.984C0.739744 482.987 0.884641 482.989 1.04475 482.991C1.22275 482.993 1.3251 482.995 1.31423 482.996Z" fill="#BBCAEA"/>
<path d="M531.183 271.575C531.18 271.575 531.176 271.575 531.171 271.575C531.148 271.575 530.887 271.575 530.569 271.576C530.409 271.576 530.234 271.576 530.068 271.576C529.56 271.576 529.364 271.575 529.364 271.575L529.898 271.575C529.898 271.575 529.989 271.575 530.09 271.575C530.207 271.575 530.337 271.575 530.353 271.575C530.379 271.575 530.79 271.575 530.923 271.575C530.923 271.575 530.923 271.575 530.923 271.575C530.92 271.575 530.916 271.575 530.939 271.575C530.968 271.575 531.013 271.575 531.011 271.575C531.01 271.575 531.377 271.575 531.4 271.575C531.424 271.575 531.222 271.575 531.183 271.575Z" fill="#FEC9AC"/>
<path opacity="0.5" d="M530.551 271.575C530.395 271.575 530.225 271.575 530.06 271.575C529.556 271.575 529.359 271.575 529.359 271.575L529.877 271.575C529.877 271.575 529.968 271.575 530.069 271.575C530.103 271.575 530.156 271.575 530.238 271.575C530.317 271.575 530.426 271.575 530.551 271.575Z" fill="#FFAB90"/>
<path d="M527.14 271.576C527.15 271.576 527.161 271.576 527.171 271.576L527.135 271.576L527.112 271.576H529.586L529.496 271.576L529.474 271.576C529.492 271.576 529.52 271.576 529.555 271.576C529.556 271.576 529.558 271.576 529.559 271.576C529.562 271.576 529.564 271.576 529.567 271.576C529.569 271.576 529.573 271.576 529.576 271.576C529.576 271.576 529.577 271.576 529.578 271.576C529.581 271.576 529.585 271.576 529.589 271.576C529.595 271.576 529.602 271.576 529.609 271.576C529.61 271.576 529.611 271.576 529.612 271.576C529.616 271.576 529.62 271.576 529.624 271.576C529.626 271.576 529.628 271.576 529.631 271.576C529.633 271.576 529.635 271.576 529.637 271.576C529.639 271.576 529.641 271.576 529.644 271.576C529.648 271.576 529.652 271.576 529.656 271.576C529.661 271.576 529.665 271.576 529.67 271.576C529.674 271.576 529.678 271.576 529.682 271.576C529.684 271.576 529.686 271.576 529.689 271.576C529.691 271.576 529.693 271.576 529.695 271.576C529.715 271.576 529.735 271.576 529.755 271.576C529.757 271.576 529.759 271.576 529.762 271.576C529.764 271.576 529.766 271.576 529.768 271.576C529.817 271.576 529.863 271.576 529.901 271.575C529.903 271.575 529.905 271.575 529.907 271.575C529.917 271.575 529.927 271.575 529.936 271.575C529.938 271.575 529.939 271.575 529.941 271.575C529.943 271.575 529.944 271.575 529.946 271.575C529.951 271.575 529.955 271.575 529.96 271.575C529.961 271.575 529.962 271.575 529.964 271.575C529.965 271.575 529.967 271.575 529.969 271.575C529.972 271.575 529.975 271.575 529.978 271.575C529.978 271.575 529.91 271.575 529.623 271.575C529.519 271.575 529.341 271.575 529.22 271.575C528.902 271.575 528.543 271.575 528.176 271.575C528.136 271.575 528.097 271.575 528.058 271.575C527.714 271.575 527.398 271.575 527.142 271.575C527.06 271.575 526.986 271.575 526.922 271.575C526.709 271.575 526.597 271.575 526.597 271.575C526.597 271.575 526.605 271.575 526.619 271.575C526.691 271.575 526.922 271.576 527.14 271.576Z" fill="#FF8B6A"/>
<path d="M528.742 271.575C528.71 271.575 528.588 271.575 528.496 271.575C528.409 271.575 528.317 271.575 528.229 271.575C528.032 271.575 528.027 271.575 528.027 271.575C528.06 271.575 528.077 271.575 528.084 271.575C528.094 271.575 528.09 271.575 528.09 271.575H528.614C528.614 271.575 528.629 271.575 528.646 271.575C528.649 271.575 528.658 271.575 528.671 271.575C528.683 271.575 528.699 271.575 528.718 271.575C528.732 271.575 528.742 271.575 528.742 271.575Z" fill="#FEC9AC"/>
<path opacity="0.5" d="M528.671 271.575C528.492 271.575 528.281 271.575 528.13 271.575C528.114 271.575 528.099 271.575 528.084 271.575C528.094 271.575 528.09 271.575 528.09 271.575H528.614C528.614 271.575 528.629 271.575 528.646 271.575C528.649 271.575 528.658 271.575 528.671 271.575Z" fill="#FFAB90"/>
<path d="M528.789 271.575C528.775 271.575 528.755 271.575 528.686 271.575C528.625 271.575 528.534 271.575 528.444 271.575C528.395 271.575 528.346 271.575 528.3 271.575C528.207 271.575 528.134 271.575 528.07 271.575C528.046 271.575 528.022 271.575 527.999 271.575C527.976 271.575 527.947 271.575 527.916 271.575C527.916 271.575 527.916 271.575 527.916 271.575C527.891 271.575 527.871 271.575 527.852 271.575C527.837 271.575 527.821 271.575 527.817 271.575C527.814 271.575 527.82 271.575 527.832 271.575C527.84 271.575 527.849 271.575 527.859 271.575C527.839 271.575 527.851 271.575 527.894 271.575C527.951 271.575 528.064 271.575 528.2 271.575L528.707 271.575C528.709 271.575 528.741 271.575 528.764 271.575C528.834 271.575 528.821 271.575 528.789 271.575Z" fill="#FEC9AC"/>
<path d="M528.994 271.575C528.974 271.575 528.949 271.575 528.911 271.575C528.873 271.575 528.821 271.575 528.77 271.575C528.728 271.575 528.691 271.575 528.651 271.575C528.625 271.575 528.59 271.575 528.558 271.575C528.524 271.575 528.488 271.575 528.451 271.575L528.42 271.575C528.424 271.575 528.457 271.575 528.475 271.575C528.347 271.575 528.214 271.575 528.166 271.575C528.148 271.575 528.095 271.575 528.095 271.575C528.095 271.575 528.042 271.575 528.018 271.575C527.988 271.575 527.952 271.575 527.92 271.575C527.894 271.575 527.87 271.575 527.863 271.575C527.851 271.575 527.825 271.575 527.803 271.575C527.77 271.575 527.758 271.575 527.765 271.575C527.772 271.575 527.794 271.575 527.815 271.575C527.835 271.575 527.856 271.575 527.893 271.575C527.946 271.575 528.029 271.575 528.119 271.575C528.209 271.575 528.306 271.575 528.402 271.575C528.463 271.575 528.525 271.575 528.583 271.575C528.642 271.575 528.697 271.575 528.734 271.575C528.764 271.575 528.781 271.575 528.806 271.575C528.843 271.575 528.899 271.575 528.964 271.575C528.976 271.575 528.988 271.575 528.996 271.575C529.014 271.575 529.005 271.575 528.994 271.575Z" fill="#2E363A"/>
<path d="M533.35 271.505C533.312 271.505 533.263 271.505 533.219 271.505C533.151 271.505 533.082 271.505 533.013 271.505C532.944 271.505 532.88 271.505 532.845 271.505C532.836 271.505 532.829 271.505 532.819 271.505C532.793 271.505 532.751 271.505 532.709 271.505C532.667 271.505 532.625 271.505 532.584 271.505C532.544 271.505 532.504 271.505 532.464 271.505C532.444 271.505 532.425 271.505 532.406 271.505C532.415 271.505 532.428 271.505 532.441 271.505C532.461 271.505 532.482 271.505 532.52 271.505C532.572 271.505 532.655 271.504 532.745 271.504C532.835 271.504 532.932 271.504 533.028 271.504C533.089 271.504 533.151 271.504 533.21 271.504C533.268 271.504 533.323 271.504 533.361 271.505C533.372 271.505 533.382 271.505 533.391 271.505C533.395 271.505 533.401 271.505 533.403 271.505C533.407 271.505 533.395 271.505 533.35 271.505Z" fill="#3A4146"/>
<path d="M566.109 271.376C566.034 271.376 565.693 271.376 565.606 271.376L565.628 271.376C565.53 271.376 565.432 271.376 565.334 271.376C565.379 271.376 565.516 271.376 565.588 271.376C565.66 271.376 565.684 271.376 565.7 271.376C565.727 271.376 565.745 271.376 565.754 271.376C566.041 271.376 566.109 271.376 566.109 271.376Z" fill="#FF8B6A"/>
<path d="M569.65 271.313C569.618 271.313 569.586 271.313 569.554 271.313C569.532 271.313 569.511 271.313 569.49 271.313C569.478 271.313 569.465 271.313 569.451 271.313C569.448 271.313 569.446 271.313 569.443 271.313C569.298 271.313 569.076 271.313 568.823 271.313C568.541 271.313 568.224 271.313 567.955 271.313C567.952 271.313 567.95 271.313 567.948 271.313C567.804 271.313 567.691 271.313 567.575 271.313C567.507 271.313 567.441 271.313 567.376 271.314L567.354 271.314L567.331 271.314H569.804L569.715 271.313L569.693 271.313C569.71 271.313 569.739 271.313 569.774 271.313C569.775 271.313 569.777 271.313 569.778 271.313C569.78 271.313 569.783 271.313 569.785 271.313C569.788 271.313 569.791 271.313 569.794 271.313C569.795 271.313 569.796 271.313 569.796 271.313C569.8 271.313 569.804 271.313 569.807 271.313C569.814 271.313 569.821 271.313 569.828 271.313C569.829 271.313 569.83 271.313 569.831 271.313C569.835 271.313 569.839 271.313 569.843 271.313C569.783 271.313 569.718 271.313 569.65 271.313Z" fill="#FF8B6A"/>
<path d="M569.896 271.251C569.893 271.251 569.873 271.251 569.836 271.251C569.8 271.251 569.747 271.251 569.689 271.251C569.586 271.251 569.543 271.251 569.474 271.251C569.413 271.251 569.39 271.251 569.4 271.251C569.41 271.251 569.45 271.251 569.519 271.251C569.588 271.251 569.629 271.251 569.725 271.251C569.778 271.251 569.823 271.251 569.853 271.251C569.884 271.251 569.899 271.251 569.896 271.251Z" fill="white"/>
<path d="M573.143 271.184C573.147 271.184 573.137 271.184 573.109 271.184C573.081 271.184 573.032 271.184 572.955 271.184C572.824 271.184 572.674 271.184 572.549 271.184C572.476 271.184 572.428 271.184 572.413 271.184C572.397 271.184 572.408 271.184 572.412 271.184C572.418 271.184 572.419 271.184 572.439 271.184C572.459 271.184 572.5 271.184 572.57 271.184C572.684 271.184 572.82 271.184 572.939 271.184C573.01 271.184 573.059 271.184 573.091 271.184C573.123 271.184 573.139 271.184 573.143 271.184Z" fill="white"/>
<path d="M573.202 270.935C573.202 270.935 572.731 270.935 572.409 270.935C572.333 270.935 572.232 270.935 572.119 270.935C571.748 270.934 571.257 270.934 571.182 270.934C571.171 270.934 571.166 270.934 571.167 270.934C571.17 270.934 571.476 270.934 571.476 270.934C571.478 270.934 571.48 270.934 571.482 270.934C571.482 270.934 571.482 270.934 571.482 270.934C571.483 270.934 571.484 270.934 571.485 270.934C571.552 270.934 571.761 270.934 571.966 270.934C571.962 270.934 571.958 270.934 571.954 270.934C571.953 270.934 571.953 270.934 571.953 270.934C571.92 270.934 572.458 270.934 572.458 270.934C572.458 270.934 572.523 270.934 572.613 270.934C572.703 270.934 572.873 270.934 572.894 270.934C572.915 270.934 572.529 270.935 572.679 270.935C572.804 270.935 573.081 270.935 573.172 270.935C573.191 270.935 573.202 270.935 573.202 270.935Z" fill="#FEC9AC"/>
<path opacity="0.5" d="M571.966 270.934C571.962 270.934 571.958 270.934 571.954 270.934C571.953 270.934 571.952 270.934 571.952 270.934C571.809 270.934 571.639 270.934 571.458 270.934C571.362 270.934 571.265 270.934 571.167 270.934C571.17 270.934 571.476 270.934 571.476 270.934C571.478 270.934 571.48 270.934 571.482 270.934C571.482 270.934 571.482 270.934 571.482 270.934C571.483 270.934 571.484 270.934 571.485 270.934C571.552 270.934 571.76 270.934 571.966 270.934Z" fill="#FFAB90"/>
<path d="M573.205 270.934C573.205 270.934 572.734 270.934 572.411 270.934C572.336 270.934 572.235 270.934 572.121 270.934C571.894 270.934 571.62 270.934 571.426 270.934H572.165C572.304 270.934 572.46 270.934 572.46 270.934C572.46 270.934 572.526 270.934 572.616 270.934C572.649 270.934 572.692 270.934 572.735 270.934L572.692 270.934C572.645 270.934 572.624 270.934 572.682 270.934C572.683 270.934 572.684 270.934 572.685 270.934C572.76 270.934 572.887 270.934 572.996 270.934C573.071 270.934 573.138 270.934 573.175 270.934C573.194 270.934 573.205 270.934 573.205 270.934Z" fill="#FEC9AC"/>
<path d="M586.524 253.702C586.463 253.702 586.409 253.701 586.384 253.701V253.7C586.409 253.7 586.463 253.7 586.526 253.7C586.588 253.7 586.641 253.7 586.668 253.7V253.701C586.641 253.701 586.588 253.702 586.524 253.702Z" fill="#F3F6FD"/>
<path d="M590.458 147.055V147.055C590.458 147.055 590.5 147.055 590.552 147.055H592.532C592.585 147.055 592.627 147.055 592.627 147.055V147.055H590.458Z" fill="#F6F6FE"/>
<path d="M599.603 73.8759C600.099 73.8759 600.501 73.8757 600.501 73.8755C600.501 73.8753 600.099 73.8751 599.603 73.8751C599.106 73.8751 598.704 73.8753 598.704 73.8755C598.704 73.8757 599.106 73.8759 599.603 73.8759Z" fill="#D1DCF8"/>
<path d="M599.603 73.8758C600.044 73.8758 600.401 73.8757 600.401 73.8755C600.401 73.8753 600.044 73.8751 599.603 73.8751C599.162 73.8751 598.804 73.8753 598.804 73.8755C598.804 73.8757 599.162 73.8758 599.603 73.8758Z" fill="#F3F6FD"/>
<path d="M593.278 73.6722C593.278 73.6724 592.921 73.6726 592.48 73.6726C592.167 73.6726 591.896 73.6725 591.765 73.6724C591.911 73.6725 592.133 73.6725 592.38 73.6725C592.821 73.6725 593.179 73.6724 593.179 73.6722C593.179 73.6721 593.149 73.6721 593.096 73.672C593.21 73.6721 593.278 73.6722 593.278 73.6722Z" fill="#E4ECF9"/>
<path d="M583.981 55.9202C584.042 55.9202 584.097 55.9228 584.129 55.9281C584.134 55.9327 584.141 55.9372 584.155 55.9416C584.145 55.947 584.117 55.9492 584.063 55.9498C584.002 55.9505 583.912 55.9475 583.872 55.9421C583.857 55.9375 583.85 55.9329 583.845 55.9283C583.865 55.9229 583.917 55.9202 583.981 55.9202ZM584 55.8607C584.061 55.8607 584.113 55.8634 584.134 55.8688L584.124 55.8825C584.095 55.8878 584.038 55.8905 583.976 55.8904C583.914 55.8904 583.863 55.8878 583.84 55.8824L583.85 55.8686C583.881 55.8633 583.936 55.8606 584 55.8607ZM582.522 55.8375C582.522 55.836 582.635 55.8348 582.865 55.8342H583.447C583.677 55.8348 583.79 55.836 583.79 55.8375C583.79 55.839 583.677 55.8402 583.447 55.8408H582.865C582.635 55.8402 582.522 55.839 582.522 55.8375ZM579.988 55.8375C579.988 55.836 580.101 55.8348 580.33 55.8342H580.913C581.142 55.8348 581.255 55.836 581.255 55.8375C581.255 55.839 581.142 55.8402 580.913 55.8408H580.33C580.101 55.8402 579.988 55.839 579.988 55.8375ZM577.452 55.8375C577.452 55.836 577.565 55.8348 577.794 55.8342H578.377C578.607 55.8348 578.72 55.836 578.72 55.8375C578.72 55.839 578.607 55.8402 578.377 55.8408H577.794C577.565 55.8402 577.452 55.839 577.452 55.8375ZM577.277 55.7822C577.337 55.7822 577.392 55.7848 577.417 55.7902V55.8039C577.392 55.8092 577.337 55.8119 577.275 55.8119C577.213 55.8119 577.16 55.8092 577.133 55.8039V55.7902C577.16 55.7848 577.213 55.7822 577.277 55.7822ZM577.277 55.7227C577.337 55.7227 577.392 55.7253 577.417 55.7307V55.7444C577.392 55.7498 577.337 55.7524 577.275 55.7524C577.213 55.7524 577.16 55.7498 577.133 55.7444V55.7307C577.16 55.7253 577.213 55.7227 577.277 55.7227ZM577.277 55.6632C577.337 55.6632 577.392 55.6658 577.417 55.6712V55.6849C577.392 55.6903 577.337 55.6929 577.275 55.6929C577.213 55.6929 577.16 55.6903 577.133 55.6849V55.6712C577.16 55.6658 577.213 55.6632 577.277 55.6632ZM575.721 55.6401C575.721 55.6387 575.835 55.6374 576.064 55.6368H576.646C576.875 55.6374 576.988 55.6387 576.988 55.6402C576.988 55.6416 576.875 55.6429 576.646 55.6435H576.064C575.835 55.6429 575.721 55.6416 575.721 55.6401ZM573.187 55.6401C573.187 55.6387 573.3 55.6374 573.529 55.6368H574.112C574.341 55.6374 574.454 55.6387 574.454 55.6402C574.454 55.6416 574.341 55.6429 574.112 55.6435H573.529C573.3 55.6429 573.187 55.6416 573.187 55.6401ZM571.128 55.6401C571.128 55.6387 571.199 55.6374 571.342 55.6368H571.706C571.849 55.6374 571.919 55.6387 571.919 55.6402C571.919 55.6416 571.849 55.6429 571.706 55.6435H571.342C571.199 55.6429 571.128 55.6416 571.128 55.6401Z" fill="#BBCAEA"/>
<path d="M570.376 19.4778L570.325 19.4774L570.095 19.4774C570.067 19.4773 570.033 19.4773 569.993 19.4772L570.057 19.4769L569.86 19.4767L569.687 19.4769C569.632 19.4769 569.573 19.4769 569.514 19.4769L569.402 19.4766L569.175 19.4767L569.161 19.477C569.108 19.477 569.059 19.4771 569.016 19.4772L568.795 19.4771L568.67 19.4773L568.823 19.4776C568.806 19.4777 568.795 19.4778 568.793 19.4778L568.591 19.478L568.642 19.4783L568.872 19.4784C568.9 19.4784 568.935 19.4785 568.974 19.4786L568.91 19.4789L569.107 19.4791L569.28 19.4788C569.336 19.4789 569.394 19.4789 569.454 19.4789L569.565 19.4792L569.792 19.4791L569.807 19.4788C569.86 19.4787 569.908 19.4787 569.951 19.4786L570.173 19.4787L570.297 19.4784L570.144 19.4782C570.161 19.4781 570.172 19.478 570.174 19.4779L570.376 19.4778ZM569.593 19.4786C569.325 19.4787 569.058 19.4784 568.998 19.478C568.938 19.4777 569.106 19.4773 569.374 19.4772C569.643 19.4771 569.909 19.4773 569.97 19.4777C570.03 19.4781 569.862 19.4785 569.593 19.4786Z" fill="#E2E8ED"/>
<path d="M569.484 19.4777C569.688 19.4777 569.854 19.4774 569.854 19.4771C569.854 19.4768 569.688 19.4766 569.484 19.4766C569.28 19.4766 569.115 19.4768 569.115 19.4771C569.115 19.4774 569.28 19.4777 569.484 19.4777Z" fill="#E2E8ED"/>
<path d="M559.836 19.1688L559.728 19.1686L559.402 19.1686C559.354 19.1685 559.299 19.1685 559.236 19.1684L559.291 19.1682L558.994 19.168L558.775 19.1682C558.694 19.1682 558.611 19.1682 558.527 19.1682L558.337 19.168L558.026 19.1681L558.043 19.1684C557.974 19.1684 557.911 19.1684 557.857 19.1685L557.535 19.1684L557.391 19.1687L557.634 19.1689C557.619 19.1689 557.614 19.169 557.62 19.1691L557.354 19.1692L557.462 19.1695L557.788 19.1695C557.836 19.1695 557.892 19.1696 557.954 19.1696L557.899 19.1699L558.196 19.17L558.415 19.1698C558.496 19.1698 558.579 19.1698 558.664 19.1698L558.853 19.17L559.164 19.1699L559.147 19.1697C559.217 19.1696 559.279 19.1696 559.333 19.1695L559.655 19.1696L559.799 19.1693L559.556 19.1692C559.571 19.1691 559.576 19.169 559.57 19.169L559.836 19.1688ZM558.827 19.1696C558.46 19.1697 558.058 19.1695 557.93 19.1692C557.802 19.1689 557.997 19.1686 558.364 19.1685C558.732 19.1684 559.133 19.1685 559.261 19.1688C559.389 19.1691 559.195 19.1694 558.827 19.1696Z" fill="#E2E8ED"/>
<path d="M558.596 19.1689C558.884 19.1689 559.118 19.1687 559.118 19.1684C559.118 19.1682 558.884 19.168 558.596 19.168C558.307 19.168 558.073 19.1682 558.073 19.1684C558.073 19.1687 558.307 19.1689 558.596 19.1689Z" fill="#E2E8ED"/>
<path d="M579.225 0.221659C581.24 0.219448 582.379 0.211736 581.769 0.204434C581.159 0.197132 579.03 0.193005 577.015 0.195216C575 0.197427 573.861 0.205139 574.471 0.212441C575.081 0.219743 577.209 0.22387 579.225 0.221659Z" fill="#FE4C40"/>
<path d="M579.242 0.186068C580.633 0.183823 581.259 0.177915 580.639 0.172873C580.02 0.167831 578.389 0.165564 576.998 0.16781C575.606 0.170055 574.98 0.175963 575.6 0.181005C576.22 0.186047 577.85 0.188314 579.242 0.186068Z" fill="#E4ECF9"/>
<path d="M576.225 0.14749C576.225 0.151281 577.074 0.154354 578.12 0.154354C579.166 0.154354 580.014 0.151281 580.014 0.14749C580.014 0.143699 579.166 0.140625 578.12 0.140625C577.074 0.140625 576.225 0.143699 576.225 0.14749Z" fill="#FE4C40"/>
<path d="M577.127 0.120784C577.127 0.12277 577.572 0.12438 578.12 0.12438C578.668 0.12438 579.112 0.12277 579.112 0.120784C579.112 0.118798 578.668 0.117188 578.12 0.117188C577.572 0.117188 577.127 0.118798 577.127 0.120784Z" fill="#E4ECF9"/>
<path d="M577.966 0.10382H578.59L577.966 0.101563V0.10382Z" fill="#22252D"/>
<path d="M582.007 0.06899H582.72V0.0683387H582.187V0.0664064H582.007V0.06899Z" fill="#2E363A"/>
<path d="M582.334 0.0338337H583.047V0.0331816H582.513V0.0312501H582.334V0.0338337Z" fill="#2E363A"/>
<path d="M582.39 1.56535e-06L578.078 0.015625L578.205 0.0160856L582.517 0.000462085L582.39 1.56535e-06Z" fill="#2E363A"/>
</svg>
