<svg width="48" height="48" viewBox="0 0 48 48" fill="none" xmlns="http://www.w3.org/2000/svg">
<path d="M47.4999 24C47.4999 30.5922 46.6862 36.5409 45.3827 40.825C44.7299 42.9702 43.9628 44.6698 43.1339 45.822C42.2965 46.986 41.4664 47.5 40.6972 47.5C39.9281 47.5 39.098 46.986 38.2606 45.822C37.4317 44.6698 36.6645 42.9702 36.0118 40.825C34.7082 36.5409 33.8945 30.5922 33.8945 24C33.8945 17.4078 34.7082 11.4591 36.0118 7.17499C36.6645 5.02982 37.4317 3.33025 38.2606 2.17803C39.098 1.01399 39.9281 0.5 40.6972 0.5C41.4664 0.5 42.2965 1.01399 43.1339 2.17803C43.9628 3.33025 44.7299 5.02982 45.3827 7.17499C46.6862 11.4591 47.4999 17.4078 47.4999 24Z" stroke="#E2E8ED"/>
</svg>
